<svg version="1.1" xmlns="http://www.w3.org/2000/svg" style="display: block;" viewBox="0 0 1024 1024" width="256" height="256" preserveAspectRatio="none">
<defs>
	<linearGradient id="Gradient1" gradientUnits="userSpaceOnUse" x1="191.122" y1="718.051" x2="205.878" y2="702.949">
		<stop class="stop0" offset="0" stop-opacity="1" stop-color="rgb(220,145,189)"/>
		<stop class="stop1" offset="1" stop-opacity="1" stop-color="rgb(190,169,213)"/>
	</linearGradient>
	<linearGradient id="Gradient2" gradientUnits="userSpaceOnUse" x1="430.798" y1="870.48" x2="402.202" y2="903.52">
		<stop class="stop0" offset="0" stop-opacity="1" stop-color="rgb(210,159,190)"/>
		<stop class="stop1" offset="1" stop-opacity="1" stop-color="rgb(156,205,238)"/>
	</linearGradient>
	<linearGradient id="Gradient3" gradientUnits="userSpaceOnUse" x1="770.668" y1="968.322" x2="775.514" y2="925.05">
		<stop class="stop0" offset="0" stop-opacity="1" stop-color="rgb(20,123,187)"/>
		<stop class="stop1" offset="1" stop-opacity="1" stop-color="rgb(44,145,196)"/>
	</linearGradient>
	<linearGradient id="Gradient4" gradientUnits="userSpaceOnUse" x1="985.615" y1="762.702" x2="918.473" y2="783.582">
		<stop class="stop0" offset="0" stop-opacity="1" stop-color="rgb(9,124,182)"/>
		<stop class="stop1" offset="1" stop-opacity="1" stop-color="rgb(63,157,212)"/>
	</linearGradient>
	<linearGradient id="Gradient5" gradientUnits="userSpaceOnUse" x1="52.9703" y1="610.163" x2="13.4548" y2="624.25">
		<stop class="stop0" offset="0" stop-opacity="1" stop-color="rgb(6,127,188)"/>
		<stop class="stop1" offset="1" stop-opacity="1" stop-color="rgb(55,154,208)"/>
	</linearGradient>
</defs>
<path transform="translate(0,0)" fill="rgb(122,195,237)" d="M 0 0 L 459.151 0 L 470.78 0 L 543.784 0 L 560.356 0 L 1024 0 L 1024 465.285 L 1024 478 L 1024 493.904 L 1024 554.867 L 1024 570.586 L 1024 575.563 L 1024 1024 L 573.773 1024 L 556.353 1024 L 491.53 1024 L 482.661 1024 L 465.637 1024 L 0 1024 L 0 558.879 L 0 547.403 L 0 467.103 L 0 462.479 L 0 0 z"/>
<path transform="translate(0,0)" fill="rgb(254,254,254)" d="M 6.05673 563.6 C 8.97914 559.545 9.22063 559.573 13.3305 558.648 C 15.0088 559.977 24.3733 567.142 25.1295 568.305 C 73.5975 596.348 29.386 605.992 29.4215 636.741 C 29.4355 648.861 76.4435 655.774 63.3513 681.854 L 63.2839 682.689 C 62.4784 691.659 52.7173 717.675 56.9953 721.772 C 62.7312 727.266 92.7272 736.896 100.898 739.793 C 102.266 763.24 96.5125 776.151 96.5233 795.939 C 108.825 798.274 137.946 801.896 145.224 811.543 C 154.98 824.473 142.169 858.376 157.172 861.513 C 173.224 864.861 190.812 859.563 202.273 873.629 C 209.038 881.93 210.293 920.669 220.651 918.961 C 264.889 911.665 270.486 911.411 285.463 959.601 C 287.232 962.583 289.193 967.024 293.12 967.135 C 292.532 970.131 293.023 970.965 294.058 973.734 C 301.553 972.342 332.949 964.695 338.057 969.743 C 355.833 987.311 357.159 1023.32 390.701 1000.3 C 410.797 986.517 428.74 993.976 446.277 1007.38 C 453.008 1012.59 459.469 1018.14 465.637 1024 L 0 1024 L 0 558.879 C 1.25282 559.879 4.95053 562.959 6.05673 563.6 z"/>
<path transform="translate(0,0)" fill="rgb(30,139,196)" d="M 57.0913 680.501 C 61.4852 676.071 59.4126 673.079 62.7485 667.896 C 63.3029 672.803 61.454 679.67 63.3513 681.854 L 63.2839 682.689 C 62.4784 691.659 52.7173 717.675 56.9953 721.772 C 62.7312 727.266 92.7272 736.896 100.898 739.793 C 102.266 763.24 96.5125 776.151 96.5233 795.939 C 108.825 798.274 137.946 801.896 145.224 811.543 C 154.98 824.473 142.169 858.376 157.172 861.513 C 173.224 864.861 190.812 859.563 202.273 873.629 C 209.038 881.93 210.293 920.669 220.651 918.961 C 264.889 911.665 270.486 911.411 285.463 959.601 C 283.45 963.832 287.886 963.092 283.396 966.115 C 281.574 965.841 281.794 965.6 280.294 966.169 C 272.115 952.762 270.382 939.09 259.201 926.939 C 246.2 926.529 234.234 929.58 222.277 929.954 C 199.144 932.049 202.522 886.62 193.026 879.199 C 179.114 868.327 157.806 882.968 140.919 864.719 C 138.153 853.08 137.617 828.512 136.822 815.245 C 76.3896 799.71 85.6862 807.118 92.2539 745.983 C 48.2202 725.487 37.2808 741.104 57.0913 680.501 z"/>
<path transform="translate(0,0)" fill="url(#Gradient5)" d="M 19.7609 572.957 C 18.4162 570.783 18.2286 570.478 17.8589 567.959 L 19.3071 567.18 C 21.5497 567.991 22.7401 568.339 25.1295 568.305 C 73.5975 596.348 29.386 605.992 29.4215 636.741 C 29.4355 648.861 76.4435 655.774 63.3513 681.854 C 61.454 679.67 63.3029 672.803 62.7485 667.896 C 59.4126 673.079 61.4852 676.071 57.0913 680.501 C 57.4645 678.741 58.4815 674.258 57.695 672.922 C 45.5752 652.347 1.45436 652.745 23.8564 620.562 C 29.4541 612.52 35.4369 598.531 38.4148 588.725 C 33.0888 582.603 25.9576 578.586 19.7609 572.957 z"/>
<path transform="translate(0,0)" fill="rgb(22,126,185)" d="M 6.05673 563.6 C 8.97914 559.545 9.22063 559.573 13.3305 558.648 C 15.0088 559.977 24.3733 567.142 25.1295 568.305 C 22.7401 568.339 21.5497 567.991 19.3071 567.18 L 17.8589 567.959 C 18.2286 570.478 18.4162 570.783 19.7609 572.957 L 6.05673 563.6 z"/>
<path transform="translate(0,0)" fill="rgb(40,147,206)" d="M 285.463 959.601 C 287.232 962.583 289.193 967.024 293.12 967.135 C 292.532 970.131 293.023 970.965 294.058 973.734 C 286.438 974.549 284.213 972.156 280.294 966.169 C 281.794 965.6 281.574 965.841 283.396 966.115 C 287.886 963.092 283.45 963.832 285.463 959.601 z"/>
<path transform="translate(0,0)" fill="rgb(254,254,254)" d="M 0 0 L 459.151 0 C 451.133 13.4466 443.147 26.6737 426.844 31.49 C 408.335 36.9576 395.096 17.5624 381.246 19.6799 C 364.553 22.2323 359.643 55.2835 337.999 56.7778 C 323.366 57.7882 310.007 51.2618 295.907 50.5417 C 292.121 55.6833 290.644 57.4697 288.379 63.6287 C 282.477 75.2467 279.094 88.0458 265.856 92.8987 C 253.24 97.5237 229.193 88.7843 220.433 96.9902 L 219.854 97.8249 C 208.227 114.894 216.845 139.556 185.847 145.667 C 177.925 147.229 154.71 148.576 151.536 155.091 C 146.506 165.413 149.296 182.62 146.308 195.195 C 132.092 212.368 113.94 208.379 98.2683 220.374 C 85.613 230.059 105.28 256.422 94.2093 270.792 C 84.9077 282.864 55.846 286.889 51.1371 297.993 L 51.4706 299.831 C 53.4855 314.462 59.3624 327.365 60.6623 343.096 C 48.7949 360.409 28.2991 364.506 18.1584 383.251 C 25.1188 397.557 34.5212 407.845 40.4665 423.199 C 33.2897 437.172 18.0619 448.82 5.76999 458.387 L 0 462.479 L 0 0 z"/>
<path transform="translate(0,0)" fill="rgb(254,254,254)" d="M 965.93 692.218 C 961.813 669.634 992.655 666.263 1001.66 651.362 C 1005.85 639.049 990.202 626.512 985.984 613.652 C 980.815 597.894 1007.42 573.363 1020.69 569.95 L 1024 570.586 L 1024 575.563 L 1024 1024 L 573.773 1024 C 583.345 1013.49 589.965 1008.44 599.788 999.423 C 617.477 992.262 630.161 1007.15 645.086 1010.78 C 662.762 1015.08 670.375 983.653 689.743 971.887 C 703.364 973.453 717.305 978.165 730.924 979.643 C 734.359 980.016 735.263 978.789 737.322 976.837 L 741.546 971.237 C 758.391 937.492 761.935 931.551 799.428 938.481 C 802.912 939.125 807.704 937.577 810.377 934.985 C 809.28 933.675 808.136 931.306 807.297 929.737 C 812.195 922.279 812.087 902.479 818.031 891.216 C 828.489 871.4 849.664 876.977 866.959 872.563 C 879.346 869.401 873.817 839.841 879.796 828.677 C 887.95 813.45 911.315 812.986 927.084 807.414 C 928.427 800.704 924.382 773.045 925.155 760.961 C 939.146 737.047 968.605 742.095 974.891 732.195 C 972.667 728.821 966.34 696.815 965.93 692.218 z"/>
<path transform="translate(0,0)" fill="rgb(30,139,196)" d="M 927.084 807.414 L 929.238 809.001 L 927.488 811.539 L 929.433 812.592 L 932.027 809.831 C 933.435 810.313 933.747 810.297 934.866 811.308 L 934.151 811.855 C 916.767 824.96 889.61 819.548 886.089 843.422 C 884.519 854.065 885.391 873.459 877.09 879.695 C 864.978 888.795 839.229 881.599 829.491 893.314 C 820.364 904.295 820.397 923.344 810.68 934.627 L 810.377 934.985 C 809.28 933.675 808.136 931.306 807.297 929.737 C 812.195 922.279 812.087 902.479 818.031 891.216 C 828.489 871.4 849.664 876.977 866.959 872.563 C 879.346 869.401 873.817 839.841 879.796 828.677 C 887.95 813.45 911.315 812.986 927.084 807.414 z"/>
<path transform="translate(0,0)" fill="rgb(22,126,185)" d="M 965.93 692.218 C 961.813 669.634 992.655 666.263 1001.66 651.362 C 1005.85 639.049 990.202 626.512 985.984 613.652 C 980.815 597.894 1007.42 573.363 1020.69 569.95 L 1024 570.586 L 1024 575.563 C 1012.97 585.947 1002.93 594.592 994.521 607.303 C 998.683 619.856 1016.06 644.561 1011.22 654.543 C 1005.17 667.044 974.277 678.381 970.917 691.635 C 969.388 691.488 968.597 689.86 967.888 688.71 L 967.559 688.166 C 967.462 691.039 966.932 688.055 965.93 692.218 z"/>
<path transform="translate(0,0)" fill="url(#Gradient4)" d="M 974.891 732.195 C 977.958 731.827 978.326 731.999 981.115 733.37 C 978.118 741.63 948.142 752.229 937.115 762.522 C 936.578 773.668 940.45 804.824 936.348 810.383 L 934.866 811.308 C 933.747 810.297 933.435 810.313 932.027 809.831 L 929.433 812.592 L 927.488 811.539 L 929.238 809.001 L 927.084 807.414 C 928.427 800.704 924.382 773.045 925.155 760.961 C 939.146 737.047 968.605 742.095 974.891 732.195 z"/>
<path transform="translate(0,0)" fill="rgb(22,126,185)" d="M 965.93 692.218 C 966.932 688.055 967.462 691.039 967.559 688.166 L 967.888 688.71 C 968.597 689.86 969.388 691.488 970.917 691.635 C 974.963 695.578 977.853 724.615 981.115 733.37 C 978.326 731.999 977.958 731.827 974.891 732.195 C 972.667 728.821 966.34 696.815 965.93 692.218 z"/>
<path transform="translate(0,0)" fill="rgb(254,254,254)" d="M 560.356 0 L 1024 0 L 1024 465.285 C 1014.68 457.987 1004.26 450.115 996.871 440.938 C 1002.44 424.149 1011.08 410.085 1018.89 394.232 C 1005.32 377.625 988.942 372.242 975.682 355.704 C 978.09 343.512 989.022 320.466 986.088 308.932 C 983.918 300.401 953.472 287.494 943.858 282.319 C 945.365 265.594 946.728 248.856 947.947 232.108 C 929.919 219.727 894.553 225.228 896.449 195.413 C 896.073 187.197 897.728 173.826 892.906 166.851 C 885.27 153.396 849.112 159.172 842.294 148.473 C 828.803 127.303 839.045 96.9852 801.691 102.264 C 795.558 103.131 784.955 102.459 777.901 101.014 C 748.551 77.565 774.071 46.5873 712.26 60.0624 C 688.559 65.2291 685.825 38.2279 668.898 23.3814 C 645.029 23.9319 622.65 34.3605 597.229 29.5949 C 577.227 25.8453 571.461 15.7006 560.356 0 z"/>
<path transform="translate(0,0)" fill="rgb(22,126,185)" d="M 459.151 0 L 470.78 0 L 543.784 0 L 560.356 0 C 571.461 15.7006 577.227 25.8453 597.229 29.5949 C 622.65 34.3605 645.029 23.9319 668.898 23.3814 C 685.825 38.2279 688.559 65.2291 712.26 60.0624 C 774.071 46.5873 748.551 77.565 777.901 101.014 C 784.955 102.459 795.558 103.131 801.691 102.264 C 839.045 96.9852 828.803 127.303 842.294 148.473 C 849.112 159.172 885.27 153.396 892.906 166.851 C 897.728 173.826 896.073 187.197 896.449 195.413 C 894.553 225.228 929.919 219.727 947.947 232.108 C 946.728 248.856 945.365 265.594 943.858 282.319 C 953.472 287.494 983.918 300.401 986.088 308.932 C 989.022 320.466 978.09 343.512 975.682 355.704 C 988.942 372.242 1005.32 377.625 1018.89 394.232 C 1011.08 410.085 1002.44 424.149 996.871 440.938 C 1004.26 450.115 1014.68 457.987 1024 465.285 L 1024 478 L 1023.16 478.329 C 984.74 435.803 975.442 455.244 1007.88 394.639 C 997.206 382.938 979.387 381.375 969.397 360.664 C 971.897 341.183 976.145 332.214 977.733 308.964 C 928.031 281.152 928.801 298.99 937.531 239.944 C 939.412 227.226 904.687 231.946 895.018 221.044 C 881.903 206.257 886.109 188.344 884.947 169.41 C 870.556 165.999 851.402 167.044 839.111 159.99 C 826.923 152.995 823.331 126.774 819.901 112.632 C 808.271 112.425 794.558 114.72 784.032 113.113 C 756.731 108.945 757.357 88.362 748.003 70.2249 C 743.125 60.7672 718.704 73.756 705.806 71.1926 C 684.713 67.0008 678.905 48.1855 666.51 31.8295 C 614.016 40.138 593.531 58.5476 552.819 8.20355 C 544.585 18.0224 528.33 30.6632 515.433 32.2929 C 496.519 34.6833 479.446 22.8426 465.179 11.9 C 449.092 31.2146 426.755 55.191 400.632 37.8332 C 371.468 18.4544 375.672 46.3715 357.446 58.2591 C 340.801 69.1161 316.78 61.9584 297.522 57.4642 C 295.468 61.8167 293.309 67.5896 291.455 72.1406 C 288.945 69.218 294.147 66.7771 292.823 58.3758 C 289.775 62.1778 292.78 61.7769 288.379 63.6287 C 290.644 57.4697 292.121 55.6833 295.907 50.5417 C 310.007 51.2618 323.366 57.7882 337.999 56.7778 C 359.643 55.2835 364.553 22.2323 381.246 19.6799 C 395.096 17.5624 408.335 36.9576 426.844 31.49 C 443.147 26.6737 451.133 13.4466 459.151 0 z"/>
<path transform="translate(0,0)" fill="rgb(254,254,254)" d="M 470.78 0 L 543.784 0 C 521.493 33.3858 494.624 24.9467 470.78 0 z"/>
<path transform="translate(0,0)" fill="rgb(22,126,185)" d="M 220.433 96.9902 C 222.344 100.736 223.36 103.263 224.846 107.212 C 219.878 124.377 216.348 142.845 200.015 153.21 C 186.916 161.523 160.986 149.515 157.144 166.208 C 152.711 185.471 163.04 199.911 141.375 213.674 C 130.352 220.675 106.193 220.872 104.557 230.639 C 101.689 247.754 117.075 269.84 96.2485 283.036 C 86.8008 289.022 64.8406 291.929 59.1491 299.043 L 58.2915 302.207 C 55.69 299.429 54.8926 299.073 51.4706 299.831 L 51.1371 297.993 C 55.846 286.889 84.9077 282.864 94.2093 270.792 C 105.28 256.422 85.613 230.059 98.2683 220.374 C 113.94 208.379 132.092 212.368 146.308 195.195 C 149.296 182.62 146.506 165.413 151.536 155.091 C 154.71 148.576 177.925 147.229 185.847 145.667 C 216.845 139.556 208.227 114.894 219.854 97.8249 L 220.433 96.9902 z"/>
<path transform="translate(0,0)" fill="rgb(30,139,196)" d="M 293.12 967.135 C 308.309 961.529 317.54 957.693 333.975 957.183 C 353.412 968.489 355.492 983.481 370.877 998.225 C 415.935 975.934 428.309 977.585 465.634 1011.71 C 469.05 1014.84 473.339 1017.5 476.494 1020.99 C 479.812 1021.58 480.173 1021.73 482.661 1024 L 465.637 1024 C 459.469 1018.14 453.008 1012.59 446.277 1007.38 C 428.74 993.976 410.797 986.517 390.701 1000.3 C 357.159 1023.32 355.833 987.311 338.057 969.743 C 332.949 964.695 301.553 972.342 294.058 973.734 C 293.023 970.965 292.532 970.131 293.12 967.135 z"/>
<path transform="translate(0,0)" fill="rgb(40,147,206)" d="M 476.494 1020.99 C 490.579 1015.54 500.757 999.954 523.737 994.644 C 536.329 998.243 555.47 1011.7 565.252 1020.33 C 570.635 1015.47 577.338 1007.06 582.782 1001.29 C 581.406 1007.41 573.245 1016.29 568.137 1019.81 L 567.308 1020.38 C 581.425 1021.81 588.456 997.133 599.788 999.423 C 589.965 1008.44 583.345 1013.49 573.773 1024 L 556.353 1024 L 491.53 1024 L 482.661 1024 C 480.173 1021.73 479.812 1021.58 476.494 1020.99 z"/>
<path transform="translate(0,0)" fill="rgb(254,254,254)" d="M 491.53 1024 C 501.467 1016 511.632 1008.56 523.989 1004.92 C 535.967 1009.92 545.585 1016.78 556.353 1024 L 491.53 1024 z"/>
<path transform="translate(0,0)" fill="rgb(22,126,185)" d="M 51.4706 299.831 C 54.8926 299.073 55.69 299.429 58.2915 302.207 C 63.0268 316.714 71.5363 337.646 64.9273 351.603 C 57.6259 367.023 26.851 372.546 31.3967 389.232 C 34.383 400.193 57.1139 414.522 47.9213 430.713 C 40.2938 444.146 22.6062 453.333 11.8032 463.424 C 8.07795 460.577 8.08429 462.706 5.76999 458.387 C 18.0619 448.82 33.2897 437.172 40.4665 423.199 C 34.5212 407.845 25.1188 397.557 18.1584 383.251 C 28.2991 364.506 48.7949 360.409 60.6623 343.096 C 59.3624 327.365 53.4855 314.462 51.4706 299.831 z"/>
<path transform="translate(0,0)" fill="rgb(30,139,196)" d="M 582.782 1001.29 C 584.453 998.523 592.052 991.427 594.903 989.563 C 614.121 976.997 630.018 997.758 645.134 1000.82 C 662.152 1002.21 661.678 978.811 674.51 971.299 C 686.118 964.505 692.159 964.393 704.612 966.855 C 714.784 968.866 724.042 970.547 733.792 972.044 C 734.864 974.16 735.314 975.674 737.322 976.837 C 735.263 978.789 734.359 980.016 730.924 979.643 C 717.305 978.165 703.364 973.453 689.743 971.887 C 670.375 983.653 662.762 1015.08 645.086 1010.78 C 630.161 1007.15 617.477 992.262 599.788 999.423 C 588.456 997.133 581.425 1021.81 567.308 1020.38 L 568.137 1019.81 C 573.245 1016.29 581.406 1007.41 582.782 1001.29 z"/>
<path transform="translate(0,0)" fill="rgb(30,139,196)" d="M 1023.16 478.329 L 1024 478 L 1024 493.904 L 1024 554.867 L 1024 570.586 L 1020.69 569.95 C 1022.4 563.588 999.94 538.877 996.453 530.191 C 990.279 514.816 999.84 510.182 1008.36 499.11 C 1012.72 493.437 1021.49 484.112 1023.16 478.329 z"/>
<path transform="translate(0,0)" fill="rgb(254,254,254)" d="M 1024 493.904 L 1024 554.867 C 1017.33 545.353 1008.68 531.839 1003.32 521.759 L 1024 493.904 z"/>
<path transform="translate(0,0)" fill="rgb(254,254,254)" d="M 0 467.103 C 3.63706 470.319 5.31874 472.338 8.44745 476.096 C 13.3464 484.548 26.2645 497.925 32.3961 507.212 C 24.9422 519.573 17.8598 526.818 9.71422 537.973 C 7.52587 540.185 2.23576 545.8 0 547.403 L 0 467.103 z"/>
<path transform="translate(0,0)" fill="rgb(30,139,196)" d="M 288.379 63.6287 C 292.78 61.7769 289.775 62.1778 292.823 58.3758 C 294.147 66.7771 288.945 69.218 291.455 72.1406 C 288.372 84.7068 285.016 93.3995 274.037 101.44 C 261.907 110.323 232.409 102.666 224.846 107.212 C 223.36 103.263 222.344 100.736 220.433 96.9902 C 229.193 88.7843 253.24 97.5237 265.856 92.8987 C 279.094 88.0458 282.477 75.2467 288.379 63.6287 z"/>
<path transform="translate(0,0)" fill="url(#Gradient3)" d="M 739.724 959.926 C 740.157 957.984 740.632 956.051 741.147 954.129 C 751.075 917.47 777.73 921.455 807.297 929.737 C 808.136 931.306 809.28 933.675 810.377 934.985 C 807.704 937.577 802.912 939.125 799.428 938.481 C 761.935 931.551 758.391 937.492 741.546 971.237 C 741.194 967.939 740.28 963.309 739.724 959.926 z"/>
<path transform="translate(0,0)" fill="rgb(22,126,185)" d="M 0 462.479 L 5.76999 458.387 C 8.08429 462.706 8.07795 460.577 11.8032 463.424 L 10.5645 466.053 C 17.7958 474.25 37.0041 497.81 41.3104 506.935 C 37.1431 517.614 25.7282 534.547 17.3806 541.951 C 16.3544 541.736 16.1133 541.983 14.9362 542.267 C 13.7987 544.134 13.4484 545.241 11.5499 546.038 L 8.62487 543.776 C 9.89587 541.809 9.55541 540.56 9.71422 537.973 C 17.8598 526.818 24.9422 519.573 32.3961 507.212 C 26.2645 497.925 13.3464 484.548 8.44745 476.096 C 5.31874 472.338 3.63706 470.319 0 467.103 L 0 462.479 z"/>
<path transform="translate(0,0)" fill="rgb(30,139,196)" d="M 0 462.479 L 5.76999 458.387 C 8.08429 462.706 8.07795 460.577 11.8032 463.424 L 10.5645 466.053 L 8.52996 469.33 L 7.80703 469.245 L 8.48352 468.834 L 7.17384 468.801 L 7.25703 469.369 L 6.10256 468.749 C 6.91243 470.682 8.24992 474.081 8.44745 476.096 C 5.31874 472.338 3.63706 470.319 0 467.103 L 0 462.479 z"/>
<path transform="translate(0,0)" fill="rgb(40,147,206)" d="M 0 547.403 C 2.23576 545.8 7.52587 540.185 9.71422 537.973 C 9.55541 540.56 9.89587 541.809 8.62487 543.776 L 11.5499 546.038 C 13.4484 545.241 13.7987 544.134 14.9362 542.267 C 16.1133 541.983 16.3544 541.736 17.3806 541.951 C 14.8932 548.811 7.43919 549.758 13.3305 558.648 C 9.22063 559.573 8.97914 559.545 6.05673 563.6 C 4.95053 562.959 1.25282 559.879 0 558.879 L 0 547.403 z"/>
<path transform="translate(0,0)" fill="rgb(22,126,185)" d="M 739.724 959.926 C 740.28 963.309 741.194 967.939 741.546 971.237 L 737.322 976.837 C 735.314 975.674 734.864 974.16 733.792 972.044 C 736.183 968.847 738.111 963.71 739.724 959.926 z"/>
<path transform="translate(0,0)" fill="rgb(22,126,185)" d="M 215.034 491.41 C 220.637 447.692 235.45 397.564 261.377 361.684 C 273.609 344.755 301.189 309.561 316.023 298.284 C 365.243 260.865 411.687 233.148 474.447 228.383 C 509.673 225.709 540.709 223.515 576.508 230.33 C 607.797 234.35 641.689 246.957 668.758 264.11 C 683.858 273.679 713.039 293.752 726.829 305.353 C 741.689 317.854 755.771 341.968 769.766 356.262 C 805.141 407.008 820.745 471.347 822.751 532.616 C 823.884 567.217 816.007 595.617 807.313 627.658 C 791.486 690.019 748.66 737.433 700.43 777.675 C 684.104 792.397 665.042 798.898 646.574 808.669 C 593.203 836.908 533.147 845.329 473.617 836.391 C 373.859 821.414 293.346 759.328 243.701 672.908 C 231.39 651.478 221.166 607.715 216.626 583.716 C 212 558.709 209.139 515.81 215.034 491.41 z"/>
<path transform="translate(0,0)" fill="rgb(30,139,196)" d="M 216.626 583.716 C 212 558.709 209.139 515.81 215.034 491.41 C 215.934 505.934 212.119 520.958 213.695 535.608 C 213.694 535.593 216.111 537.805 216.264 537.904 C 224.335 543.127 216.055 551.522 215.743 558.293 C 215.332 567.209 219.765 573.955 216.626 583.716 z"/>
<path transform="translate(0,0)" fill="rgb(254,254,254)" d="M 514.199 233.311 C 678.451 231.522 813.19 362.957 815.479 527.202 C 817.768 691.447 686.744 826.586 522.506 829.375 C 357.561 832.175 221.712 700.462 219.413 535.509 C 217.114 370.556 349.24 235.108 514.199 233.311 z"/>
<path transform="translate(0,0)" fill="rgb(166,2,18)" d="M 492.585 394.224 L 511.702 393.252 C 516.738 407.117 521.606 421.249 529.106 434.019 C 544.195 459.711 576.892 489.045 603.838 501.624 C 614.858 506.769 647.182 519.622 658.895 515.229 C 676.029 508.803 678.95 461.544 735.173 446.763 C 748.076 443.371 761.26 442.888 773.742 448.246 C 780.636 451.206 789.452 456.505 792.232 463.794 C 794.775 470.462 792.599 479.715 789.785 485.983 C 781.868 503.624 762.473 512.473 745.391 518.782 C 730.916 524.127 694.889 530.687 684.712 536.671 C 673.61 543.198 664.933 555.475 655.806 564.565 C 641.974 578.339 625.593 594.282 610.449 606.411 C 589.005 623.587 546.227 633.325 534.879 658.704 C 532.587 663.831 532.269 669.487 534.359 674.748 C 535.942 678.733 538.432 681.755 541.546 684.63 C 569.583 686.601 597.155 685.007 625.272 686.226 C 625.672 694.53 625.548 699.162 624.92 707.467 C 606.191 708.601 402.185 710.378 395.58 706.717 C 392.013 701.73 392.859 693.629 392.942 687.43 C 416.567 682.207 446.003 689.385 469.705 683.575 C 477.993 681.543 479.685 669.028 477.405 661.721 C 468.538 633.302 426.127 633.027 405.362 616.778 C 374.902 592.943 339.313 566.918 320.323 533.006 C 320.228 530.022 321.118 528.68 322.386 526.042 C 321.903 524.359 321.761 523.656 320.896 522.076 C 321.073 519.807 322.144 518.175 323.184 516.114 C 377.196 508.496 436.276 488.102 471.839 443.576 C 481.81 431.092 487.691 409.662 492.585 394.224 z"/>
<path transform="translate(0,0)" fill="rgb(254,254,254)" d="M 343.495 538.832 C 410.653 538.879 477.811 539.273 544.966 540.013 C 574.931 540.243 621.309 539.106 649.482 541.729 C 637.279 560.948 625.823 570.97 608.186 584.845 L 595.357 594.434 C 562.231 618.916 546.583 625.641 505.189 627.383 C 455.61 629.469 427.407 614.929 390.356 582.789 C 373.065 567.79 358.299 558.909 343.495 538.832 z"/>
<path transform="translate(0,0)" fill="rgb(254,254,254)" d="M 749.013 456.249 C 768.379 454.532 788.012 464.906 770.521 485.46 C 754.639 504.125 727.028 512.968 703.233 515.474 C 698.176 516.946 684.471 517.902 678.131 518.926 C 683.034 511.503 686.62 503.418 692.032 495.684 C 705.517 476.41 725.527 460.55 749.013 456.249 z"/>
<path transform="translate(0,0)" fill="rgb(200,40,32)" d="M 322.099 354.555 C 357.639 388.369 329.249 432.725 314.682 468.498 C 310.331 479.181 308.945 490.273 308.454 501.754 C 308.836 505.793 308.893 510.885 310.937 514.24 C 315.463 517.598 317.309 516.861 323.184 516.114 C 322.144 518.175 321.073 519.807 320.896 522.076 L 316.471 523.007 C 304.7 520.325 299.132 500.409 297.331 489.792 C 293.46 449.119 301.245 424.318 312.893 385.9 C 315.774 376.397 318.789 363.46 322.099 354.555 z"/>
<path transform="translate(0,0)" fill="rgb(166,2,18)" d="M 297.331 489.792 L 298.622 487.764 C 302.873 491.677 301.956 504.925 304.657 507.605 C 306.719 504.399 307.156 497.891 307.458 493.951 C 307.536 496.002 307.352 500.375 308.454 501.754 C 308.836 505.793 308.893 510.885 310.937 514.24 C 315.463 517.598 317.309 516.861 323.184 516.114 C 322.144 518.175 321.073 519.807 320.896 522.076 L 316.471 523.007 C 304.7 520.325 299.132 500.409 297.331 489.792 z"/>
<path transform="translate(0,0)" fill="rgb(149,7,28)" d="M 421.993 855.51 L 427.235 855.609 C 435.111 856.759 445.616 858.539 453.341 858.613 L 457.133 859.74 C 475.182 863.242 498.604 864.231 516.991 864.321 C 521.33 863.954 524.919 863.467 529.264 864.178 C 556.668 862.613 583.446 857.314 610.702 855.533 C 616.384 855.161 621.442 856.469 625.461 860.649 C 627.834 859.45 628.612 858.905 630.732 857.292 C 632.729 865.596 637.624 884.533 638.487 892.347 L 639.612 895.056 L 640.635 900.626 C 642.201 908.411 643.127 914.069 643.336 922.064 C 640.657 922.938 640.147 923.195 637.389 922.774 C 625.057 925.977 594.058 938.764 583.255 937.325 C 581.982 935.952 582.074 936.052 581.748 934.198 C 579.981 938.871 575.704 942.067 570.669 940.264 C 563.953 940.907 554.753 942.036 548.221 942.048 C 543.306 942.164 537.972 942.036 533.02 942.018 C 527.849 942.17 524.144 942.644 518.615 942.609 L 517.243 940.993 C 515.711 941.494 513.375 942.087 512.186 943.049 C 505.098 942.832 495.701 945.579 489.162 943.393 C 486.357 942.455 486.203 939.376 485.396 936.454 C 484.192 927.756 483.833 922.323 475.244 918.754 C 463.342 951.076 425.408 940.942 414.189 919.211 C 405.059 910.614 411.369 907.209 406.489 902.598 C 406.069 905.662 405.319 907.58 402.399 908.68 C 402.541 906.548 404.042 902.784 404.734 900.549 C 409.293 885.824 414.913 871.451 422.414 857.959 C 422.414 857.959 422.03 855.725 421.993 855.51 z"/>
<path transform="translate(0,0)" fill="url(#Gradient2)" d="M 421.993 855.51 L 427.235 855.609 C 419.732 876.038 415.335 897.477 414.189 919.211 C 405.059 910.614 411.369 907.209 406.489 902.598 C 406.069 905.662 405.319 907.58 402.399 908.68 C 402.541 906.548 404.042 902.784 404.734 900.549 C 409.293 885.824 414.913 871.451 422.414 857.959 C 422.414 857.959 422.03 855.725 421.993 855.51 z"/>
<path transform="translate(0,0)" fill="rgb(226,159,192)" d="M 453.341 858.613 L 457.133 859.74 C 455.595 870.998 454.8 882.599 453.247 893.789 C 452.218 901.2 451.936 921.39 445.358 924.605 C 444.475 924.075 443.133 923.508 443.16 922.566 C 443.483 911.482 449.654 866.105 453.341 858.613 z"/>
<path transform="translate(0,0)" fill="rgb(220,114,143)" d="M 539.789 910.426 L 542.737 906.98 C 544.598 908.099 544.641 908.186 545.935 909.966 L 548.221 942.048 C 543.306 942.164 537.972 942.036 533.02 942.018 C 533.498 934.453 537.811 918.293 539.789 910.426 z"/>
<path transform="translate(0,0)" fill="rgb(213,169,211)" d="M 480.26 896.041 C 480.991 895.624 485.056 894.435 486.122 894.102 C 485.985 906.758 486.251 923.999 485.396 936.454 C 484.192 927.756 483.833 922.323 475.244 918.754 C 477.261 910.772 478.834 904.135 480.26 896.041 z"/>
<path transform="translate(0,0)" fill="rgb(211,190,228)" d="M 630.732 857.292 C 632.729 865.596 637.624 884.533 638.487 892.347 L 637.695 893.78 C 636.216 891.698 635.073 889.903 633.747 887.751 C 631.806 886.958 630.227 884.412 628.87 882.645 C 628.075 874.671 627.658 868.356 625.461 860.649 C 627.834 859.45 628.612 858.905 630.732 857.292 z"/>
<path transform="translate(0,0)" fill="rgb(213,169,211)" d="M 516.991 864.321 C 521.33 863.954 524.919 863.467 529.264 864.178 C 528.171 871.465 527.53 877.458 526.945 884.807 C 524.376 883.899 523.084 884.072 520.428 884.13 C 518.784 877.383 517.329 871.267 516.991 864.321 z"/>
<path transform="translate(0,0)" fill="rgb(230,138,170)" d="M 510.7 909.139 C 514.411 920.97 517.292 928.688 517.243 940.993 C 515.711 941.494 513.375 942.087 512.186 943.049 C 510.486 936.658 510.354 924.889 508.621 916.765 C 509.149 913.206 509.441 912.421 510.7 909.139 z"/>
<path transform="translate(0,0)" fill="rgb(213,169,211)" d="M 567.475 900.123 C 568.058 897.452 568.107 895.54 570.067 893.78 L 572.148 894.445 C 573.722 901.949 575.415 908.031 577.56 915.406 L 576.96 915.626 C 574.5 916.513 573.624 916.714 571.06 917.127 C 569.218 920.065 569.777 922.519 569.633 926.449 C 569.072 917.473 568.548 909.08 567.475 900.123 z"/>
<path transform="translate(0,0)" fill="rgb(176,182,227)" d="M 577.56 915.406 L 579.777 924.857 C 576.848 930.883 575.716 928.925 569.925 930.981 L 569.633 926.449 C 569.777 922.519 569.218 920.065 571.06 917.127 C 573.624 916.714 574.5 916.513 576.96 915.626 L 577.56 915.406 z"/>
<path transform="translate(0,0)" fill="rgb(149,185,229)" d="M 579.777 924.857 L 581.748 934.198 C 579.981 938.871 575.704 942.067 570.669 940.264 L 569.925 930.981 C 575.716 928.925 576.848 930.883 579.777 924.857 z"/>
<path transform="translate(0,0)" fill="rgb(220,114,143)" d="M 567.475 900.123 C 566.85 895.511 565.122 873.114 568.075 869.848 C 569.818 875.225 571.152 888.083 572.148 894.445 L 570.067 893.78 C 568.107 895.54 568.058 897.452 567.475 900.123 z"/>
<path transform="translate(0,0)" fill="rgb(211,190,228)" d="M 640.635 900.626 C 642.201 908.411 643.127 914.069 643.336 922.064 C 640.657 922.938 640.147 923.195 637.389 922.774 C 638.19 917.181 637.75 914.772 636.767 909.241 C 639.771 906.124 639.82 904.938 640.635 900.626 z"/>
<path transform="translate(0,0)" fill="rgb(220,114,143)" d="M 484.308 872.524 C 485.878 881.293 485.958 885.128 486.122 894.102 C 485.056 894.435 480.991 895.624 480.26 896.041 C 481.397 887.566 482.261 880.794 484.308 872.524 z"/>
<path transform="translate(0,0)" fill="rgb(222,181,214)" d="M 628.87 882.645 C 630.227 884.412 631.806 886.958 633.747 887.751 C 635.073 889.903 636.216 891.698 637.695 893.78 L 638.487 892.347 L 639.612 895.056 C 636.356 896.433 636.029 896.671 633.788 899.403 C 631.493 893.044 630.043 889.329 628.87 882.645 z"/>
<path transform="translate(0,0)" fill="rgb(213,169,211)" d="M 639.612 895.056 L 640.635 900.626 C 639.82 904.938 639.771 906.124 636.767 909.241 L 633.788 899.403 C 636.029 896.671 636.356 896.433 639.612 895.056 z"/>
<path transform="translate(0,0)" fill="rgb(230,138,170)" d="M 520.428 884.13 C 523.084 884.072 524.376 883.899 526.945 884.807 C 526.942 888.437 527.131 890.502 525.944 893.953 L 524.618 894.562 C 522.043 892.139 521.348 887.682 520.428 884.13 z"/>
<path transform="translate(0,0)" fill="rgb(219,73,104)" d="M 545.532 891.981 C 545.718 897.975 545.853 903.97 545.935 909.966 C 544.641 908.186 544.598 908.099 542.737 906.98 L 539.789 910.426 C 541.593 904.244 543.508 898.095 545.532 891.981 z"/>
<path transform="translate(0,0)" fill="rgb(219,73,104)" d="M 505.066 894.575 C 507.238 899.214 509.881 904.134 510.7 909.139 C 509.441 912.421 509.149 913.206 508.621 916.765 C 507.15 909.024 506.062 902.388 505.066 894.575 z"/>
<path transform="translate(0,0)" fill="rgb(220,114,143)" d="M 593.245 867.247 C 601.396 868.051 607.471 877.231 608.149 884.851 C 606.42 884.913 604.69 884.924 602.961 884.884 C 591.422 884.534 592.593 875.846 593.245 867.247 z"/>
<path transform="translate(0,0)" fill="rgb(222,181,214)" d="M 601.017 899.385 C 610.25 901.344 615.683 909.105 613.047 918.418 C 606.373 917.169 600.3 906.304 601.017 899.385 z"/>
<path transform="translate(0,0)" fill="rgb(149,7,28)" d="M 769.112 139.873 C 778.544 144.441 783.362 148.348 790.137 156.015 C 792.349 163.428 797.292 162.081 801.861 168.467 C 802.331 169.123 802.349 169.101 803.088 169.431 C 810.535 170.145 818.112 174.793 821.088 181.839 C 823.052 184.842 826.802 189.029 830.006 190.538 C 841.927 194.355 850.103 202.057 839.216 213.632 C 829.152 224.331 817.522 233.617 807.806 244.547 C 799.513 253.877 792.938 265.735 784.342 274.788 C 778.214 270.704 766.972 264.4 766.816 256.281 C 763.461 254.106 764.017 251.271 758.858 249.399 C 752.547 248.878 744.511 240.757 740.901 235.72 C 739.368 233.61 737.973 231.866 736.33 229.869 C 729.497 233.029 719.904 221.738 715.556 217.149 C 718.193 213.215 721.798 208.595 724.134 204.678 C 737.891 181.611 752.938 161.225 769.112 139.873 z"/>
<path transform="translate(0,0)" fill="rgb(149,7,28)" d="M 769.112 139.873 C 778.544 144.441 783.362 148.348 790.137 156.015 C 792.349 163.428 797.292 162.081 801.861 168.467 C 802.331 169.123 802.349 169.101 803.088 169.431 C 791.747 185.429 756.725 223.973 740.901 235.72 C 739.368 233.61 737.973 231.866 736.33 229.869 C 729.497 233.029 719.904 221.738 715.556 217.149 C 718.193 213.215 721.798 208.595 724.134 204.678 C 737.891 181.611 752.938 161.225 769.112 139.873 z"/>
<path transform="translate(0,0)" fill="rgb(176,182,227)" d="M 790.137 156.015 C 792.349 163.428 797.292 162.081 801.861 168.467 C 802.331 169.123 802.349 169.101 803.088 169.431 C 791.747 185.429 756.725 223.973 740.901 235.72 C 739.368 233.61 737.973 231.866 736.33 229.869 C 737.774 226.6 744.119 218.663 746.487 214.861 C 760.105 192.993 773.811 175.805 790.137 156.015 z"/>
<path transform="translate(0,0)" fill="rgb(176,182,227)" d="M 821.088 181.839 C 823.052 184.842 826.802 189.029 830.006 190.538 C 821.003 201.307 813.766 210.3 802.933 219.426 C 807.372 208.603 815.609 192.393 821.088 181.839 z"/>
<path transform="translate(0,0)" fill="rgb(176,182,227)" d="M 758.858 249.399 C 766.545 240.305 773.027 233.178 782.622 226.044 C 780.531 230.3 769.092 253.452 766.816 256.281 C 763.461 254.106 764.017 251.271 758.858 249.399 z"/>
<path transform="translate(0,0)" fill="rgb(149,7,28)" d="M 121.606 733.243 C 119.36 727.991 107.713 707.238 109.415 704.283 C 116.468 692.04 149.59 682.186 161.543 675.103 C 173.7 667.899 177.503 665.311 186.794 658.319 C 192.448 665.407 199.218 671.361 194.855 680.299 C 196.116 682.062 197.575 684.367 199.19 685.716 C 206.636 686.957 208.304 689.957 209.512 697.084 C 211.104 700.288 212.73 703.476 214.388 706.646 C 218.846 712.979 222.064 718.663 224.936 725.908 C 215.47 730.927 204.112 736.092 194.103 740.016 C 174.429 747.73 158.396 761.165 139.202 769.551 C 136.964 765.243 124.928 743.259 125.195 740.147 C 123.837 738.244 122.634 735.41 121.606 733.243 z"/>
<path transform="translate(0,0)" fill="url(#Gradient1)" d="M 186.061 714.697 C 193.262 708.802 201.978 702.948 209.512 697.084 C 211.104 700.288 212.73 703.476 214.388 706.646 C 210.676 708.583 194.211 717.523 191.303 718.528 C 188.588 717.136 188.221 716.853 186.061 714.697 z"/>
<path transform="translate(0,0)" fill="rgb(211,190,228)" d="M 158.293 717.683 C 150.44 726.309 135.399 733.601 125.195 740.147 C 123.837 738.244 122.634 735.41 121.606 733.243 C 130.465 727.369 147.774 721.46 158.293 717.683 z"/>
<path transform="translate(0,0)" fill="rgb(226,159,192)" d="M 176.028 688.062 L 194.855 680.299 C 196.116 682.062 197.575 684.367 199.19 685.716 C 193.039 687.943 186.922 690.261 180.84 692.67 L 176.028 688.062 z"/>
<path transform="translate(0,0)" fill="rgb(220,114,143)" d="M 186.061 714.697 C 188.221 716.853 188.588 717.136 191.303 718.528 C 183.386 723.224 172.516 728.333 164.129 732.56 C 171.43 724.064 176.81 720.86 186.061 714.697 z"/>
<path transform="translate(0,0)" fill="rgb(230,138,170)" d="M 167.868 691.703 L 176.028 688.062 L 180.84 692.67 C 176.666 694.249 172.438 695.899 168.248 697.414 L 168.032 697.105 C 168.377 695.381 168.052 693.482 167.868 691.703 z"/>
<path transform="translate(0,0)" fill="rgb(220,114,143)" d="M 151.291 701.945 C 156.976 696.867 161.167 694.913 167.868 691.703 C 168.052 693.482 168.377 695.381 168.032 697.105 L 168.248 697.414 C 163.779 699.803 156.423 700.929 151.291 701.945 z"/>
<path transform="translate(0,0)" fill="rgb(149,7,28)" d="M 693.782 815.688 C 706.236 831.157 726.459 864.376 736.429 881.844 C 730.965 885.649 714.649 895.008 711.447 897.588 L 709.608 897.895 C 678.632 916.329 682.526 897.083 671.637 901.685 C 670.299 906.796 676.94 908.906 670.232 912.379 C 662.624 916.318 651.652 919.395 643.336 922.064 C 643.127 914.069 642.201 908.411 640.635 900.626 L 639.612 895.056 L 638.487 892.347 C 637.624 884.533 632.729 865.596 630.732 857.292 C 629.689 854.166 628.408 851.563 629.375 848.468 C 633.718 844.269 660.14 835.222 666.887 833.597 L 674.636 829.307 C 681.073 825.03 687.505 820.237 693.782 815.688 z"/>
<path transform="translate(0,0)" fill="rgb(149,7,28)" d="M 693.782 815.688 C 706.236 831.157 726.459 864.376 736.429 881.844 C 730.965 885.649 714.649 895.008 711.447 897.588 L 709.608 897.895 C 704.558 896.548 702.558 892.17 699.876 887.854 C 697.016 882.719 694.03 877.655 690.921 872.666 C 693.012 870.461 693.71 869.907 694.715 866.918 C 692.865 863.527 690.675 860.045 688.664 856.721 L 682.848 846.642 C 680.474 840.778 677.457 834.985 674.636 829.307 C 681.073 825.03 687.505 820.237 693.782 815.688 z"/>
<path transform="translate(0,0)" fill="rgb(226,159,192)" d="M 694.715 866.918 C 697.876 871.291 700.455 875.583 703.268 880.171 C 703.379 883.375 703.458 885.29 703.953 888.489 L 702.587 889.035 L 699.876 887.854 C 697.016 882.719 694.03 877.655 690.921 872.666 C 693.012 870.461 693.71 869.907 694.715 866.918 z"/>
<path transform="translate(0,0)" fill="rgb(230,138,170)" d="M 703.268 880.171 C 706.269 885.183 710.923 891.898 711.447 897.588 L 709.608 897.895 C 704.558 896.548 702.558 892.17 699.876 887.854 L 702.587 889.035 L 703.953 888.489 C 703.458 885.29 703.379 883.375 703.268 880.171 z"/>
<path transform="translate(0,0)" fill="rgb(211,190,228)" d="M 674.636 829.307 C 677.457 834.985 680.474 840.778 682.848 846.642 L 677.392 849.236 C 673.468 843.806 670.427 839.283 666.887 833.597 L 674.636 829.307 z"/>
<path transform="translate(0,0)" fill="rgb(226,159,192)" d="M 688.664 856.721 C 690.675 860.045 692.865 863.527 694.715 866.918 C 693.71 869.907 693.012 870.461 690.921 872.666 L 684.848 861.928 C 687.132 860.198 687.38 859.25 688.664 856.721 z"/>
<path transform="translate(0,0)" fill="rgb(222,181,214)" d="M 682.848 846.642 L 688.664 856.721 C 687.38 859.25 687.132 860.198 684.848 861.928 C 682.577 857.808 679.805 853.333 677.392 849.236 L 682.848 846.642 z"/>
<path transform="translate(0,0)" fill="rgb(230,138,170)" d="M 655.904 859.671 C 660.668 862.226 667.206 871.261 669.481 876.291 C 671.791 881.397 671.087 881.322 669.369 885.914 C 666.368 887.444 667.53 887.38 664.843 886.678 C 659.936 880.931 657.667 867.488 655.904 859.671 z"/>
<path transform="translate(0,0)" fill="rgb(149,7,28)" d="M 346.617 824.18 C 355.161 827.301 378.176 835.243 380.907 843.974 C 383.139 848.736 386.091 847.435 388.683 850.831 C 391.758 847.251 390.821 847.222 394.674 846.233 C 405.788 848.753 410.413 853.667 421.993 855.51 C 422.03 855.725 422.414 857.959 422.414 857.959 C 414.913 871.451 409.293 885.824 404.734 900.549 C 404.042 902.784 402.541 906.548 402.399 908.68 C 400.562 912.269 396.159 922.243 392.813 923.914 C 387.557 926.54 373.426 919.289 371.93 914.201 C 370.423 912.8 368.35 911.292 366.691 910 C 358.96 912.798 351.668 910.563 344.259 907.834 L 338.822 905.873 C 331.281 902.83 325.831 900.748 318.857 896.638 C 328.007 869.733 338.421 854.649 346.617 824.18 z"/>
<path transform="translate(0,0)" fill="rgb(176,182,227)" d="M 371.63 870.823 C 373.701 863.124 376.92 850.78 380.907 843.974 C 383.139 848.736 386.091 847.435 388.683 850.831 C 383.128 857.827 377.533 864.147 371.63 870.823 z"/>
<path transform="translate(0,0)" fill="rgb(231,175,187)" d="M 379.214 890.634 C 380.976 890.687 382.974 890.606 384.622 891.052 C 381.444 897.507 375.943 908.01 371.93 914.201 C 370.423 912.8 368.35 911.292 366.691 910 C 371.08 905.043 375.98 896.362 379.214 890.634 z"/>
<path transform="translate(0,0)" fill="rgb(211,190,228)" d="M 346.986 883.772 C 350.692 884.937 350.099 884.117 351.75 886.824 C 350.037 893.375 348.01 902.244 344.259 907.834 L 338.822 905.873 C 342.17 898.753 344.902 891.359 346.986 883.772 z"/>
<path transform="translate(0,0)" fill="rgb(231,175,187)" d="M 346.986 883.772 C 350.352 872.709 351.303 868.715 357.915 859.18 C 355.769 868.374 353.714 877.589 351.75 886.824 C 350.099 884.117 350.692 884.937 346.986 883.772 z"/>
<path transform="translate(0,0)" fill="rgb(220,114,143)" d="M 379.214 890.634 C 381.929 886.294 384.747 880.825 388.921 878.11 L 390.234 878.182 L 389.645 878.026 C 390.11 882.462 386.94 887.343 384.622 891.052 C 382.974 890.606 380.976 890.687 379.214 890.634 z"/>
<path transform="translate(0,0)" fill="rgb(149,7,28)" d="M 70.1826 550.718 C 99.2564 545.168 135.511 539.266 164.952 537.781 C 165.701 545.993 166.105 554.479 166.596 562.731 L 167.625 570.949 C 168.913 578.853 169.039 584.246 169.269 592.3 C 157.544 594.618 146.113 595.411 135.127 597.566 C 115.314 600.816 95.3769 603.258 75.3653 604.888 C 74.7609 599.598 72.6586 585.736 73.8361 581.474 C 72.7008 579.411 72.2332 576.495 71.6993 574.131 L 70.1826 550.718 z"/>
<path transform="translate(0,0)" fill="rgb(213,169,211)" d="M 167.625 570.949 C 158.396 570.936 131.091 574.318 125.531 570.221 L 126.514 569.006 C 134.314 565.179 157.225 563.452 166.596 562.731 L 167.625 570.949 z"/>
<path transform="translate(0,0)" fill="rgb(222,181,214)" d="M 71.6993 574.131 C 77.6977 573.85 104.057 571.708 107.211 574.105 L 105.774 574.806 L 107.102 573.885 L 106.469 573.673 C 104.246 576.282 78.5618 581.187 73.8361 581.474 C 72.7008 579.411 72.2332 576.495 71.6993 574.131 z"/>
<path transform="translate(0,0)" fill="rgb(149,7,28)" d="M 203.52 213.997 C 202.112 207.503 214.727 196.18 219.764 192.182 C 227.6 201.3 234.081 209.018 242.481 217.544 C 252.025 227.231 280.039 246.177 284.853 257.475 C 282.68 262.058 270.758 273.611 266.825 276.052 L 262.297 281.512 C 258.351 287.038 248.791 293.256 243.176 297.01 C 221.594 278.033 201.847 252.712 177.821 234.377 C 182.029 230.228 190.07 221.011 195.382 219.525 C 197.438 218.95 198.968 220.553 200.91 221.831 C 201.032 218.75 202.213 216.75 203.52 213.997 z"/>
<path transform="translate(0,0)" fill="rgb(222,181,214)" d="M 244.983 254.696 C 252.407 260.929 261.095 268.142 266.825 276.052 L 262.297 281.512 C 254.479 273.771 245.973 265.668 238.758 257.435 C 240.729 255.75 242.078 256.061 244.983 254.696 z"/>
<path transform="translate(0,0)" fill="rgb(222,181,214)" d="M 203.52 213.997 C 212.331 222.699 222.4 231.073 229.726 240.658 C 218.095 234.994 211.111 229.82 200.91 221.831 C 201.032 218.75 202.213 216.75 203.52 213.997 z"/>
<path transform="translate(0,0)" fill="rgb(231,175,187)" d="M 238.758 257.435 C 236.291 254.88 234.884 253.09 234.693 249.854 L 236.265 249.146 C 240.128 249.61 242.093 252.024 244.983 254.696 C 242.078 256.061 240.729 255.75 238.758 257.435 z"/>
<path transform="translate(0,0)" fill="rgb(149,7,28)" d="M 505.122 69.475 C 508.979 67.596 514.77 66.1189 518.993 67.2288 C 523.59 72.0347 525.374 149.599 527.015 162.956 C 522.824 163.146 509.453 164.077 506.184 163.222 C 503.136 164.32 498.753 165.696 495.525 165.553 C 487.175 166.472 480.771 166.86 472.365 167.108 C 471.31 134.576 467.474 105.832 466.913 71.1983 C 472.781 70.911 483.541 69.8207 488.439 72.1544 C 496.097 70.3948 496.001 67.4684 505.122 69.475 z"/>
<path transform="translate(0,0)" fill="rgb(176,182,227)" d="M 493.429 146.114 C 493.787 144.746 494.343 143.463 494.863 142.146 L 498.439 140.841 C 501.729 147.743 505.497 155.522 506.184 163.222 C 503.136 164.32 498.753 165.696 495.525 165.553 L 493.429 146.114 z"/>
<path transform="translate(0,0)" fill="rgb(176,182,227)" d="M 493.707 82.0284 C 496.89 77.0349 497.539 73.329 503.58 74.0216 C 504.045 80.2342 504.087 85.1979 504.065 91.4147 C 500.095 90.1887 501.792 90.1664 497.655 91.7255 L 493.707 82.0284 z"/>
<path transform="translate(0,0)" fill="rgb(149,185,229)" d="M 488.439 72.1544 C 496.097 70.3948 496.001 67.4684 505.122 69.475 L 503.58 74.0216 C 497.539 73.329 496.89 77.0349 493.707 82.0284 C 492.182 78.8919 490.115 75.2785 488.439 72.1544 z"/>
<path transform="translate(0,0)" fill="rgb(222,181,214)" d="M 497.655 91.7255 C 501.792 90.1664 500.095 90.1887 504.065 91.4147 C 504.784 97.4597 505.315 103.865 505.92 109.953 C 502.73 104.222 500.211 97.7915 497.655 91.7255 z"/>
<path transform="translate(0,0)" fill="rgb(230,138,170)" d="M 488.325 121.759 C 491.585 126.747 495.621 135.272 498.439 140.841 L 494.863 142.146 C 494.343 143.463 493.787 144.746 493.429 146.114 C 492.865 138.761 490.15 129.13 488.325 121.759 z"/>
<path transform="translate(0,0)" fill="rgb(149,7,28)" d="M 549.949 67.6974 C 558.093 68.7259 566.246 69.6839 574.407 70.5713 L 579.99 71.4844 C 587.909 72.1202 595.839 72.6063 603.776 72.9426 L 601.6 97.8686 C 599.981 115.363 599.355 151.713 584.907 163.339 C 579.388 167.78 572.564 169.179 565.627 168.415 C 558.083 167.585 549.302 164.879 544.507 158.594 C 535.013 146.15 547.381 85.4046 549.949 67.6974 z"/>
<path transform="translate(0,0)" fill="rgb(230,138,170)" d="M 574.407 70.5713 L 579.99 71.4844 C 577.873 85.0102 573.019 143.959 568.755 150.68 L 567.237 150.821 C 566.916 150.406 566.755 150.223 566.482 149.728 C 563.503 144.336 572.292 79.8963 574.407 70.5713 z"/>
<path transform="translate(0,0)" fill="rgb(149,7,28)" d="M 868.57 541.699 C 887.76 543.44 906.865 548.054 925.916 551.382 C 936.099 553.161 952.932 554.59 962.036 557.493 C 961.448 568.084 963.332 573.781 951.951 576.46 C 951.777 579.787 951.208 584.831 952.163 587.798 L 953.846 588.515 C 956.384 593.045 953.666 604.394 952.764 610.257 C 923.936 605.098 887.484 602.267 859.925 596.424 C 859.686 587.168 860.031 582.922 862.994 574.402 C 863.295 569.45 863.403 568.415 865.051 563.777 C 866.091 556.823 867.134 548.465 868.57 541.699 z"/>
<path transform="translate(0,0)" fill="rgb(176,182,227)" d="M 931.612 578.508 C 938.224 578.054 945.315 577.173 951.951 576.46 C 951.777 579.787 951.208 584.831 952.163 587.798 C 944.911 586.815 939.46 585.813 932.308 584.24 L 931.612 578.508 z"/>
<path transform="translate(0,0)" fill="rgb(176,182,227)" d="M 865.051 563.777 C 866.246 563.877 872.015 564.291 872.84 564.509 C 874.898 566.898 876.906 569.255 879.063 571.557 L 862.994 574.402 C 863.295 569.45 863.403 568.415 865.051 563.777 z"/>
<path transform="translate(0,0)" fill="rgb(222,181,214)" d="M 872.84 564.509 C 881.932 565.326 894.646 566.104 903.329 567.836 C 895.245 569.974 887.347 570.646 879.063 571.557 C 876.906 569.255 874.898 566.898 872.84 564.509 z"/>
<path transform="translate(0,0)" fill="rgb(226,159,192)" d="M 916.566 580.26 C 921.268 579.252 926.769 578.932 931.612 578.508 L 932.308 584.24 L 916.566 580.26 z"/>
<path transform="translate(0,0)" fill="rgb(149,7,28)" d="M 965.417 525.928 C 942.298 526.449 919.006 529.016 895.78 529.912 C 879.445 530.543 872.204 524.85 867.079 509.488 C 862.179 494.8 872.719 478.885 887.334 476.324 C 911.438 472.098 939.49 471.125 963.842 470.149 C 963.574 478.695 963.902 488.491 963.991 497.129 L 963.818 504.414 C 964.616 510.896 964.961 519.28 965.417 525.928 z"/>
<path transform="translate(0,0)" fill="rgb(213,169,211)" d="M 963.818 504.414 C 937.476 504.773 911.677 508.478 885.494 508.406 C 884.138 508.402 884.222 507.811 883.352 506.688 C 883.779 502.757 883.168 504.107 885.36 501.238 C 893.799 498.039 951.546 497.098 963.991 497.129 L 963.818 504.414 z"/>
<path transform="translate(0,0)" fill="rgb(149,7,28)" d="M 819.64 326.215 C 813.227 314.229 803.501 304.64 797.837 292.918 C 789.314 273.812 821.324 255.688 833.689 246.033 C 850.306 233.056 872.11 224.187 884.932 247.363 C 894.763 265.136 887.88 279.705 870.868 289.034 C 868.914 290.106 867.486 288.769 865.799 287.818 C 864.322 289.406 862.12 291.938 860.495 293.212 L 860.075 295.381 C 851.184 305.56 831.389 318.958 819.64 326.215 z"/>
<path transform="translate(0,0)" fill="rgb(213,169,211)" d="M 846.619 274.994 C 840.578 280.214 822.388 298.075 814.662 294.927 L 815.118 292.899 C 818.237 289.809 863.669 255.611 866.945 254.596 L 867.839 255.369 C 865.883 261.347 859.119 267.901 854.756 272.623 C 858.288 279.09 860.766 282.561 865.799 287.818 C 864.322 289.406 862.12 291.938 860.495 293.212 C 855.013 284.296 853.677 282.339 846.619 274.994 z"/>
<path transform="translate(0,0)" fill="rgb(149,7,28)" d="M 923.613 399.336 C 951.155 394.478 968.562 416.288 955.15 441.746 C 948.283 454.781 912.434 458.437 896.837 461.036 C 886.295 462.661 879.028 463.294 869.846 457.255 C 857.551 448.908 855.157 428.643 863.98 417.102 C 872.706 405.688 889.779 404.499 902.865 402.338 C 909.703 401.209 916.723 400.317 923.613 399.336 z"/>
<path transform="translate(0,0)" fill="rgb(226,159,192)" d="M 929.618 422.301 C 933.329 421.831 938.686 421.244 941.931 423.254 L 941.361 424.674 C 933.059 429.639 898.606 437.236 887.784 439.392 C 883.631 440.399 877.909 442.779 874.702 439.952 L 875.302 437.708 C 884.665 429.287 916.275 424.556 929.618 422.301 z"/>
<path transform="translate(0,0)" fill="rgb(149,7,28)" d="M 294.614 134.006 C 295.342 133.335 296.099 132.696 296.883 132.092 C 313.888 118.793 351.448 104.688 357.57 136.67 C 357.776 137.745 359.144 149.981 359.171 150.009 C 366.646 157.611 373.147 165.523 379.546 174.021 C 382.113 178.773 385.883 185.333 388.052 190.092 C 384.792 191.58 366.72 200.369 364.746 200.687 C 363.112 201.693 360.389 203.504 358.742 204.214 C 351.83 208.471 345.191 212.459 338.649 217.301 C 328.743 190.803 305.173 160.448 294.614 134.006 z"/>
<path transform="translate(0,0)" fill="rgb(211,190,228)" d="M 358.742 204.214 C 354.945 197.321 342.863 177.079 344.452 169.57 L 345.988 169.396 C 352.493 174.326 361.311 192.83 364.746 200.687 C 363.112 201.693 360.389 203.504 358.742 204.214 z"/>
<path transform="translate(0,0)" fill="rgb(230,138,170)" d="M 325.824 134.374 C 334.616 136.391 340.244 146.165 339.948 154.8 C 334.077 152.954 325.162 141.352 325.824 134.374 z"/>
<path transform="translate(0,0)" fill="rgb(149,7,28)" d="M 78.2121 449.524 C 78.2045 448.68 78.2205 447.836 78.2602 446.993 C 78.8249 434.447 82.5126 412.989 92.2328 404.126 C 101.888 395.323 117.4 399.705 128.015 404.271 C 127.777 404.169 131.93 409.044 132.311 409.477 C 134.946 408.102 134.553 407.539 136.047 404.424 C 146.788 404.85 154.049 405.133 164.692 407.721 C 168.424 408.628 177.945 411.691 180.726 412.072 C 177.801 420.489 176.053 427.11 173.885 435.784 C 173.427 438.119 173.046 440.454 172.302 442.709 C 170.996 450.261 169.836 457.952 168.624 465.53 C 141.653 458.525 105.994 453.402 78.2121 449.524 z"/>
<path transform="translate(0,0)" fill="rgb(226,159,192)" d="M 172.302 442.709 C 165.427 442.3 138.256 436.657 133.472 431.922 L 133.498 430.117 C 142.212 424.392 164.616 432.848 173.885 435.784 C 173.427 438.119 173.046 440.454 172.302 442.709 z"/>
<path transform="translate(0,0)" fill="rgb(230,138,170)" d="M 99.6111 421.251 C 110.707 420.112 116.851 417.983 119.343 430.857 C 115.114 430.116 107.268 427.922 103.386 426.21 C 100.14 424.779 100.503 424.153 99.6111 421.251 z"/>
<path transform="translate(0,0)" fill="rgb(149,7,28)" d="M 630.079 78.4117 C 670.943 90.4506 698.963 96.1818 663.333 138.391 C 662.159 141.177 665.5 143.152 665.087 146.551 C 663.818 157.007 661.464 174.523 653.005 181.404 C 650.196 183.689 633.494 177.855 630.273 176.31 L 626.346 174.823 L 602.405 167.67 C 615.779 133.944 623.088 114.077 630.079 78.4117 z"/>
<path transform="translate(0,0)" fill="rgb(213,169,211)" d="M 626.346 174.823 C 628.352 165.716 632.898 146.115 638.324 139.159 L 640.203 138.408 C 644.302 145.139 635.055 170.825 630.273 176.31 L 626.346 174.823 z"/>
<path transform="translate(0,0)" fill="rgb(230,138,170)" d="M 654.114 103.617 C 659.734 109.59 651.547 118.038 646.975 122.408 C 640.469 115.028 646.642 106.918 654.114 103.617 z"/>
<path transform="translate(0,0)" fill="rgb(149,7,28)" d="M 160.423 318.637 C 152.977 314.405 143.484 309.019 139.921 300.965 C 132.394 283.948 152.337 267.179 165.85 260.967 C 174.526 264.791 183.619 269.668 180.139 280.563 C 182.231 282.931 184.439 285.617 186.807 287.661 C 200.058 284.268 212.697 283.73 224.964 291.069 C 225.817 291.58 226.648 292.126 227.455 292.706 C 232.511 301.131 233.771 308.217 231.367 318.043 C 228.851 328.195 222.382 336.92 213.399 342.276 C 212.953 342.526 212.507 342.777 212.061 343.027 C 208.208 345.721 207.002 345.821 206.64 351.137 C 191.974 347.444 176.487 344.296 161.655 341.06 C 170.005 337.086 196.721 350.537 206.884 345.913 C 204.661 345.85 195.088 343.066 191.456 342.681 C 181.607 341.636 181.39 329.438 178.934 322.651 C 177.517 318.734 166.334 321.487 160.783 320.083 L 160.423 318.637 z"/>
<path transform="translate(0,0)" fill="rgb(176,182,227)" d="M 186.78 313.318 C 188.171 315.453 188.584 316.102 189.489 318.475 C 187.004 321.857 183.005 326.462 182.401 330.397 C 184.758 341.665 202.592 343.243 212.061 343.027 C 208.208 345.721 207.002 345.821 206.64 351.137 C 191.974 347.444 176.487 344.296 161.655 341.06 C 170.005 337.086 196.721 350.537 206.884 345.913 C 204.661 345.85 195.088 343.066 191.456 342.681 C 181.607 341.636 181.39 329.438 178.934 322.651 C 177.517 318.734 166.334 321.487 160.783 320.083 L 160.423 318.637 C 171.782 319.319 176.165 317.259 186.78 313.318 z"/>
<path transform="translate(0,0)" fill="rgb(231,175,187)" d="M 186.78 313.318 C 196.695 308.803 214.98 302.447 213.574 320.831 L 212.806 321.972 C 203.148 319.164 199.279 311.009 189.489 318.475 C 188.584 316.102 188.171 315.453 186.78 313.318 z"/>
<path transform="translate(0,0)" fill="rgb(213,169,211)" d="M 180.139 280.563 C 182.231 282.931 184.439 285.617 186.807 287.661 C 181.046 289.947 162.724 296.604 159.077 289.446 C 161.546 285.197 169.344 287.324 173.411 285.62 C 175.828 284.608 178.2 282.341 180.139 280.563 z"/>
<path transform="translate(0,0)" fill="rgb(149,7,28)" d="M 862.776 612.406 C 878.868 612.497 942.26 626.609 938.688 649.927 C 933.655 682.789 918.052 692.164 888.036 680.178 C 885.706 680.527 886.773 680.726 884.729 679.57 C 884.558 674.056 888.465 660.321 891.772 655.892 C 893.468 653.62 897.073 651.348 899.331 648.29 C 896.478 645.964 889.279 643.371 885.587 641.862 L 882.369 641.353 C 881.313 642.429 880.178 645.579 878.511 647.63 L 884.269 651.581 L 883.364 654.364 L 881.101 653.641 C 880.514 657.471 879.34 659.015 877.197 662.207 L 875.575 662.936 C 873.419 666.185 871.291 670.169 867.885 671.844 C 862.847 672.279 859.173 671.054 855.364 667.691 C 840.269 654.36 839.499 635.862 852.656 621.056 C 855.613 617.718 859.019 614.807 862.776 612.406 z"/>
<path transform="translate(0,0)" fill="rgb(211,190,228)" d="M 880.168 651.073 C 875.494 647.333 859.019 639.387 859.314 633.546 C 864.486 632.363 880.448 638.572 885.875 640.606 L 885.587 641.862 L 882.369 641.353 C 881.313 642.429 880.178 645.579 878.511 647.63 L 884.269 651.581 L 883.364 654.364 L 881.101 653.641 C 880.514 657.471 879.34 659.015 877.197 662.207 L 875.575 662.936 C 875.959 661.093 879.278 653.283 880.168 651.073 z"/>
<path transform="translate(0,0)" fill="rgb(211,190,228)" d="M 885.875 640.606 C 894.639 643.388 903.167 646.865 911.378 651.003 C 908.05 653.654 907.619 654.128 905.259 657.669 C 900.92 655.894 900.813 655.083 896.717 655.534 C 890.024 659.887 884.383 673.462 888.036 680.178 C 885.706 680.527 886.773 680.726 884.729 679.57 C 884.558 674.056 888.465 660.321 891.772 655.892 C 893.468 653.62 897.073 651.348 899.331 648.29 C 896.478 645.964 889.279 643.371 885.587 641.862 L 885.875 640.606 z"/>
<path transform="translate(0,0)" fill="rgb(222,181,214)" d="M 911.378 651.003 C 914.716 653.006 918.869 654.982 920.663 658.308 L 920.054 659.833 C 914.981 661.515 910.243 659.352 905.259 657.669 C 907.619 654.128 908.05 653.654 911.378 651.003 z"/>
<path transform="translate(0,0)" fill="rgb(149,7,28)" d="M 119.843 331.177 C 133.336 335.365 147.823 338.292 161.655 341.06 C 176.487 344.296 191.974 347.444 206.64 351.137 C 207.657 352.993 208.554 353.873 207.513 356.019 C 205.472 360.224 199.352 374.023 194.805 375.359 C 192.362 376.077 182.84 371.485 178.798 374.656 C 179.504 381.118 186.739 384.078 191.97 387.086 C 189.358 394.65 186.706 401.754 182.461 408.603 L 180.726 412.072 C 177.945 411.691 168.424 408.628 164.692 407.721 C 154.049 405.133 146.788 404.85 136.047 404.424 C 140.214 401.254 150.97 404.252 158.411 402.417 L 159.11 400.968 C 153.929 392.55 140.308 392.078 138.065 384.638 C 125.885 376.362 115.294 370.213 105.064 359.404 C 107.912 350.219 114.75 339.557 119.843 331.177 z"/>
<path transform="translate(0,0)" fill="rgb(176,182,227)" d="M 138.065 384.638 C 153.265 393.389 168.118 400.559 182.461 408.603 L 180.726 412.072 C 177.945 411.691 168.424 408.628 164.692 407.721 C 154.049 405.133 146.788 404.85 136.047 404.424 C 140.214 401.254 150.97 404.252 158.411 402.417 L 159.11 400.968 C 153.929 392.55 140.308 392.078 138.065 384.638 z"/>
<path transform="translate(0,0)" fill="rgb(230,138,170)" d="M 135.588 353.961 C 142.138 353.964 159.568 359.454 164.471 364.631 C 167.698 368.038 166.977 368.664 167.174 372.942 C 161.271 373.029 140.672 358.244 135.588 353.961 z"/>
<path transform="translate(0,0)" fill="rgb(149,7,28)" d="M 378.139 96.2415 C 389.535 90.6053 398.269 88.5962 410.672 85.4238 C 422.881 113.305 436.981 142.124 449.684 170.14 C 444.158 171.488 426.7 176.59 422.076 174.663 C 418.846 175.609 415.593 176.627 412.306 177.335 C 409.47 180.707 395.959 184.895 390.351 189.354 L 388.052 190.092 C 385.883 185.333 382.113 178.773 379.546 174.021 C 384.648 174.46 382.192 177.845 385.432 180.662 C 388.967 175.631 378.998 137.137 381.044 123.895 C 380.384 115.89 378.304 103.531 378.139 96.2415 z"/>
<path transform="translate(0,0)" fill="rgb(176,182,227)" d="M 381.044 123.895 C 383.098 134.937 390.214 179.852 390.351 189.354 L 388.052 190.092 C 385.883 185.333 382.113 178.773 379.546 174.021 C 384.648 174.46 382.192 177.845 385.432 180.662 C 388.967 175.631 378.998 137.137 381.044 123.895 z"/>
<path transform="translate(0,0)" fill="rgb(211,190,228)" d="M 412.306 177.335 C 411.737 173.502 410.368 166.869 414.509 165.406 C 417.929 167.014 420.015 171.32 422.076 174.663 C 418.846 175.609 415.593 176.627 412.306 177.335 z"/>
<path transform="translate(0,0)" fill="rgb(226,159,192)" d="M 403.978 137.981 L 408.463 133.78 C 410.257 138.612 412.639 142.938 410.073 147.847 C 405.6 148.478 404.852 141.559 403.978 137.981 z"/>
<path transform="translate(0,0)" fill="rgb(220,114,143)" d="M 399.816 112.629 C 402.762 119.577 405.903 126.704 408.463 133.78 L 403.978 137.981 C 403.666 132.413 400.889 118.699 399.816 112.629 z"/>
<path transform="translate(0,0)" fill="rgb(149,7,28)" d="M 72.759 478.467 C 104.664 476.857 136.519 474.377 168.289 471.028 C 167.665 479.321 167.103 487.618 166.603 495.919 C 165.476 500.944 164.897 504.77 164.211 509.817 C 164.384 517.217 164.047 525.406 163.887 532.869 C 143.369 527.633 88.8365 515.658 69.9639 514.295 C 69.9692 502.797 71.481 489.945 72.759 478.467 z"/>
<path transform="translate(0,0)" fill="rgb(149,185,229)" d="M 166.603 495.919 C 165.476 500.944 164.897 504.77 164.211 509.817 C 161.548 509.326 158.741 508.507 156.107 507.809 C 156.473 504.171 157.323 500.385 158.05 496.786 L 166.603 495.919 z"/>
<path transform="translate(0,0)" fill="rgb(176,182,227)" d="M 156.107 507.809 C 152.06 506.171 146.653 504.378 148.548 499.361 C 151.239 497.245 154.585 497.223 158.05 496.786 C 157.323 500.385 156.473 504.171 156.107 507.809 z"/>
<path transform="translate(0,0)" fill="rgb(230,138,170)" d="M 121.774 497.423 C 126.69 496.656 128.348 496.818 131.742 500.539 L 131.385 502.32 C 126.291 505.759 116.725 503.59 110.762 502.731 C 105.681 502.2 101.982 501.626 96.9665 500.647 C 104.427 499.201 114.072 498.324 121.774 497.423 z"/>
<path transform="translate(0,0)" fill="rgb(149,7,28)" d="M 874.188 396.524 C 847.231 406.745 828.65 356.506 852.289 344.841 C 868.87 336.659 895.545 321.411 914.178 320.92 C 922.895 320.69 941.399 346.157 935.957 355.708 C 930.472 369.629 919.042 375.646 906.302 382.821 C 903.701 377.727 901.514 373.623 898.555 368.694 C 895.756 367.016 893.523 364.716 892.822 361.558 C 895.06 357.59 899.153 358.568 902.436 354.746 L 901.893 352.693 C 897.362 350.569 877.123 359.062 875.645 362.278 L 876.639 363.822 L 880.372 364.31 C 882.273 365.778 881.741 364.861 882.25 366.997 C 885.304 373.899 889.021 381.751 891.108 388.891 C 885.96 391.687 879.873 395.259 874.188 396.524 z"/>
<path transform="translate(0,0)" fill="rgb(211,190,228)" d="M 870.775 370.212 C 866.515 371.99 862.444 374.47 858.04 372.183 C 858.009 363.519 908.871 343.168 917.647 343.236 L 918.526 344.624 C 914.582 349.152 900.569 356.129 897.194 362.265 C 896.112 364.23 897.585 366.287 898.555 368.694 C 895.756 367.016 893.523 364.716 892.822 361.558 C 895.06 357.59 899.153 358.568 902.436 354.746 L 901.893 352.693 C 897.362 350.569 877.123 359.062 875.645 362.278 L 876.639 363.822 L 880.372 364.31 C 882.273 365.778 881.741 364.861 882.25 366.997 C 877.327 367.884 875.258 368.12 870.775 370.212 z"/>
<path transform="translate(0,0)" fill="rgb(166,2,18)" d="M 870.775 370.212 C 875.258 368.12 877.327 367.884 882.25 366.997 C 885.304 373.899 889.021 381.751 891.108 388.891 C 885.96 391.687 879.873 395.259 874.188 396.524 L 873.875 395.861 C 875.807 391.539 883.572 393.087 887.495 387.25 C 887.524 381.216 876.075 371.614 870.775 370.212 z"/>
<path transform="translate(0,0)" fill="rgb(149,7,28)" d="M 139.209 611.809 C 147.373 608.404 161.062 601.107 169.479 597.014 C 171.664 606.396 173.108 612.849 173.644 622.518 C 170.1 624.424 165.784 626.276 163.604 629.53 L 164.134 631.035 C 168.178 632.685 173.513 631.438 178.109 630.927 C 181.695 640.121 182.613 646.33 184.236 656.035 C 173.837 659.101 163.174 660.841 152.468 662.452 C 132.727 665.421 112.786 670.399 93.0578 672.978 C 89.7101 661.124 86.5188 649.226 83.4848 637.287 C 93.2712 630.3 133.726 617.099 139.209 611.809 z"/>
<path transform="translate(0,0)" fill="rgb(220,114,143)" d="M 142.892 628.824 C 145.62 630.802 145.848 637.873 146.254 641.27 C 140.332 642.129 129.566 642.293 123.249 642.563 C 122.118 642.625 121.707 642.402 120.547 642.119 C 122.49 637.625 136.178 633.137 142.114 629.33 L 142.892 628.824 z"/>
<path transform="translate(0,0)" fill="rgb(149,7,28)" d="M 693.599 158.774 C 684.793 141.971 682.903 124.467 702.547 113.893 C 720.179 104.402 751.86 118.964 741.764 142.081 C 739.663 146.892 738.422 149.502 733.437 151.651 C 731.487 152.404 729.993 151.706 728.033 151.19 C 725.431 152.869 724.442 153.262 723.325 156.248 C 724.054 158.357 724.707 159.908 725.617 161.946 C 725.183 162.51 724.471 163.51 723.997 163.97 C 729.234 181.352 724.373 199.675 705.493 206.399 C 692.657 210.971 673.636 198.449 670.145 185.966 C 667.275 176.25 673.011 166.342 679.6 159.588 C 683.041 161.763 686.817 164.042 690.103 166.399 C 690.222 164.265 692.437 161.078 693.599 158.774 z"/>
<path transform="translate(0,0)" fill="rgb(222,181,214)" d="M 723.997 163.97 C 719.876 156.367 708.883 137.557 714.264 129.641 C 717.53 128.105 716.082 128.365 719.791 128.786 C 725.426 133.509 719.029 134.746 719.907 141.052 C 722.093 145.449 729.203 149.351 733.437 151.651 C 731.487 152.404 729.993 151.706 728.033 151.19 C 725.431 152.869 724.442 153.262 723.325 156.248 C 724.054 158.357 724.707 159.908 725.617 161.946 C 725.183 162.51 724.471 163.51 723.997 163.97 z"/>
<path transform="translate(0,0)" fill="rgb(226,159,192)" d="M 693.599 158.774 C 697.032 165.105 698.932 168.968 701.607 175.641 C 698.991 179.593 694.899 186.158 690.447 187.765 C 685.609 182.321 695.449 172.119 690.103 166.399 C 690.222 164.265 692.437 161.078 693.599 158.774 z"/>
<path transform="translate(0,0)" fill="rgb(149,7,28)" d="M 279.024 146.992 C 295.169 146.702 287.393 162.138 282.264 169.483 C 295.413 194.184 303.704 205.882 320.404 227.941 C 312.727 233.199 307.888 236.373 299.688 240.659 C 296.853 237.55 294.17 233.893 291.592 230.536 C 281.911 215.201 269.268 198.491 260.522 183.322 C 245.587 188.504 243.63 189.434 234.529 176.104 C 242.19 169.829 270.756 150.825 279.024 146.992 z"/>
<path transform="translate(0,0)" fill="rgb(149,7,28)" d="M 815.052 696.037 C 823.143 699.44 851.677 721.771 860.326 727.473 C 867.533 732.226 883.357 742.348 889.3 747.69 C 890.483 753.824 881.126 766.31 875.698 768.354 C 871.569 767.663 871.611 766.754 867.863 763.776 C 845.206 745.324 842.774 743.846 818.108 730.84 C 811.868 734.929 805.027 740.353 798.084 735.444 C 792.598 724.557 808.177 704.262 815.052 696.037 z"/>
<path transform="translate(0,0)" fill="rgb(149,7,28)" d="M 834.072 667.659 C 839.36 669.951 852.263 677.586 860.513 682.209 C 875.451 691.158 897.794 697.26 910.065 709.294 C 913.027 712.199 906.387 730.194 898.57 732.233 C 890.226 727.073 875.754 720.276 866.504 714.699 C 855.896 708.304 829.999 691.438 819.305 687.696 C 823.851 679.73 827.72 674.18 834.072 667.659 z"/>
<path transform="translate(0,0)" fill="rgb(166,2,18)" d="M 260.141 765.454 C 266.107 769.841 265.215 785.079 268.213 788.161 C 275.141 792.165 284.543 790.577 292.671 790.06 C 285.007 796.294 279.575 800.572 273.978 808.74 L 282.492 832.854 C 275.057 828.576 267.381 823.185 261.346 817.074 C 254.809 822.094 245.301 827.549 238.063 832.318 C 241.277 823.248 242.768 813.746 244.225 804.282 C 240.011 801.308 232.572 796.656 230.506 792.257 L 231.676 790.836 C 237.128 789.664 244.239 790.946 249.928 791.599 C 253.007 782.307 256.352 774.429 260.141 765.454 z"/>
<path transform="translate(0,0)" fill="rgb(166,2,18)" d="M 776.882 766.579 C 781.151 771.849 783.571 785.224 786.963 789.278 C 793.21 793.375 800.413 791.436 808.009 790.601 C 790.423 809.008 793.117 809.574 797.863 833.474 C 793.766 829.774 780.545 818.951 775.358 819.031 C 771.932 822.795 762.223 830.118 757.338 834.645 C 763.336 806.309 767.129 807.915 742.463 790.857 C 751.182 791.124 759.896 791.543 768.601 792.113 C 770.335 785.67 773.805 772.147 776.882 766.579 z"/>
<path transform="translate(0,0)" fill="rgb(176,182,227)" d="M 169.269 592.3 C 169.738 594.217 170.226 595.213 169.479 597.014 C 161.062 601.107 147.373 608.404 139.209 611.809 L 137.357 610.778 C 141.912 606.11 156.255 604.353 157.6 598.494 C 153.828 596.428 140.295 600.966 135.127 597.566 C 146.113 595.411 157.544 594.618 169.269 592.3 z"/>
</svg>