<svg version="1.1" xmlns="http://www.w3.org/2000/svg" style="display: block;" viewBox="0 0 1024 1104" width="256" height="276" preserveAspectRatio="none">
<defs>
	<linearGradient id="Gradient1" gradientUnits="userSpaceOnUse" x1="652.254" y1="977.77" x2="636.441" y2="1097.95">
		<stop class="stop0" offset="0" stop-opacity="1" stop-color="rgb(42,67,79)"/>
		<stop class="stop1" offset="1" stop-opacity="1" stop-color="rgb(121,133,136)"/>
	</linearGradient>
	<linearGradient id="Gradient2" gradientUnits="userSpaceOnUse" x1="306.503" y1="776.555" x2="339.702" y2="788.893">
		<stop class="stop0" offset="0" stop-opacity="1" stop-color="rgb(234,192,133)"/>
		<stop class="stop1" offset="1" stop-opacity="1" stop-color="rgb(228,215,173)"/>
	</linearGradient>
	<linearGradient id="Gradient3" gradientUnits="userSpaceOnUse" x1="666.544" y1="827.599" x2="631.458" y2="819.858">
		<stop class="stop0" offset="0" stop-opacity="1" stop-color="rgb(244,164,62)"/>
		<stop class="stop1" offset="1" stop-opacity="1" stop-color="rgb(240,196,143)"/>
	</linearGradient>
	<linearGradient id="Gradient4" gradientUnits="userSpaceOnUse" x1="898.321" y1="644.671" x2="879.29" y2="609.312">
		<stop class="stop0" offset="0" stop-opacity="1" stop-color="rgb(231,190,131)"/>
		<stop class="stop1" offset="1" stop-opacity="1" stop-color="rgb(240,225,193)"/>
	</linearGradient>
	<linearGradient id="Gradient5" gradientUnits="userSpaceOnUse" x1="83.0943" y1="480.997" x2="151.314" y2="575.306">
		<stop class="stop0" offset="0" stop-opacity="1" stop-color="rgb(236,164,82)"/>
		<stop class="stop1" offset="1" stop-opacity="1" stop-color="rgb(235,204,137)"/>
	</linearGradient>
	<linearGradient id="Gradient6" gradientUnits="userSpaceOnUse" x1="521.836" y1="798.842" x2="502.506" y2="970.813">
		<stop class="stop0" offset="0" stop-opacity="1" stop-color="rgb(246,166,69)"/>
		<stop class="stop1" offset="1" stop-opacity="1" stop-color="rgb(235,211,172)"/>
	</linearGradient>
	<linearGradient id="Gradient7" gradientUnits="userSpaceOnUse" x1="648.833" y1="618.263" x2="636.737" y2="564.581">
		<stop class="stop0" offset="0" stop-opacity="1" stop-color="rgb(173,185,190)"/>
		<stop class="stop1" offset="1" stop-opacity="1" stop-color="rgb(216,223,224)"/>
	</linearGradient>
	<linearGradient id="Gradient8" gradientUnits="userSpaceOnUse" x1="402.82" y1="525.613" x2="394.015" y2="578.336">
		<stop class="stop0" offset="0" stop-opacity="1" stop-color="rgb(252,237,247)"/>
		<stop class="stop1" offset="1" stop-opacity="1" stop-color="rgb(254,255,255)"/>
	</linearGradient>
	<linearGradient id="Gradient9" gradientUnits="userSpaceOnUse" x1="377.889" y1="233.874" x2="378.037" y2="246.738">
		<stop class="stop0" offset="0" stop-opacity="1" stop-color="rgb(0,0,0)"/>
		<stop class="stop1" offset="1" stop-opacity="1" stop-color="rgb(28,35,38)"/>
	</linearGradient>
</defs>
<path transform="translate(0,0)" fill="rgb(52,75,84)" d="M 451.22 987.59 C 452.252 984.448 452.596 983.026 454.398 980.22 L 454.213 980.123 C 457.258 978.25 466.437 979.02 470.355 979.148 L 470.357 979.15 L 470.458 980.433 L 469.048 981.634 C 470.844 985.6 471.846 984.737 471.815 989.26 C 471.764 996.756 471.331 1004.99 472.174 1012.38 L 472.235 1028.96 C 486.035 1028.14 492.445 1033.38 504.132 1022.73 C 504.424 1025.64 504.152 1028.3 505.688 1030.26 L 505.913 1030.15 C 507.473 1031.46 509.48 1033.27 511.113 1034.38 C 515.252 1034.46 516.61 1035.23 520.142 1037.07 C 544.653 1049.82 526.358 1084.63 506.696 1092.27 L 498.833 1097.48 C 492.616 1103.94 444.159 1101.75 438.513 1097.07 L 438.65 1095.45 C 441.497 1092.98 445.727 1092.9 449.557 1092.42 C 453.123 1059.12 448.095 1019.12 451.22 987.59 z M 474.599 1091.03 C 478.745 1091.73 489.225 1094 493.065 1093.55 C 494.71 1093.36 498.096 1090.19 501.705 1089.45 C 516.817 1077.94 516.169 1050.16 501.211 1040.24 C 487.507 1038.02 483.239 1039.43 471.915 1038.33 C 472.333 1054.55 472.611 1070.79 472.462 1087.02 C 472.453 1087.97 473.985 1090.23 474.599 1091.03 z"/>
<path transform="translate(0,0)" fill="rgb(38,58,65)" d="M 504.132 1022.73 C 504.424 1025.64 504.152 1028.3 505.688 1030.26 L 505.913 1030.15 C 507.473 1031.46 509.48 1033.27 511.113 1034.38 C 515.252 1034.46 516.61 1035.23 520.142 1037.07 C 544.653 1049.82 526.358 1084.63 506.696 1092.27 C 504.985 1091.67 503.286 1090.44 501.705 1089.45 C 516.817 1077.94 516.169 1050.16 501.211 1040.24 C 487.507 1038.02 483.239 1039.43 471.915 1038.33 L 472.235 1028.96 C 486.035 1028.14 492.445 1033.38 504.132 1022.73 z"/>
<path transform="translate(0,0)" fill="rgb(26,54,68)" d="M 504.132 1022.73 C 504.424 1025.64 504.152 1028.3 505.688 1030.26 L 505.913 1030.15 C 507.473 1031.46 509.48 1033.27 511.113 1034.38 C 499.303 1032.94 506.761 1026.1 491.331 1035.96 C 496.016 1037.11 498.772 1035.81 501.211 1040.24 C 487.507 1038.02 483.239 1039.43 471.915 1038.33 L 472.235 1028.96 C 486.035 1028.14 492.445 1033.38 504.132 1022.73 z"/>
<path transform="translate(0,0)" fill="rgb(38,58,65)" d="M 474.599 1091.03 C 478.745 1091.73 489.225 1094 493.065 1093.55 C 494.71 1093.36 498.096 1090.19 501.705 1089.45 C 503.286 1090.44 504.985 1091.67 506.696 1092.27 L 498.833 1097.48 C 495.806 1093.05 491.788 1098.21 482.633 1096.32 C 484.7 1096.33 486.284 1095.98 488.292 1095.63 C 481.294 1095.17 478.909 1095.75 474.599 1091.03 z"/>
<path transform="translate(0,0)" fill="rgb(52,75,84)" d="M 184.668 978.847 C 191.592 977.642 212.796 973.996 216.221 978.616 C 230.318 997.637 243.388 1054.83 258.527 1071.04 L 260.416 1072.67 L 260.881 1072.75 C 263.037 1073.05 263.768 1073 265.93 1072.84 L 267.642 1074.92 L 256.898 1099.1 C 254.824 1100 251.68 1101.81 249.422 1101.66 C 245.975 1101.43 221.145 1024.1 212.118 1015.27 C 210.398 1013.59 209.733 1013.33 207.398 1013.36 C 206.069 1014.69 204.993 1017.26 204.937 1019.11 C 204.354 1038.26 203.311 1056.52 201.2 1075.59 C 195.822 1066.37 196.047 1064.07 192.74 1054.27 C 194.958 1029.21 195.845 1014.38 195.978 988.99 C 191.901 985.004 189.137 982.47 184.668 978.847 z"/>
<path transform="translate(0,0)" fill="rgb(40,67,80)" d="M 298.641 977.179 C 307.714 976.413 313.968 976.111 322.89 977.889 L 321.081 983.955 C 317.351 991.282 325.711 1074.48 328.675 1086.84 C 331.01 1096.58 341.214 1093.29 344.294 1096.02 C 341.734 1102.15 324.93 1100.38 318.82 1100.6 C 315.139 1100.73 301.029 1101.23 298.24 1100.09 L 297.884 1098.42 C 300.344 1095.07 308.647 1089.56 308.992 1087.15 C 310.378 1077.47 307.309 1068.27 308.835 1058.29 C 304.096 1050.27 300.713 1029.85 301.346 1020.1 C 300.479 1016.39 301.129 1016.03 298.624 1014.47 C 295.655 1015.97 292.561 1022.62 290.264 1026.19 C 287.588 1022.11 288.884 1018.54 289.559 1013.33 L 289.04 1014.54 C 289.141 1010.23 291.474 1006.99 291.818 998.791 C 296.275 990.658 297.261 986.027 298.641 977.179 z"/>
<path transform="translate(0,0)" fill="rgb(52,75,84)" d="M 301.346 1020.1 L 303.368 1020.67 C 306.159 1026.67 306.293 1027.93 306.46 1034.46 L 305.846 1033 C 307.449 1039.56 310.197 1045.69 309.51 1051.96 C 309.303 1053.92 309.379 1055.9 309.736 1057.84 L 308.835 1058.29 C 304.096 1050.27 300.713 1029.85 301.346 1020.1 z"/>
<path transform="translate(0,0)" fill="rgb(38,58,65)" d="M 802.237 1099.65 C 796.962 1099.84 776.384 1101.9 773.292 1099.03 C 774.227 1094.05 778.92 1093.01 782.505 1088.9 C 783.946 1087.23 784.828 1085.14 785.027 1082.94 C 785.576 1077.35 784.425 1049.64 784.102 1042.65 C 783.371 1026.86 785.151 1002.36 783.783 987.868 C 781.198 985.088 777.391 984.745 773.319 983.639 L 772.314 981.879 C 772.707 981.048 773.612 978.762 774.167 978.444 C 779.807 975.211 797.671 976.39 803.668 977.469 C 810.341 978.036 816.782 978.617 823.458 977.513 C 825.288 978.449 826.946 979.293 828.824 980.128 L 829.276 981.967 C 826.994 983.947 818.316 983.869 814.76 984.102 C 809.487 984.013 806.267 983.312 801.156 982.345 C 799.276 987.857 799.588 1013.1 802.402 1018.89 C 804.646 1023.5 809.599 1020.46 810.639 1028.57 C 816.011 1034.48 833.822 1029.88 839.6 1036.03 L 839.093 1037.53 C 833.237 1039.98 807.017 1040.24 800.214 1039.96 C 800.323 1047.1 800.32 1090.46 802.55 1093.54 C 806.262 1094.07 813.448 1094.03 815.474 1095.72 L 815.891 1097.3 C 812.405 1100.07 805.079 1097.87 802.237 1099.65 z"/>
<path transform="translate(0,0)" fill="rgb(38,58,65)" d="M 450.045 977.037 C 459.743 976.901 468.624 977.733 479.006 977.652 C 496.369 977.517 523.905 972.098 525.998 997.939 C 527.06 1011.04 516.991 1023.17 505.913 1030.15 L 505.688 1030.26 C 504.152 1028.3 504.424 1025.64 504.132 1022.73 C 505.492 1020.52 507.562 1016.21 508.838 1013.75 C 507.575 1005.1 506.71 999.462 504.421 991.086 C 498.654 988.904 481.461 984.481 475.934 987.552 C 471.698 991.625 472.764 1005.21 472.174 1012.38 C 471.331 1004.99 471.764 996.756 471.815 989.26 C 471.846 984.737 470.844 985.6 469.048 981.634 L 470.458 980.433 L 470.357 979.15 L 470.355 979.148 C 466.437 979.02 457.258 978.25 454.213 980.123 L 454.398 980.22 C 452.596 983.026 452.252 984.448 451.22 987.59 L 448.977 984.971 C 449.857 981.952 450.629 980.18 450.045 977.037 z"/>
<path transform="translate(0,0)" fill="rgb(26,54,68)" d="M 201.2 1075.59 C 203.388 1090.6 211.653 1091.1 212.305 1098.95 C 210.853 1100.75 208 1101.76 206.361 1100.64 C 197.314 1094.44 179.895 1105.78 172.915 1100.01 C 173.601 1096.1 179.98 1091.27 182.521 1085.85 C 187.239 1075.77 189.757 1064.98 192.74 1054.27 C 196.047 1064.07 195.822 1066.37 201.2 1075.59 z"/>
<path transform="translate(0,0)" fill="rgb(0,0,0)" d="M 829.671 1091.85 C 831.696 1090 837.894 1084.34 839.188 1082.45 C 846.67 1071.52 845.968 1067.71 856.437 1059.11 C 840.093 1109.35 860.377 1098.99 802.237 1099.65 C 805.079 1097.87 812.405 1100.07 815.891 1097.3 L 815.474 1095.72 C 813.448 1094.03 806.262 1094.07 802.55 1093.54 C 811.422 1092.9 821.136 1093.01 829.671 1091.85 z"/>
<path transform="translate(0,0)" fill="rgb(26,54,68)" d="M 266.497 1058.19 C 271.142 1050.57 271.948 1045.79 275.385 1038.08 C 281.263 1024.91 286.541 1012.22 291.818 998.791 C 291.474 1006.99 289.141 1010.23 289.04 1014.54 L 289.559 1013.33 C 288.884 1018.54 287.588 1022.11 290.264 1026.19 C 288.065 1030.3 284.809 1035.51 282.592 1039.79 C 279.229 1046.27 271.448 1071.08 267.642 1074.92 L 265.93 1072.84 C 263.768 1073 263.037 1073.05 260.881 1072.75 L 260.416 1072.67 C 264.293 1068.55 261.849 1065.66 262.839 1059.76 C 264.509 1058.41 264.392 1058.4 266.497 1058.19 z"/>
<path transform="translate(0,0)" fill="rgb(26,54,68)" d="M 823.458 977.513 C 832.311 976.436 840.759 975.679 849.302 973.003 C 847.26 985.807 848.942 999.805 848.539 1013.23 C 838.34 1002.69 838.723 994.748 830.237 985.257 C 825.403 985.119 819.367 985.192 814.76 984.102 C 818.316 983.869 826.994 983.947 829.276 981.967 L 828.824 980.128 C 826.946 979.293 825.288 978.449 823.458 977.513 z"/>
<path transform="translate(0,0)" fill="rgb(26,54,68)" d="M 448.977 984.971 C 445.017 986.389 439.753 985.959 436.644 983.008 L 437.444 981.048 C 440.695 978.109 445.616 977.802 450.045 977.037 C 450.629 980.18 449.857 981.952 448.977 984.971 z"/>
<path transform="translate(0,0)" fill="rgb(0,0,0)" fill-opacity="0.584314" d="M 258.527 1071.04 C 263.279 1066.71 259.644 1058.22 258.11 1052.87 L 258.79 1051.76 C 263.413 1053.36 263.055 1054.45 266.497 1058.19 C 264.392 1058.4 264.509 1058.41 262.839 1059.76 C 261.849 1065.66 264.293 1068.55 260.416 1072.67 L 258.527 1071.04 z"/>
<path transform="translate(0,0)" fill="rgb(0,0,0)" d="M 322.89 977.889 C 327.28 978.87 328.261 978.322 330.997 980.992 C 329.101 984.583 324.712 984.066 321.081 983.955 L 322.89 977.889 z"/>
<path transform="translate(0,0)" fill="rgb(0,0,0)" fill-opacity="0.0862745" d="M 830.133 1017.34 C 836.202 1019.67 837.821 1018.99 839.133 1025.14 C 830.687 1023.85 831.286 1025.14 830.133 1017.34 z"/>
<path transform="translate(0,0)" fill="rgb(0,0,0)" fill-opacity="0.105882" d="M 581.434 1042.44 C 585.472 1044.82 585.293 1046.31 585.172 1050.51 L 582.784 1049.72 C 580.941 1046.57 581.55 1046.58 581.434 1042.44 z"/>
<path transform="translate(0,0)" fill="rgb(0,0,0)" fill-opacity="0.0862745" d="M 288.525 1057.45 L 290.231 1057.47 L 289.514 1060.66 L 287.95 1060.53 L 288.525 1057.45 z"/>
<path transform="translate(0,0)" fill="rgb(40,67,80)" d="M 500.325 0 L 526.486 0 L 526.26 4.46823 C 527.665 7.12243 528.611 7.91323 531.557 8.97237 C 634.538 45.9931 742.566 76.0307 845.662 112.143 C 848.851 116.375 848.156 357.427 847.305 385.606 C 846.901 398.926 845.783 412.215 843.956 425.416 C 839.09 460.212 821.864 508.755 804.586 539.381 C 788.737 567.473 765.64 599.267 746.525 625.47 C 737.255 638.177 719.968 653.307 709.216 665.732 C 688.082 692.169 664.371 712.352 639.812 734.802 C 608.026 763.858 576.072 788.16 541.759 813.997 C 516.646 832.907 516.933 833.061 491.159 815.524 C 449.71 787.32 411.439 755.633 375.887 720.34 C 348.435 694.889 317.961 667.315 294.482 638.007 C 275.332 614.103 253.274 584.407 236.205 559.013 C 214.229 525.698 202.169 492.699 191.819 454.761 C 180.223 412.259 181.997 380.588 181.889 337.081 L 181.713 229.602 C 181.542 201.614 181.808 173.626 182.509 145.646 C 182.79 136.257 182.809 124.875 184.42 115.683 C 184.916 112.855 191.276 110.333 194.075 109.239 C 217.13 100.225 240.757 93.8052 264.264 86.4233 C 278.86 81.6547 293.342 75.4219 307.951 70.8131 C 358.691 54.8064 409.817 40.0977 459.668 21.381 C 471.851 16.8069 485.44 14.7648 496.877 8.29721 C 499.863 6.60845 499.784 3.02711 500.325 0 z"/>
<path transform="translate(0,0)" fill="rgb(254,253,254)" d="M 511.439 33.2611 C 526.721 31.1092 578.625 52.1268 596.994 57.9074 L 717.774 97.1773 C 738.817 104.001 759.985 110.43 781.035 117.231 C 793.668 121.312 808.916 130.256 821.006 133.758 C 819.879 193.062 821.698 254.079 820.942 313.513 C 820.441 352.832 823.916 394.059 816.584 432.634 C 807.829 478.703 786.74 522.806 761.002 561.752 C 751.532 576.081 741.782 587.133 731.211 600.389 C 669.845 676.548 597.859 743.497 517.456 799.187 L 514.571 799.832 C 487.097 789.754 369.622 681.203 342.795 653.381 C 304.653 611.113 266.13 560.563 238.979 510.697 C 203.686 445.877 207.848 376.571 207.756 305.802 C 207.305 248.507 207.704 191.209 208.955 133.926 C 221.016 129.393 234.045 123.1 246.069 119.079 C 267.48 111.919 289.144 105.149 310.614 98.0594 L 425.873 59.7573 C 445.63 53.3518 493.577 35.9983 511.439 33.2611 z"/>
<path transform="translate(0,0)" fill="rgb(26,54,68)" d="M 503.961 64.5459 L 504.264 64.8376 C 506.447 72.3642 504.828 138.396 504.813 150.978 L 504.662 404.798 C 437.219 406.008 369.369 404.422 301.889 405.049 C 281.194 405.242 260.005 405.296 239.336 404.672 C 238.636 400.729 238.736 384.165 238.736 379.457 L 238.733 331.627 C 238.301 273.05 236.371 205.899 238.207 148.18 L 413.389 90.9766 C 435.107 83.9291 483.416 66.5309 503.961 64.5459 z"/>
<path transform="translate(0,0)" fill="rgb(254,253,254)" d="M 299.621 263.013 C 293.341 260.525 276.292 254.762 275.178 249.57 C 269.465 222.953 312.696 212.42 331.125 203.866 C 344.073 197.856 360.395 190.274 374.466 188.547 C 416.813 199.056 457.259 222.025 498.669 235.864 C 484.384 243.447 462.438 253.88 449.353 261.894 C 449.083 259.765 448.024 252.565 448.086 250.826 C 444.057 252.563 444.232 251.774 439.149 250.988 L 437.733 248.73 C 438.463 260.395 438.032 276.01 437.987 287.99 C 419.551 285.626 393.63 281.474 375.653 281.64 C 356.437 281.818 329.654 286.161 309.998 288.823 C 310.011 278.561 307.742 260.645 310.333 250.47 C 310.783 248.703 313.677 248.283 315.619 247.698 C 313.783 244.727 313.437 244.243 312.71 240.741 C 298.562 245.85 299.675 248.565 299.621 263.013 z"/>
<path transform="translate(0,0)" fill="rgb(254,253,254)" d="M 315.619 247.698 C 330.192 243.769 347.973 240.997 362.966 240.446 C 376.996 239.93 429.118 241.392 437.733 248.73 C 438.463 260.395 438.032 276.01 437.987 287.99 C 419.551 285.626 393.63 281.474 375.653 281.64 C 356.437 281.818 329.654 286.161 309.998 288.823 C 310.011 278.561 307.742 260.645 310.333 250.47 C 310.783 248.703 313.677 248.283 315.619 247.698 z"/>
<path transform="translate(0,0)" fill="url(#Gradient9)" d="M 312.71 240.741 C 350.911 231.863 404.911 227.172 442.502 242.783 C 445.748 244.131 447.12 247.677 448.086 250.826 C 444.057 252.563 444.232 251.774 439.149 250.988 L 437.733 248.73 C 429.118 241.392 376.996 239.93 362.966 240.446 C 347.973 240.997 330.192 243.769 315.619 247.698 C 313.783 244.727 313.437 244.243 312.71 240.741 z"/>
<path transform="translate(0,0)" fill="rgb(213,219,222)" d="M 270.174 288.443 L 271.9 289.585 C 274.956 293.929 276.297 311.968 275.929 317.762 C 275.797 319.84 275.54 319.479 273.758 320.846 C 272.98 320.631 269.685 319.738 269.191 319.397 C 261.436 314.051 266.663 294.393 270.174 288.443 z"/>
<path transform="translate(0,0)" fill="rgb(213,219,222)" d="M 261.167 233.162 C 264.14 232.646 264.644 232.564 267.622 232.972 C 271.204 237.235 267.713 245.149 262.618 246.015 C 258.392 244.493 250.417 242.455 251.431 236.976 C 254.069 234.298 257.445 233.986 261.167 233.162 z"/>
<path transform="translate(0,0)" fill="rgb(225,31,37)" d="M 532.177 63.5252 C 539.056 64.8736 547.058 66.9475 553.69 69.2406 C 609.446 88.5184 666.722 103.466 722.092 123.851 C 736.714 129.234 751.599 133.945 766.466 138.595 C 775.839 141.526 787.468 146.177 796.926 147.661 C 798.99 230.661 796.729 321.157 796.763 404.814 C 710.356 406.377 618.657 405.201 531.941 404.97 C 529.891 320.86 532.266 235.912 531.392 151.732 C 531.089 122.476 531.167 92.7458 532.177 63.5252 z"/>
<path transform="translate(0,0)" fill="rgb(254,253,254)" d="M 554.021 193.385 C 576.865 181.542 588.943 180.728 614.157 187.467 C 628.896 191.407 644.942 196.449 659.724 199.735 C 660.369 207.886 660.165 219.131 660.254 227.514 C 660.698 221.025 660.693 206.712 663.671 201.916 C 667.299 206.003 667.104 223.309 667.617 229.51 C 667.817 251.322 667.861 273.136 667.748 294.949 C 667.707 303.756 668.079 318.704 667.316 327.144 C 664.656 328.487 662.654 328.259 660.159 327.098 C 620.641 305.807 597.701 306.035 555.343 311.265 L 554.021 193.385 z"/>
<path transform="translate(0,0)" fill="rgb(186,38,26)" d="M 660.254 227.514 C 660.698 221.025 660.693 206.712 663.671 201.916 C 667.299 206.003 667.104 223.309 667.617 229.51 C 667.817 251.322 667.861 273.136 667.748 294.949 C 667.707 303.756 668.079 318.704 667.316 327.144 C 664.656 328.487 662.654 328.259 660.159 327.098 C 659.966 293.903 659.998 260.708 660.254 227.514 z"/>
<path transform="translate(0,0)" fill="rgb(254,253,254)" d="M 712.935 186.969 C 732.862 181.28 747.908 178.808 767.02 189.416 C 769.249 190.659 771.464 191.924 773.666 193.214 C 774.422 232.401 772.203 271.671 772.197 310.847 C 742.738 306.444 721.366 304.019 692.785 316.057 C 687.624 318.231 671.51 326.269 667.316 327.144 C 668.079 318.704 667.707 303.756 667.748 294.949 C 667.861 273.136 667.817 251.322 667.617 229.51 L 668.04 199.874 L 677.033 197.911 C 688.781 193.807 700.759 189.45 712.935 186.969 z"/>
<path transform="translate(0,0)" fill="rgb(197,125,122)" d="M 719.096 194.968 C 728.583 194.802 754.207 193.531 761.714 196.36 C 763.428 198.551 762.979 197.541 762.946 200.747 L 760.03 203.915 C 740.413 202.243 712.94 202.825 692.088 201.856 L 692.258 201.228 C 694.431 199.244 715.016 195.758 719.096 194.968 z"/>
<path transform="translate(0,0)" fill="rgb(245,232,238)" d="M 677.033 197.911 C 688.781 193.807 700.759 189.45 712.935 186.969 L 713.018 187.549 C 708.954 190.868 694.765 192.234 691.74 197.409 C 702.133 198.133 707.913 193.662 719.096 194.968 C 715.016 195.758 694.431 199.244 692.258 201.228 L 692.088 201.856 C 686.782 202.128 681.523 200.75 677.033 197.911 z"/>
<path transform="translate(0,0)" fill="rgb(178,99,99)" d="M 760.03 203.915 L 762.946 200.747 C 763.688 211.417 764.137 219.269 762.942 229.934 C 761.867 223.282 760.917 207.697 760.03 203.915 z"/>
<path transform="translate(0,0)" fill="rgb(225,31,37)" d="M 240.039 429.889 L 399.878 430.706 C 433.375 430.965 469.904 431.889 503.131 430.588 C 505.339 486.414 503.579 544.13 504.126 600.114 C 504.644 653.006 505.271 706.788 503.716 759.607 C 492.178 756.049 471.339 733.959 461.565 725.935 C 435.402 704.456 410.216 682.094 386.634 657.796 C 376.527 646.99 362.948 636.734 353.861 625.232 C 318.841 580.904 282.421 537.401 258.84 485.58 C 248.719 463.338 242.642 454.513 240.039 429.889 z"/>
<path transform="translate(0,0)" fill="url(#Gradient8)" d="M 472.503 533.619 L 474.983 538.467 C 462.55 547.504 440.113 557.522 426.258 565.76 C 421.841 568.386 402.927 578.881 399.137 580.282 L 388.286 579.879 C 380.542 576.362 321.023 546.972 317.451 543.172 L 320.477 539.165 L 322.554 541.286 C 327.929 540.529 345.519 540.78 350.839 541.29 C 351.684 543.436 351.253 543.399 352.809 544.301 C 365.625 543.901 379.549 544.884 392.533 544.672 C 408.306 544.415 423.958 543.597 439.707 542.822 C 443.654 542.716 444.269 542.271 447.763 540.404 C 449.101 540.638 450.45 540.802 451.806 540.894 C 461.18 541.569 465.586 539.654 472.503 533.619 z"/>
<path transform="translate(0,0)" fill="rgb(178,99,99)" d="M 317.451 543.172 L 320.477 539.165 L 322.554 541.286 C 327.929 540.529 345.519 540.78 350.839 541.29 C 351.684 543.436 351.253 543.399 352.809 544.301 C 348.324 545.788 323.618 543.632 317.451 543.172 z"/>
<path transform="translate(0,0)" fill="rgb(225,31,37)" d="M 447.934 492.191 L 457.467 489.209 C 468.577 493.746 473.236 496.868 480.501 507.103 C 486.821 519.48 484.585 528.884 474.983 538.467 L 472.503 533.619 C 465.586 539.654 461.18 541.569 451.806 540.894 C 450.45 540.802 449.101 540.638 447.763 540.404 C 444.269 542.271 443.654 542.716 439.707 542.822 C 438.337 541.013 436.998 539.181 435.689 537.326 C 422.328 518.301 430.68 504.272 447.934 492.191 z"/>
<path transform="translate(0,0)" fill="rgb(254,253,254)" d="M 447.934 492.191 C 446.161 495.573 444.079 498.841 443.941 502.623 C 429.388 516.68 433.286 528.347 447.763 540.404 C 444.269 542.271 443.654 542.716 439.707 542.822 C 438.337 541.013 436.998 539.181 435.689 537.326 C 422.328 518.301 430.68 504.272 447.934 492.191 z"/>
<path transform="translate(0,0)" fill="rgb(245,232,238)" d="M 447.934 492.191 L 457.467 489.209 C 468.577 493.746 473.236 496.868 480.501 507.103 L 475.297 509.991 C 466.961 496.938 456.664 495.284 443.941 502.623 C 444.079 498.841 446.161 495.573 447.934 492.191 z"/>
<path transform="translate(0,0)" fill="rgb(245,232,238)" d="M 480.501 507.103 C 486.821 519.48 484.585 528.884 474.983 538.467 L 472.503 533.619 C 472.851 533.02 473.192 532.416 473.526 531.809 C 477.93 523.779 477.799 518.667 475.297 509.991 L 480.501 507.103 z"/>
<path transform="translate(0,0)" fill="rgb(245,232,238)" d="M 322.6 528.583 C 324.908 507.014 331.881 494.748 339.946 474.847 C 345.584 492.453 353.577 510.235 348.631 528.068 C 349.215 532.5 349.951 536.909 350.839 541.29 C 345.519 540.78 327.929 540.529 322.554 541.286 L 320.477 539.165 C 321.385 536.342 322.062 531.658 322.6 528.583 z"/>
<path transform="translate(0,0)" fill="rgb(255,171,177)" d="M 342.942 522.631 C 344.106 526.33 343.345 525.801 345.989 527.908 L 348.631 528.068 C 349.215 532.5 349.951 536.909 350.839 541.29 C 345.519 540.78 327.929 540.529 322.554 541.286 L 320.477 539.165 C 321.385 536.342 322.062 531.658 322.6 528.583 C 323.658 529.908 326.176 533.265 327.359 534.159 C 333.777 533.754 339.404 527.484 342.942 522.631 z"/>
<path transform="translate(0,0)" fill="rgb(255,193,206)" d="M 322.6 528.583 C 323.658 529.908 326.176 533.265 327.359 534.159 L 327.037 534.71 C 325.762 536.937 325.577 537.311 325.147 539.813 L 322.554 541.286 L 320.477 539.165 C 321.385 536.342 322.062 531.658 322.6 528.583 z"/>
<path transform="translate(0,0)" fill="rgb(186,38,26)" d="M 327.359 534.159 C 329.748 529.356 335.798 514.891 341.474 514.992 C 343.554 518.591 342.893 517.958 342.942 522.631 C 339.404 527.484 333.777 533.754 327.359 534.159 z"/>
<path transform="translate(0,0)" fill="rgb(245,232,238)" d="M 388.286 579.879 L 399.137 580.282 L 399.684 584.074 C 409.9 589.27 419.98 594.063 428.928 601.339 C 409.789 601.091 384.202 602.052 366.029 601.32 L 366.105 595.409 C 373.089 591.003 380.208 587.417 387.523 583.624 L 388.286 579.879 z"/>
<path transform="translate(0,0)" fill="rgb(178,99,99)" d="M 388.286 579.879 L 399.137 580.282 L 399.684 584.074 C 394.419 582.767 392.991 583.042 387.523 583.624 L 388.286 579.879 z"/>
<path transform="translate(0,0)" fill="rgb(255,193,206)" d="M 366.029 601.32 C 362.77 601.399 361.482 602.076 359.486 600.42 C 360.689 597.917 363.508 596.851 366.105 595.409 L 366.029 601.32 z"/>
<path transform="translate(0,0)" fill="rgb(26,54,68)" d="M 677.863 430.5 C 715.409 430.133 754.437 429.508 791.874 430.305 C 785.196 459.513 774.435 487.634 759.909 513.838 C 748.928 533.707 734.63 549.767 721.742 568.072 C 683.379 622.56 643.427 664.021 592.333 706.951 C 571.907 723.781 550.412 744.839 529.089 759.98 C 530.208 750.468 529.532 734.263 529.475 724.262 C 529.341 704.13 529.332 683.997 529.448 663.865 L 529.992 431.047 C 576.593 432.542 630.803 430.835 677.863 430.5 z"/>
<path transform="translate(0,0)" fill="rgb(213,219,222)" d="M 637.913 484.895 C 635.645 478.096 631.517 469.049 640.366 465.401 C 654.009 465.807 648.607 478.585 645.205 485.875 C 648.568 490.579 652.397 489.473 656.493 486.019 C 657.565 479.717 658.699 473.426 659.895 467.146 C 674.476 470.566 680.468 473.344 693.906 479.653 L 699.007 482.215 C 715.937 487.904 731.436 490.918 748.513 495.573 C 733.902 503.964 715.973 507.053 699.773 511.484 C 692.514 513.469 679.749 511.187 676.355 515.207 C 676.295 518.512 676.59 521.724 676.479 525 C 676.38 527.93 665.332 536.458 666.445 538.468 C 673.1 550.488 663.288 561.972 661.597 574.034 C 661.204 576.836 660.58 579.776 660.122 582.61 C 658.896 592.82 655.545 613.229 651.937 623.102 C 647.906 631.328 645.093 640.654 642.212 649.392 C 638.009 637.41 633.28 619.656 629.292 606.839 C 628.022 598.597 619.705 575.544 622.238 568.163 C 620.178 558.08 618.232 559.177 617.249 545.792 L 621.503 536.998 C 607.955 530.649 605.906 527.113 608.206 512.633 C 588.153 514.363 568.902 506.92 549.373 503.748 C 546.571 503.293 543.975 502.88 541.336 501.778 L 541.177 499.261 C 541.97 496.425 541.451 492.104 541.245 489.034 C 547.32 488.918 553.396 488.921 559.471 489.042 C 567.754 487.336 574.443 486.07 582.433 483.288 L 587.881 480.548 C 599.291 473.995 611.744 469.269 624.965 468.416 C 626.537 478.377 625.913 482.627 632.494 489.727 C 635.966 489.646 635.366 490.198 637.641 488.489 L 637.913 484.895 z"/>
<path transform="translate(0,0)" fill="url(#Gradient7)" d="M 622.238 568.163 C 626.483 567.64 626.933 567.039 630.301 569.317 L 631.326 569.091 C 632.412 568.377 634.544 567.81 635.884 567.377 C 639.592 568.926 640.704 568.794 644.749 568.881 C 649.085 568.633 651.591 567.754 655.021 569.598 C 656.331 572.786 656.125 575.787 656.18 579.238 C 658.339 582.025 657.372 581.493 660.122 582.61 C 658.896 592.82 655.545 613.229 651.937 623.102 C 647.906 631.328 645.093 640.654 642.212 649.392 C 638.009 637.41 633.28 619.656 629.292 606.839 C 628.022 598.597 619.705 575.544 622.238 568.163 z"/>
<path transform="translate(0,0)" fill="rgb(153,167,174)" d="M 629.292 606.839 C 636.251 608.26 645.215 611.822 648.641 618.582 C 649.438 620.154 650.718 621.857 651.937 623.102 C 647.906 631.328 645.093 640.654 642.212 649.392 C 638.009 637.41 633.28 619.656 629.292 606.839 z"/>
<path transform="translate(0,0)" fill="rgb(52,75,84)" d="M 644.749 568.881 C 649.085 568.633 651.591 567.754 655.021 569.598 C 656.331 572.786 656.125 575.787 656.18 579.238 C 652.904 582.088 651.015 580.686 647.165 579.168 L 644.749 568.881 z"/>
<path transform="translate(0,0)" fill="rgb(128,134,146)" d="M 635.884 567.377 C 639.592 568.926 640.704 568.794 644.749 568.881 L 647.165 579.168 C 643.504 578.519 640.154 577.571 636.615 578.579 C 638.292 574.592 637.479 571.178 635.884 567.377 z"/>
<path transform="translate(0,0)" fill="rgb(40,67,80)" d="M 631.326 569.091 C 632.412 568.377 634.544 567.81 635.884 567.377 C 637.479 571.178 638.292 574.592 636.615 578.579 C 633.785 578.75 634.869 579.005 632.457 577.716 C 631.432 574.524 631.48 572.418 631.326 569.091 z"/>
<path transform="translate(0,0)" fill="rgb(100,117,130)" d="M 630.046 589.185 C 638.146 591.298 647.302 587.796 653.651 593.454 C 654.722 596.841 654.724 595.353 653.036 599.259 C 642.873 604.215 631.944 601.544 630.046 589.185 z"/>
<path transform="translate(0,0)" fill="rgb(254,253,254)" d="M 587.881 480.548 C 599.291 473.995 611.744 469.269 624.965 468.416 C 626.537 478.377 625.913 482.627 632.494 489.727 C 633.031 492.561 633.257 493.487 633.134 496.432 L 630.953 498.969 C 618.825 491 609.592 486.978 595.346 484.231 C 592.196 483.623 590.369 482.503 587.881 480.548 z"/>
<path transform="translate(0,0)" fill="rgb(254,253,254)" d="M 659.895 467.146 C 674.476 470.566 680.468 473.344 693.906 479.653 C 690.044 483.99 688.406 483.736 682.313 484.092 C 681.491 484.141 680.669 484.184 679.847 484.221 C 672.964 485.892 662.793 490.871 657.969 488.565 L 656.493 486.019 C 657.565 479.717 658.699 473.426 659.895 467.146 z"/>
<path transform="translate(0,0)" fill="rgb(153,167,174)" d="M 582.433 483.288 L 587.881 480.548 C 590.369 482.503 592.196 483.623 595.346 484.231 C 609.592 486.978 618.825 491 630.953 498.969 L 629.063 500.251 C 626.029 500.4 621.853 498.062 619.081 496.654 C 607.265 490.655 594.929 487.512 582.433 483.288 z"/>
<path transform="translate(0,0)" fill="rgb(153,167,174)" d="M 541.245 489.034 C 547.32 488.918 553.396 488.921 559.471 489.042 C 551.642 492.633 551.432 496.041 541.177 499.261 C 541.97 496.425 541.451 492.104 541.245 489.034 z"/>
<path transform="translate(0,0)" fill="rgb(200,204,208)" d="M 693.906 479.653 L 699.007 482.215 C 692.237 487.202 687.827 487.065 679.847 484.221 C 680.669 484.184 681.491 484.141 682.313 484.092 C 688.406 483.736 690.044 483.99 693.906 479.653 z"/>
<path transform="translate(0,0)" fill="rgb(153,167,174)" d="M 624.809 513.795 C 631.163 512.79 634.222 512.365 640.38 510.189 C 642.383 510.775 649.336 512.675 650.763 513.487 C 656.915 514.013 665.41 513.701 666.258 521.706 C 664.499 527.931 660.051 529.417 654.339 531.43 C 650.773 532.822 640.287 531.74 636.102 531.346 C 635.256 531.294 634.411 531.237 633.565 531.174 C 626.892 530.682 618.234 528.208 619.569 519.588 C 621.247 516.615 621.677 515.365 624.809 513.795 z"/>
<path transform="translate(0,0)" fill="rgb(38,58,65)" d="M 650.763 513.487 C 656.915 514.013 665.41 513.701 666.258 521.706 C 664.499 527.931 660.051 529.417 654.339 531.43 C 651.849 531.328 650.096 531.519 647.965 530.297 C 645.281 525.318 646.488 517.016 650.763 513.487 z"/>
<path transform="translate(0,0)" fill="rgb(52,75,84)" d="M 624.809 513.795 C 628.404 513.932 631.731 513.59 634.437 515.808 C 637.253 519.608 637.604 527.199 636.102 531.346 C 635.256 531.294 634.411 531.237 633.565 531.174 C 626.892 530.682 618.234 528.208 619.569 519.588 C 621.247 516.615 621.677 515.365 624.809 513.795 z"/>
<path transform="translate(0,0)" fill="rgb(153,167,174)" d="M 632.991 541.191 C 640.847 540.394 648.175 541.557 655.983 542.491 C 660.591 548.195 658.934 550.708 657.612 557.591 C 651.103 559.328 640.246 559.917 633.888 556.858 C 627.943 554.685 624.673 553.047 625.747 546.081 C 628.907 542.124 627.937 543.286 632.991 541.191 z"/>
<path transform="translate(0,0)" fill="rgb(38,58,65)" d="M 657.612 557.591 C 653.315 556.891 651.34 558.175 646.704 556.565 C 644.507 552.365 646.613 547.617 649.034 543.937 C 650.061 542.377 654.08 542.624 655.983 542.491 C 660.591 548.195 658.934 550.708 657.612 557.591 z"/>
<path transform="translate(0,0)" fill="rgb(52,75,84)" d="M 632.991 541.191 C 637.362 544.02 637.195 552.166 634.932 556.085 L 633.888 556.858 C 627.943 554.685 624.673 553.047 625.747 546.081 C 628.907 542.124 627.937 543.286 632.991 541.191 z"/>
<path transform="translate(0,0)" fill="rgb(26,54,68)" d="M 184.51 156.442 C 186.558 159.402 185.994 165.3 185.998 168.984 C 186.06 236.405 185.996 303.833 186.023 371.254 C 186.024 375.259 186.312 379.485 185.26 383.347 C 183.694 367.715 184.153 343.08 183.711 326.903 C 182.167 270.293 184.636 212.885 184.51 156.442 z"/>
<path transform="translate(0,0)" fill="url(#Gradient6)" d="M 352.025 805.997 C 358.019 767.092 376.935 776.35 392.077 802.7 C 400.226 816.881 406.171 827.885 411.796 843.385 C 406.683 850.425 404.92 853.239 401.684 861.627 C 405.598 866.075 421.955 877.205 427.212 878.896 C 429.673 872.18 430.153 868.454 435.489 864.084 C 433.446 855.828 430.322 835.613 440.252 831.752 C 462.001 834.408 478.445 859.715 485.552 878.501 C 488.479 886.24 491.241 912.092 496.916 913.662 C 508.24 916.796 531.603 913.951 542.462 911.657 C 542.66 909.134 535.531 889.234 534.168 885.246 C 542.639 870.893 562.496 852.348 572.694 837.825 C 578.465 829.606 593.271 826.852 593.923 840.828 C 594.016 842.835 595.035 846.465 595.588 848.72 C 596.441 851.426 597.668 855.098 597.804 857.894 C 598.25 867.025 593.284 874.838 602.193 880.822 C 605.625 877.342 609.398 875.499 613.627 873.116 C 617.847 870.874 620.69 869.314 625.25 867.683 C 628.766 868.16 630.741 865.959 633.817 863.911 C 631.542 867.498 630.499 867.687 630.876 871.005 C 632.428 871.743 633.356 872.317 635.083 872.52 C 641.456 868.475 652.473 862.026 657.108 856.414 L 661.686 856.747 C 660.133 860.515 660.081 859.193 660.923 862.367 C 663.92 865.367 668.91 866.495 673.051 867.828 C 688.911 861.905 706.008 863.795 721.622 869.432 C 719.165 878.556 718.059 881.488 709.205 887.132 C 706.408 888.915 696.605 892.426 693.306 892.764 L 692.353 893.032 C 685.328 895.066 675.878 900.638 670.81 901.798 C 652.015 906.098 618.948 904.203 600.575 900.533 C 584.477 905.151 573.762 910.743 560.215 920.834 C 555.553 924.307 549.147 927.038 545.416 931.546 L 545.211 933.568 C 550.349 938.342 597.056 942.067 605.902 957.228 C 606.056 970.583 573.453 963.768 566.31 961.302 C 550.245 955.754 536.366 948.922 519.788 944.237 C 503.295 950.106 443.853 971.13 429.33 964.073 C 427.262 963.068 425.456 961.536 424.822 959.241 C 424.28 957.28 424.488 954.611 425.539 952.845 C 429.426 946.318 439.426 942.768 446.461 941.442 C 460.963 938.707 472.167 937.79 484.655 929.433 C 473.316 922.891 445.53 906.507 433.01 903.554 C 429.12 902.586 425.306 901.255 421.498 899.991 C 417.655 901.071 415.457 902.433 412.341 903.511 C 386.208 911.325 351.811 901.832 328.105 889.867 C 321.075 886.319 305.24 878.666 310.011 869.771 C 319.339 863.134 343.119 865.081 354.41 865.572 C 356.539 865.32 359.087 864.943 361.184 864.801 C 366.734 862.748 367.692 862.912 367.904 856.958 C 369.795 856.77 369.941 856.611 371.738 857.354 C 371 852.434 372.046 848.466 369.638 845.236 C 367.764 839.862 362.46 832.029 360.164 826.093 C 357.882 820.193 358.806 808.772 354.727 805.202 L 352.025 805.997 z"/>
<path transform="translate(0,0)" fill="rgb(232,222,181)" d="M 657.108 856.414 L 661.686 856.747 C 660.133 860.515 660.081 859.193 660.923 862.367 C 663.92 865.367 668.91 866.495 673.051 867.828 L 674.039 868.54 C 668.952 872.334 652.111 874.867 644.965 876.219 C 641.54 876.288 637.98 876.756 635.034 875.193 L 635.083 872.52 C 641.456 868.475 652.473 862.026 657.108 856.414 z"/>
<path transform="translate(0,0)" fill="rgb(235,190,128)" d="M 600.575 900.533 C 601.609 899.683 603.568 898.366 604.974 898.672 C 620.196 902.176 635.698 901.218 651.11 901.912 C 660.625 902.341 664.906 900.938 674.112 899.025 C 675.761 897.184 676.583 896.661 676.924 894.34 C 672.804 892.091 618.289 897.556 607.41 894.349 C 611.468 892.17 647.983 894.081 656.643 892.974 C 665.392 891.855 685.369 889.555 693.306 892.764 L 692.353 893.032 C 685.328 895.066 675.878 900.638 670.81 901.798 C 652.015 906.098 618.948 904.203 600.575 900.533 z"/>
<path transform="translate(0,0)" fill="rgb(234,208,159)" d="M 602.193 880.822 L 601.549 882.512 C 597.232 885.807 586.769 894.501 581.916 895.061 L 580.697 894.032 C 581.027 891.334 582.559 888.584 583.896 886.225 C 590.72 874.183 593.417 862.273 595.588 848.72 C 596.441 851.426 597.668 855.098 597.804 857.894 C 598.25 867.025 593.284 874.838 602.193 880.822 z"/>
<path transform="translate(0,0)" fill="rgb(232,222,181)" d="M 367.904 856.958 C 369.795 856.77 369.941 856.611 371.738 857.354 C 382.416 864.016 388.944 867.627 397.048 877.064 C 386.319 875.961 374.08 872.586 364.917 871.889 C 362.277 869.143 362.186 868.41 361.184 864.801 C 366.734 862.748 367.692 862.912 367.904 856.958 z"/>
<path transform="translate(0,0)" fill="rgb(234,208,159)" d="M 435.489 864.084 C 438.053 869.153 447.919 888.364 446.829 892.801 C 441.904 895.93 427.558 885.6 427.212 878.896 C 429.673 872.18 430.153 868.454 435.489 864.084 z"/>
<path transform="translate(0,0)" fill="rgb(235,190,128)" d="M 625.25 867.683 C 628.766 868.16 630.741 865.959 633.817 863.911 C 631.542 867.498 630.499 867.687 630.876 871.005 C 632.428 871.743 633.356 872.317 635.083 872.52 L 635.034 875.193 C 637.98 876.756 641.54 876.288 644.965 876.219 C 641.975 876.89 622.973 878.688 619.05 878.207 C 616.029 877.835 615.302 875.611 613.627 873.116 C 617.847 870.874 620.69 869.314 625.25 867.683 z"/>
<path transform="translate(0,0)" fill="rgb(235,190,128)" d="M 354.41 865.572 C 356.539 865.32 359.087 864.943 361.184 864.801 C 362.186 868.41 362.277 869.143 364.917 871.889 C 359.934 872.085 350.587 871.5 347.517 867.366 L 348.206 866.366 L 354.41 865.572 z"/>
<path transform="translate(0,0)" fill="rgb(235,190,128)" d="M 421.498 899.991 L 423.45 897.229 C 419.703 892.346 410.692 897.055 407.354 894.76 C 413.705 890.646 425.954 894.582 430.989 899.03 L 433.01 903.554 C 429.12 902.586 425.306 901.255 421.498 899.991 z"/>
<path transform="translate(0,0)" fill="rgb(235,190,128)" d="M 940.683 473.33 C 926.29 453.295 912.264 436.244 910.388 410.739 C 909.825 403.093 906.561 387.077 914.065 382.342 C 921.898 380.575 932.251 390.07 935.948 396.199 L 936.355 397.452 C 942.17 404.958 947.518 406.559 951.526 413.221 C 955.436 411.552 956.779 410.949 960.256 408.559 C 961.859 412.466 963.22 416.531 966.039 419.647 C 963.815 421.578 961.47 423.109 961.047 425.991 L 961.588 428.1 C 964.298 431.926 963.566 432.235 967.201 433.419 C 977.611 430.1 980.649 425.521 987.447 437.066 C 994.614 432.569 1003.27 426.31 1012.14 428.171 L 1013.96 429.932 C 1014.02 433.25 1008.91 442.745 1007.56 444.172 C 1005.87 452.742 999.525 462.959 994.44 470.192 C 980.933 489.405 952.838 494.542 939.376 512.362 C 933.372 514.263 932.813 517.446 930.27 522.485 L 927.773 526.128 L 923.338 537.501 C 921.711 540.025 921.441 540.251 918.742 541.57 C 915.954 541.582 915.657 541.446 913.396 539.804 L 912.384 540.645 C 899.869 519.638 895.321 525.122 891.385 494.328 C 890.935 484.391 889.782 466.328 893.692 458.045 C 894.753 455.337 894.022 456.234 896.439 454.648 C 904.805 453.729 907.339 460.346 912.87 461.893 C 920.666 467.147 928.623 482.215 933.283 485.088 C 934.916 481.139 938.175 476.898 940.683 473.33 z"/>
<path transform="translate(0,0)" fill="rgb(236,175,94)" d="M 893.692 458.045 C 894.753 455.337 894.022 456.234 896.439 454.648 C 904.805 453.729 907.339 460.346 912.87 461.893 C 920.666 467.147 928.623 482.215 933.283 485.088 L 933.081 489.778 C 929.774 488.008 928.914 483.671 925.362 482.402 L 924.313 483.541 C 925.271 489.344 928.285 494.733 929.72 502.466 L 928.762 503.786 C 929.306 509.515 930.204 516.907 930.27 522.485 L 927.773 526.128 L 923.338 537.501 C 921.711 540.025 921.441 540.251 918.742 541.57 C 915.954 541.582 915.657 541.446 913.396 539.804 L 912.384 540.645 C 899.869 519.638 895.321 525.122 891.385 494.328 C 890.935 484.391 889.782 466.328 893.692 458.045 z"/>
<path transform="translate(0,0)" fill="rgb(235,190,128)" d="M 891.385 494.328 C 895.829 491.635 896.563 492.01 901.084 494.514 C 903.714 502.684 912.853 525.948 919.935 529.928 C 922.88 529.8 925.284 527.792 927.773 526.128 L 923.338 537.501 C 921.711 540.025 921.441 540.251 918.742 541.57 C 915.954 541.582 915.657 541.446 913.396 539.804 L 912.384 540.645 C 899.869 519.638 895.321 525.122 891.385 494.328 z"/>
<path transform="translate(0,0)" fill="rgb(234,208,159)" d="M 928.762 503.786 C 927.488 500.027 926.465 495.422 925.067 491.348 C 922.503 483.872 913.305 468.739 912.87 461.893 C 920.666 467.147 928.623 482.215 933.283 485.088 L 933.081 489.778 C 929.774 488.008 928.914 483.671 925.362 482.402 L 924.313 483.541 C 925.271 489.344 928.285 494.733 929.72 502.466 L 928.762 503.786 z"/>
<path transform="translate(0,0)" fill="rgb(229,172,112)" d="M 893.692 458.045 C 895.949 462.681 895.183 461.134 893.991 465.951 C 891.722 475.123 898.637 486.042 901.084 494.514 C 896.563 492.01 895.829 491.635 891.385 494.328 C 890.935 484.391 889.782 466.328 893.692 458.045 z"/>
<path transform="translate(0,0)" fill="rgb(236,175,94)" d="M 987.447 437.066 C 994.614 432.569 1003.27 426.31 1012.14 428.171 L 1013.96 429.932 C 1014.02 433.25 1008.91 442.745 1007.56 444.172 C 1001.64 445.825 970.448 489.264 949.59 482.199 C 946.521 478.48 948.695 474.949 950.416 470.834 L 948.762 468.499 C 949.512 463.966 950.299 459.439 951.123 454.918 C 951.754 451.283 952.432 447.657 953.159 444.04 C 957.105 439.462 957.126 434.299 961.588 428.1 C 964.298 431.926 963.566 432.235 967.201 433.419 C 977.611 430.1 980.649 425.521 987.447 437.066 z"/>
<path transform="translate(0,0)" fill="rgb(241,235,205)" d="M 961.588 428.1 C 964.298 431.926 963.566 432.235 967.201 433.419 C 977.611 430.1 980.649 425.521 987.447 437.066 C 975.334 447.15 960.055 458.836 950.416 470.834 L 948.762 468.499 C 949.512 463.966 950.299 459.439 951.123 454.918 C 951.754 451.283 952.432 447.657 953.159 444.04 C 957.105 439.462 957.126 434.299 961.588 428.1 z"/>
<path transform="translate(0,0)" fill="rgb(236,175,94)" d="M 951.123 454.918 C 941.662 454.933 920.877 424.628 920.853 417.625 C 925.58 421.715 933.454 439.867 939.001 442.812 C 942.154 434.814 931.374 428.977 932.42 420.202 C 932.999 415.337 936.318 416.824 936.982 412.689 C 938.088 405.799 934.973 401.278 932.161 395.717 C 933.988 395.318 934.24 395.538 935.948 396.199 L 936.355 397.452 C 942.17 404.958 947.518 406.559 951.526 413.221 C 955.436 411.552 956.779 410.949 960.256 408.559 C 961.859 412.466 963.22 416.531 966.039 419.647 C 963.815 421.578 961.47 423.109 961.047 425.991 L 961.588 428.1 C 957.126 434.299 957.105 439.462 953.159 444.04 C 952.432 447.657 951.754 451.283 951.123 454.918 z"/>
<path transform="translate(0,0)" fill="rgb(234,208,159)" d="M 960.256 408.559 C 961.859 412.466 963.22 416.531 966.039 419.647 C 963.815 421.578 961.47 423.109 961.047 425.991 L 961.588 428.1 C 957.126 434.299 957.105 439.462 953.159 444.04 C 950.719 437.047 948.822 429.012 946.104 421.22 C 947.834 417.642 949.36 416.583 952.328 413.96 L 951.526 413.221 C 955.436 411.552 956.779 410.949 960.256 408.559 z"/>
<path transform="translate(0,0)" fill="rgb(232,222,181)" d="M 936.355 397.452 C 942.17 404.958 947.518 406.559 951.526 413.221 L 952.328 413.96 C 949.36 416.583 947.834 417.642 946.104 421.22 C 943.53 415.996 936.974 402.712 936.355 397.452 z"/>
<path transform="translate(0,0)" fill="rgb(236,175,94)" d="M 146.543 532.614 C 150.903 527.207 159.96 527.71 166.344 527.923 C 169.564 540.814 173.187 562.226 171.445 576.127 C 169.955 588.025 154.409 609.019 157.354 620.172 C 158.052 622.818 167.878 633.903 170.418 636.572 C 173.133 619.724 175.558 606.065 189.984 595.613 C 191.541 594.488 193.108 593.379 194.686 592.284 C 198.051 597.208 199.787 598.301 204.457 601.811 C 206.729 610.035 209.224 619.024 209.529 627.608 C 202.637 631.379 194.858 669.671 188.766 680.848 C 182.861 674.094 173.938 657.608 165.113 656.51 C 162.991 655.789 158.981 652.523 155.243 651.469 C 146.718 649.065 137.408 647.888 129.002 645.421 C 100.943 637.188 80.8999 610.668 67.5853 586.001 C 75.1499 584.711 76.1449 584.498 82.9077 580.534 C 95.7842 584.98 101.273 588.41 112.291 596.261 C 115.783 598.957 116.007 599.905 119.847 600.022 C 125.283 596.592 125.26 590.714 123.264 585.062 C 129.584 584.57 128.945 585.481 131.622 591.347 C 133.824 583.372 129.301 575.144 126.002 566.915 L 127.667 566.46 C 129.317 561.768 131.56 557.416 133.739 552.949 C 137.534 542.781 138.365 539.758 146.543 532.614 z"/>
<path transform="translate(0,0)" fill="rgb(232,222,181)" d="M 123.264 585.062 C 129.584 584.57 128.945 585.481 131.622 591.347 L 133.674 595.181 C 142.187 608.34 144.457 610.408 148.85 625.741 C 137.223 615.744 127.148 608.766 114.394 600.253 C 112.941 599.283 112.484 597.86 112.291 596.261 C 115.783 598.957 116.007 599.905 119.847 600.022 C 125.283 596.592 125.26 590.714 123.264 585.062 z"/>
<path transform="translate(0,0)" fill="rgb(234,208,159)" d="M 133.739 552.949 C 135.795 554.789 136.953 555.707 138.642 557.951 C 136.119 569.936 133.604 582.906 133.674 595.181 L 131.622 591.347 C 133.824 583.372 129.301 575.144 126.002 566.915 L 127.667 566.46 C 129.317 561.768 131.56 557.416 133.739 552.949 z"/>
<path transform="translate(0,0)" fill="rgb(235,190,128)" d="M 133.739 552.949 C 137.534 542.781 138.365 539.758 146.543 532.614 C 145.493 551.604 142.068 546.972 138.642 557.951 C 136.953 555.707 135.795 554.789 133.739 552.949 z"/>
<path transform="translate(0,0)" fill="rgb(236,175,94)" d="M 226.501 674.018 C 245.194 656.164 247.401 656.191 257.341 678.357 C 269.547 705.578 260.39 730.81 266.161 757.605 C 269.819 760.832 278.469 770.334 281.033 771.46 L 282.953 771.116 C 284.677 768.525 284.352 765.633 284.455 762.382 L 286.178 771.756 L 287.125 772.081 L 287.478 764.618 C 289.435 770.68 290.449 779.644 294.498 784.199 C 296.095 787.815 294.73 790.994 293.969 795.461 C 293.279 792.622 292.761 792.3 290.574 790.3 C 286.645 789.832 288.095 789.671 284.378 791.886 C 271.439 785.716 261.052 787.054 247.322 787.816 C 228.542 788.858 170.487 759.827 168.192 741.972 C 172.647 728.691 203.406 738.875 215.261 739.937 C 217.363 741.112 219.01 741.925 221.2 742.925 C 224.365 743.231 226.72 740.891 229.337 738.937 L 229.303 738.111 L 231.734 735.934 C 232.41 732.2 232.514 733.739 231.254 730.085 C 228.771 729.999 229.907 730.34 227.765 728.915 L 228.984 725.222 L 227.973 723.389 C 223.169 721.979 208.265 702.397 209.899 696.611 L 212.142 697.026 C 218.781 694.368 220.022 681.583 226.501 674.018 z"/>
<path transform="translate(0,0)" fill="rgb(232,222,181)" d="M 226.501 674.018 C 228.206 675.392 229.747 676.147 229.692 678.687 C 229.324 695.616 227.913 713.298 231.254 730.085 C 228.771 729.999 229.907 730.34 227.765 728.915 L 228.984 725.222 L 227.973 723.389 C 223.169 721.979 208.265 702.397 209.899 696.611 L 212.142 697.026 C 218.781 694.368 220.022 681.583 226.501 674.018 z"/>
<path transform="translate(0,0)" fill="rgb(234,208,159)" d="M 229.337 738.937 C 235.349 740.497 253.003 755.945 255.601 761.708 L 255.09 762.385 C 247.213 759.46 214.692 748.642 212.138 743.105 L 212.851 741.024 L 215.261 739.937 C 217.363 741.112 219.01 741.925 221.2 742.925 C 224.365 743.231 226.72 740.891 229.337 738.937 z"/>
<path transform="translate(0,0)" fill="url(#Gradient5)" d="M 123.5 456.222 C 126.813 454.296 128.825 452.762 132.648 452.615 C 136.508 453.663 138.007 456.787 140.049 460.189 C 140.307 468.145 139.07 489.558 137.523 497.34 C 139.054 522.318 124.311 525.574 115.66 542.025 C 117.406 549.385 121.996 561.504 127.667 566.46 L 126.002 566.915 C 129.301 575.144 133.824 583.372 131.622 591.347 C 128.945 585.481 129.584 584.57 123.264 585.062 C 122.325 584.649 116.078 577.889 114.783 576.587 C 106.535 575.03 92.4631 572.978 85.5901 568.447 C 74.0676 560.851 35.0184 525.228 40.5627 509.833 C 43.1639 507.44 42.5724 508.151 46.7206 507.673 C 55.2721 507.554 64.8686 505.921 71.1191 512.375 C 75.8786 513.81 77.2289 514.183 82.1459 514.511 C 86.1307 513.755 86.7352 512.11 88.682 509.142 C 86.6981 507.133 83.3341 504.312 81.1356 502.344 C 83.0541 502.429 86.2676 503.185 88.2695 503.58 C 88.6405 498.055 89.4068 490.018 91.3344 484.869 L 92.8731 485.163 C 93.5814 487.952 92.9523 487.063 95.0205 488.798 C 98.0326 488.2 100.248 485.183 102.512 482.787 C 107.438 472.449 113.087 461.717 123.5 456.222 z"/>
<path transform="translate(0,0)" fill="rgb(241,235,205)" d="M 88.682 509.142 C 91.5464 510.635 97.2162 518.117 99.2081 521.02 C 102.562 527.881 104.241 538.15 105.773 545.843 C 92.2486 536.116 87.3061 530.724 71.508 521.699 C 67.7015 519.487 65.8224 518.446 61.7488 516.844 C 64.8379 513.976 67.0215 512.822 71.1191 512.375 C 75.8786 513.81 77.2289 514.183 82.1459 514.511 C 86.1307 513.755 86.7352 512.11 88.682 509.142 z"/>
<path transform="translate(0,0)" fill="rgb(234,208,159)" d="M 61.7488 516.844 C 64.8379 513.976 67.0215 512.822 71.1191 512.375 C 75.8786 513.81 77.2289 514.183 82.1459 514.511 C 79.5771 515.182 72.6306 516.252 71.465 517.287 L 71.508 521.699 C 67.7015 519.487 65.8224 518.446 61.7488 516.844 z"/>
<path transform="translate(0,0)" fill="rgb(234,208,159)" d="M 92.8731 485.163 C 93.5814 487.952 92.9523 487.063 95.0205 488.798 C 98.0326 488.2 100.248 485.183 102.512 482.787 C 107.496 489.947 100.919 506.828 101.276 515.919 C 101.31 516.798 99.7141 520.047 99.2081 521.02 C 97.2162 518.117 91.5464 510.635 88.682 509.142 C 86.6981 507.133 83.3341 504.312 81.1356 502.344 C 83.0541 502.429 86.2676 503.185 88.2695 503.58 C 88.6405 498.055 89.4068 490.018 91.3344 484.869 L 92.8731 485.163 z"/>
<path transform="translate(0,0)" fill="rgb(229,172,112)" d="M 123.5 456.222 C 126.813 454.296 128.825 452.762 132.648 452.615 C 136.508 453.663 138.007 456.787 140.049 460.189 C 140.307 468.145 139.07 489.558 137.523 497.34 C 136.974 496.55 136.432 495.755 135.896 494.957 C 135.554 494.443 134.122 492.083 134.159 491.889 C 136.169 481.147 134.653 468.908 136.654 458.74 L 133.654 457.508 C 131.547 458.1 130.527 458.709 128.792 460.037 C 126.02 459.283 125.309 458.306 123.5 456.222 z"/>
<path transform="translate(0,0)" fill="rgb(234,208,159)" d="M 46.7206 507.673 C 55.2721 507.554 64.8686 505.921 71.1191 512.375 C 67.0215 512.822 64.8379 513.976 61.7488 516.844 C 53.7501 513.561 53.2426 513.152 46.7206 507.673 z"/>
<path transform="translate(0,0)" fill="rgb(52,75,84)" d="M 683.178 977.556 C 697.18 976.022 710.023 977.045 724.008 977.409 C 738.487 977.785 750.161 975.073 764.071 981.038 C 769.335 1000.05 767.588 1016.72 751.466 1030.21 C 745.138 1036.24 737.604 1040.15 728.718 1040.59 C 721.61 1041.35 713.862 1041.06 706.764 1040.19 C 708.576 1053.52 706.226 1081.24 710.224 1089.15 C 714.249 1091.95 718.808 1092.85 720.738 1095.92 L 720.483 1098.14 C 713.976 1101.37 677.592 1101.83 672.898 1096.6 C 676.643 1092.27 681.482 1096.1 685.217 1089.27 C 682.063 1054.71 686.736 1017.94 684.467 985.74 L 683.391 983.952 C 683.453 982.154 683.253 979.433 683.178 977.556 z M 719.864 1032.22 C 726.566 1030.99 729.506 1030.81 736.311 1030.64 C 741.679 1028.85 741.882 1028.71 746.198 1024.98 C 747.441 1022.44 749.268 1019.14 749.118 1016.32 C 747.018 976.985 730.822 988.526 708.376 983.941 C 707.679 999.511 708.972 1012.7 708.987 1027.85 L 719.864 1032.22 z"/>
<path transform="translate(0,0)" fill="rgb(128,134,146)" d="M 684.467 985.74 C 686.421 983.661 685.421 984.117 688.185 983.982 C 693.86 989.464 693.565 1079.85 689.615 1089.86 L 687.957 1090.98 C 686.591 1090.48 685.974 1090.47 685.217 1089.27 C 682.063 1054.71 686.736 1017.94 684.467 985.74 z"/>
<path transform="translate(0,0)" fill="rgb(40,67,80)" d="M 746.198 1024.98 C 747.976 1027.04 749.2 1028.64 751.466 1030.21 C 745.138 1036.24 737.604 1040.15 728.718 1040.59 C 727.691 1040.12 727.116 1039.68 726.182 1039.07 C 730.63 1038.4 735.434 1037.25 739.486 1035.29 C 737.642 1033.99 736.297 1037.07 731.399 1034.5 C 732.801 1033.17 734.741 1031.81 736.311 1030.64 C 741.679 1028.85 741.882 1028.71 746.198 1024.98 z"/>
<path transform="translate(0,0)" fill="rgb(236,175,94)" d="M 87.5071 401.017 C 92.428 393.461 105.613 384.327 114.066 380.371 C 125.355 398.804 119.191 402.246 116.523 422.322 C 113.619 446.468 101.066 448.732 90.6212 464.24 C 91.4951 469.929 93.1689 479.605 92.8731 485.163 L 91.3344 484.869 C 89.4068 490.018 88.6405 498.055 88.2695 503.58 C 86.2676 503.185 83.0541 502.429 81.1356 502.344 C 61.2789 498.965 32.6053 470.706 23.9997 453.21 C 20.5618 442.357 20.0268 437.806 19.4759 426.456 C 28.0967 429.246 42.2244 434.012 49.207 439.635 C 55.861 440.131 69.8745 440.221 66.9636 429.985 L 67.2604 428.484 C 70.3219 425.215 70.7793 424.733 72.4115 420.59 C 70.6344 418.367 68.0763 409.751 67.0735 406.704 C 67.3676 399.857 66.8929 399.987 72.8662 397.323 C 75.0371 402.533 75.1477 404.451 75.7829 409.96 C 78.62 407.847 85.1902 403.222 87.5071 401.017 z"/>
<path transform="translate(0,0)" fill="rgb(236,175,94)" d="M 87.5071 401.017 C 92.428 393.461 105.613 384.327 114.066 380.371 C 125.355 398.804 119.191 402.246 116.523 422.322 C 95.2687 427.351 95.9809 454.642 77.7765 447.312 C 75.8559 441.656 76.0416 439.719 78.0099 434.161 C 75.2659 429.701 74.0586 425.493 72.4115 420.59 C 70.6344 418.367 68.0763 409.751 67.0735 406.704 C 67.3676 399.857 66.8929 399.987 72.8662 397.323 C 75.0371 402.533 75.1477 404.451 75.7829 409.96 C 78.62 407.847 85.1902 403.222 87.5071 401.017 z"/>
<path transform="translate(0,0)" fill="rgb(241,235,205)" d="M 72.8662 397.323 C 75.0371 402.533 75.1477 404.451 75.7829 409.96 C 78.62 407.847 85.1902 403.222 87.5071 401.017 C 88.7395 402.439 90.3482 403.632 89.8739 405.406 C 87.2095 415.372 80.4826 424.149 78.0099 434.161 C 75.2659 429.701 74.0586 425.493 72.4115 420.59 C 70.6344 418.367 68.0763 409.751 67.0735 406.704 C 67.3676 399.857 66.8929 399.987 72.8662 397.323 z"/>
<path transform="translate(0,0)" fill="rgb(235,190,128)" d="M 77.7765 447.312 C 95.9809 454.642 95.2687 427.351 116.523 422.322 C 113.619 446.468 101.066 448.732 90.6212 464.24 C 91.4951 469.929 93.1689 479.605 92.8731 485.163 L 91.3344 484.869 C 89.4068 490.018 88.6405 498.055 88.2695 503.58 C 86.2676 503.185 83.0541 502.429 81.1356 502.344 C 61.2789 498.965 32.6053 470.706 23.9997 453.21 L 26.9914 451.864 C 30.6269 455.337 34.8742 459.242 38.2389 462.857 C 43.8665 468.903 71.3738 487.705 78.7616 484.015 C 81.6503 479.491 80.3987 477.623 78.5724 472.815 C 81.9344 466.25 79.0034 455.067 77.7765 447.312 z"/>
<path transform="translate(0,0)" fill="rgb(232,222,181)" d="M 72.4115 420.59 C 74.0586 425.493 75.2659 429.701 78.0099 434.161 C 76.0416 439.719 75.8559 441.656 77.7765 447.312 C 79.0034 455.067 81.9344 466.25 78.5724 472.815 C 71.792 459.673 56.0298 451.015 48.7143 441.014 L 49.207 439.635 C 55.861 440.131 69.8745 440.221 66.9636 429.985 L 67.2604 428.484 C 70.3219 425.215 70.7793 424.733 72.4115 420.59 z"/>
<path transform="translate(0,0)" fill="rgb(236,175,94)" d="M 966.927 286.507 C 968.759 288.08 970.543 289.708 972.277 291.388 C 983.405 302.353 984.002 312.333 984.048 326.812 C 984.292 333.669 984.918 345.291 982.789 351.529 C 986.954 357.519 995.481 359.169 1001.88 355.608 C 1002.84 353.679 1010.02 348.095 1012.6 347.197 C 1018.01 345.314 1018.88 345.766 1024 347.879 L 1024 352.978 L 1024 368.585 C 1019.12 375.435 1015.88 376.905 1012.31 381.667 C 1000.11 401.107 992.969 413.524 968.858 419.102 C 967.925 419.316 966.985 419.498 966.039 419.647 C 963.22 416.531 961.859 412.466 960.256 408.559 L 959.777 405.654 L 959.896 399.576 C 958.815 395.836 957.412 383.01 956.826 378.515 C 955.675 370.24 952.948 362.591 951.97 354.345 C 949.176 330.776 955.224 306.818 966.927 286.507 z"/>
<path transform="translate(0,0)" fill="rgb(236,175,94)" d="M 966.927 286.507 C 968.759 288.08 970.543 289.708 972.277 291.388 C 983.405 302.353 984.002 312.333 984.048 326.812 C 984.292 333.669 984.918 345.291 982.789 351.529 C 979.688 353.288 971.722 371.925 968.696 377.168 C 969.621 382.27 969.978 383.765 974.492 386.855 C 970.657 391.879 963.697 404.061 959.777 405.654 L 959.896 399.576 C 958.815 395.836 957.412 383.01 956.826 378.515 C 955.675 370.24 952.948 362.591 951.97 354.345 C 949.176 330.776 955.224 306.818 966.927 286.507 z"/>
<path transform="translate(0,0)" fill="rgb(235,190,128)" d="M 984.048 326.812 C 984.292 333.669 984.918 345.291 982.789 351.529 C 979.688 353.288 971.722 371.925 968.696 377.168 C 969.621 382.27 969.978 383.765 974.492 386.855 C 970.657 391.879 963.697 404.061 959.777 405.654 L 959.896 399.576 C 958.815 395.836 957.412 383.01 956.826 378.515 C 956.933 375.056 956.224 371.748 959.611 370.28 C 962.308 371.217 963.401 371.883 966.19 371.317 C 974.278 365.632 972.936 348.72 977.642 338.35 L 979.16 341.034 L 980.44 340.848 C 984.202 333.236 979.222 333.432 984.048 326.812 z"/>
<path transform="translate(0,0)" fill="rgb(234,208,159)" d="M 960.807 385.029 L 968.696 377.168 C 969.621 382.27 969.978 383.765 974.492 386.855 C 970.657 391.879 963.697 404.061 959.777 405.654 L 959.896 399.576 C 960.467 395.53 960.593 389.268 960.807 385.029 z"/>
<path transform="translate(0,0)" fill="rgb(241,235,205)" d="M 968.696 377.168 C 971.722 371.925 979.688 353.288 982.789 351.529 C 986.954 357.519 995.481 359.169 1001.88 355.608 C 1000.8 360.793 979.52 381.4 974.492 386.855 C 969.978 383.765 969.621 382.27 968.696 377.168 z"/>
<path transform="translate(0,0)" fill="rgb(235,190,128)" d="M 1024 352.978 L 1024 368.585 C 1019.12 375.435 1015.88 376.905 1012.31 381.667 C 1009.62 375.752 1020.28 357.947 1024 352.978 z"/>
<path transform="translate(0,0)" fill="rgb(235,190,128)" d="M 188.766 680.848 C 194.858 669.671 202.637 631.379 209.529 627.608 C 215.975 655.587 215.563 659.864 199.007 683.661 C 202.152 686.809 209.013 692.748 209.899 696.611 C 208.265 702.397 223.169 721.979 227.973 723.389 L 228.984 725.222 L 227.765 728.915 C 229.907 730.34 228.771 729.999 231.254 730.085 C 232.514 733.739 232.41 732.2 231.734 735.934 L 229.303 738.111 C 226.754 734.456 215.425 724.597 211.416 722.201 L 210.847 721.867 C 205.658 718.767 193.491 721.48 187.347 720.277 C 177.737 718.174 164.993 714.383 156.922 708.573 C 146.97 701.408 103.497 674.554 113.881 659.906 C 120.991 655.814 137.138 659.408 145.092 660.921 C 152.75 668.362 154.574 667.605 165.36 669.031 L 174.675 665.981 C 171.477 662.936 168.257 659.636 165.113 656.51 C 173.938 657.608 182.861 674.094 188.766 680.848 z"/>
<path transform="translate(0,0)" fill="rgb(232,222,181)" d="M 165.113 656.51 C 173.938 657.608 182.861 674.094 188.766 680.848 C 191.284 683.807 195.288 687.996 196.611 691.458 L 195.534 692.244 C 192.081 691.847 167.753 678.526 161.395 676.014 C 154.161 673.156 147.234 670.671 139.425 668.152 C 141.502 667.81 141.904 667.702 143.87 666.951 C 142.268 663.81 142.876 663.049 145.092 660.921 C 152.75 668.362 154.574 667.605 165.36 669.031 L 174.675 665.981 C 171.477 662.936 168.257 659.636 165.113 656.51 z"/>
<path transform="translate(0,0)" fill="rgb(236,175,94)" d="M 921.338 567.465 C 923.636 570.04 927.745 573.93 928.101 577.101 C 926.468 580.329 926.72 578.862 927.434 582.746 C 930.28 586.934 933.435 587.692 938.247 588.177 C 940.215 586.974 943.252 586.62 945.613 586.159 C 952.461 586.587 955.13 587.45 961.672 589.325 C 960.099 592.863 956.76 600.983 954.007 603.285 C 951.139 607.154 944.286 615.343 942.178 618.574 C 932.748 626.996 914.252 640.259 902.899 645.083 C 887.531 651.613 871.26 644.152 858.836 661.322 C 856.183 664.989 854.217 666.702 853.696 671.594 C 852.821 670.804 852.813 669.994 852.387 668.682 L 849.089 671.237 C 852.047 664.81 848.023 626.688 850.773 617.759 C 857.348 625.673 858.36 633.685 869.191 628.442 C 868.92 626.582 872.158 621.442 873.261 619.44 C 876.402 621.798 875.987 620.751 876.76 623.986 L 880.582 627.687 C 883.352 626.018 886.638 622.898 889.137 620.682 C 887.285 619.071 887.13 617.476 886.44 615.073 L 888.814 608.751 C 891.016 603.611 896.463 594.882 899.486 590.11 C 906.19 580.182 910.228 572.483 921.338 567.465 z"/>
<path transform="translate(0,0)" fill="url(#Gradient4)" d="M 937.635 612.238 C 940.112 614.698 940.921 615.281 942.178 618.574 C 932.748 626.996 914.252 640.259 902.899 645.083 C 887.531 651.613 871.26 644.152 858.836 661.322 C 856.183 664.989 854.217 666.702 853.696 671.594 C 852.821 670.804 852.813 669.994 852.387 668.682 L 849.089 671.237 C 852.047 664.81 848.023 626.688 850.773 617.759 C 857.348 625.673 858.36 633.685 869.191 628.442 C 868.92 626.582 872.158 621.442 873.261 619.44 C 876.402 621.798 875.987 620.751 876.76 623.986 L 880.582 627.687 C 876.719 630.968 875.687 631.747 873.048 636.002 C 876.216 638.09 879.786 639.961 883.654 639.576 C 899.769 637.975 927.077 623.486 937.635 612.238 z"/>
<path transform="translate(0,0)" fill="rgb(234,208,159)" d="M 873.261 619.44 C 876.402 621.798 875.987 620.751 876.76 623.986 L 880.582 627.687 C 876.719 630.968 875.687 631.747 873.048 636.002 C 869.02 637.092 872.52 632.817 869.191 628.442 C 868.92 626.582 872.158 621.442 873.261 619.44 z"/>
<path transform="translate(0,0)" fill="rgb(241,235,205)" d="M 921.338 567.465 C 923.636 570.04 927.745 573.93 928.101 577.101 C 926.468 580.329 926.72 578.862 927.434 582.746 C 930.28 586.934 933.435 587.692 938.247 588.177 C 932.799 592.854 919.23 599.808 912.506 603.85 C 902.747 609.717 897.906 613.342 889.137 620.682 C 887.285 619.071 887.13 617.476 886.44 615.073 L 888.814 608.751 C 891.016 603.611 896.463 594.882 899.486 590.11 C 906.19 580.182 910.228 572.483 921.338 567.465 z"/>
<path transform="translate(0,0)" fill="rgb(229,172,112)" d="M 945.613 586.159 C 952.461 586.587 955.13 587.45 961.672 589.325 C 960.099 592.863 956.76 600.983 954.007 603.285 C 951.139 607.154 944.286 615.343 942.178 618.574 C 940.921 615.281 940.112 614.698 937.635 612.238 L 940.102 608.891 C 943.619 600.19 943.563 600.465 951.835 597.733 C 952.021 597.125 952.216 596.52 952.422 595.918 C 953.583 592.598 952.824 593.61 956.257 591.917 L 955.875 590.473 C 952.569 589.658 950.508 589.443 947.149 589.066 L 945.613 586.159 z"/>
<path transform="translate(0,0)" fill="rgb(235,190,128)" d="M 940.102 608.891 C 945.084 604.976 947.664 603.325 954.007 603.285 C 951.139 607.154 944.286 615.343 942.178 618.574 C 940.921 615.281 940.112 614.698 937.635 612.238 L 940.102 608.891 z"/>
<path transform="translate(0,0)" fill="rgb(235,190,128)" d="M 284.378 791.886 C 288.095 789.671 286.645 789.832 290.574 790.3 C 292.761 792.3 293.279 792.622 293.969 795.461 C 300.161 801.781 306.954 806.292 312.429 811.767 L 315.62 815.673 C 315.282 818.233 315.847 817.218 313.957 818.864 C 316.339 821.686 319.933 822.562 323.582 822.882 C 325.978 823.072 328.378 823.207 330.78 823.285 L 334.297 823.668 L 335.09 821.171 C 347.023 830.354 350.273 814.956 352.025 805.997 L 354.727 805.202 C 358.806 808.772 357.882 820.193 360.164 826.093 C 362.46 832.029 367.764 839.862 369.638 845.236 C 372.046 848.466 371 852.434 371.738 857.354 C 369.941 856.611 369.795 856.77 367.904 856.958 C 363.207 855.946 349.913 848.534 344.923 845.923 C 333.34 848.115 321.499 848.614 309.772 847.404 C 285.121 845.031 260.82 835.389 240.409 821.153 C 236.075 818.13 233.141 815.069 233.751 809.669 C 240.432 801.135 273.385 807.521 284.083 809.04 C 288.875 804.155 287.859 797.161 284.378 791.886 z"/>
<path transform="translate(0,0)" fill="rgb(232,222,181)" d="M 284.378 791.886 C 288.095 789.671 286.645 789.832 290.574 790.3 C 292.761 792.3 293.279 792.622 293.969 795.461 C 300.161 801.781 306.954 806.292 312.429 811.767 L 315.62 815.673 C 315.282 818.233 315.847 817.218 313.957 818.864 C 307.975 816.624 286.717 812.431 284.083 809.04 C 288.875 804.155 287.859 797.161 284.378 791.886 z"/>
<path transform="translate(0,0)" fill="rgb(232,222,181)" d="M 352.025 805.997 L 354.727 805.202 C 358.806 808.772 357.882 820.193 360.164 826.093 C 362.46 832.029 367.764 839.862 369.638 845.236 C 368.595 844.755 366.001 844.848 364.432 844.535 L 364.676 843.43 L 367.016 842.003 C 362.384 835.102 358.969 829.218 357 820.94 C 356.273 817.885 356.628 815.14 355.752 812.495 C 353.076 814.159 347.003 823.841 344.813 827.079 L 345.186 828.174 L 350.308 827.299 C 353.716 828.469 352.084 830.216 353.683 833.978 C 353.683 833.979 357.05 836.849 357.39 837.139 L 357.469 838.483 C 347.634 836.828 340.847 826.936 334.297 823.668 L 335.09 821.171 C 347.023 830.354 350.273 814.956 352.025 805.997 z"/>
<path transform="translate(0,0)" fill="rgb(52,75,84)" d="M 556.593 989.153 C 556.178 986.962 555.957 986.892 554.318 985.238 C 549.16 984.604 548.158 984.428 544.469 981.207 L 544.401 979.532 C 547.806 977.046 565.509 975.24 570.191 975.941 C 574.701 976.616 574.793 976.771 577.378 979.833 C 581 988.774 631.399 1051.38 641.797 1063.34 L 641.307 1064.75 C 652.096 1082.13 645.491 1077.88 649.714 1092.2 C 648.003 1094.02 646.004 1096.3 644.127 1097.88 C 637.849 1092.22 632.652 1081.51 626.809 1074.67 C 605.002 1049.13 585.602 1021.01 564.494 995.07 C 563.522 1013.22 563.925 1032.16 564.04 1050.39 C 565.638 1054.6 565.407 1072.11 568.59 1080.02 C 571.686 1087.71 579.525 1095.37 580.531 1100.4 C 575.724 1103.5 567.945 1101.02 562.073 1100.84 C 555.621 1100.64 547.094 1103.04 542.326 1098.52 C 544.47 1094.07 552.367 1081.36 553.438 1078.41 C 558.62 1064.14 553.799 1042.92 555.847 1028.93 C 555.672 1018.17 555.507 999.406 556.593 989.153 z"/>
<path transform="translate(0,0)" fill="rgb(26,54,68)" d="M 555.847 1028.93 C 555.974 1031.24 556.027 1031.46 556.751 1033.66 L 556.197 1033.01 L 556.635 1034.13 C 556.503 1034 555.923 1032.13 555.813 1031.8 L 557.126 1031.22 C 557.321 1025.92 557.784 993.898 559.588 992.082 C 565.227 995.362 558.421 1039.38 564.04 1050.39 C 565.638 1054.6 565.407 1072.11 568.59 1080.02 C 571.686 1087.71 579.525 1095.37 580.531 1100.4 C 575.724 1103.5 567.945 1101.02 562.073 1100.84 C 555.621 1100.64 547.094 1103.04 542.326 1098.52 C 544.47 1094.07 552.367 1081.36 553.438 1078.41 C 558.62 1064.14 553.799 1042.92 555.847 1028.93 z"/>
<path transform="translate(0,0)" fill="rgb(38,58,65)" d="M 556.593 989.153 C 556.178 986.962 555.957 986.892 554.318 985.238 C 549.16 984.604 548.158 984.428 544.469 981.207 L 544.401 979.532 C 547.806 977.046 565.509 975.24 570.191 975.941 C 574.701 976.616 574.793 976.771 577.378 979.833 C 571.574 979.988 561.815 980.346 556.469 978.55 L 554.475 979.196 C 554.306 984.395 558.547 983.975 557.123 988.742 L 556.593 989.153 z"/>
<path transform="translate(0,0)" fill="rgb(236,175,94)" d="M 730.821 801.748 C 734.843 798.998 735.678 797.508 740.157 797.15 C 739.694 799.786 738.835 803.437 740.319 805.762 C 741.313 807.301 742.72 808.528 744.38 809.304 C 755.174 805.371 774.727 804.842 785.747 807.557 L 798.694 808.876 C 795.092 815.529 794.012 818.279 787.242 821.878 C 785.451 822.761 775.905 827.485 774.391 827.581 C 770.356 829.887 762.474 834.471 758.054 835.387 C 735.021 851.597 710.083 849.582 685.117 844.886 C 681.301 844.168 672.125 851.523 667.999 853.268 C 666.098 854.489 663.793 856.203 661.686 856.747 L 657.108 856.414 C 658.666 850.653 662.764 842.184 665.328 836.473 L 668.744 842.55 C 676.328 836.145 684.195 829.86 691.443 823.1 L 691.465 822.08 L 689.548 821.932 C 691.902 820.098 704.105 808.21 705.935 805.906 L 706.271 806.854 C 709.028 806.287 709.345 805.191 711.667 802.922 C 711.486 807.932 710.747 810.02 715.248 812.962 C 719.231 809.65 726.401 804.877 730.821 801.748 z"/>
<path transform="translate(0,0)" fill="rgb(234,208,159)" d="M 691.443 823.1 C 693.967 825.59 694.17 826.118 695.605 829.266 C 692.973 831.875 692.201 832.392 691.339 836.029 C 694.01 839.798 744.369 834.051 751.289 832.644 C 752.869 833.271 756.74 834.68 758.054 835.387 C 735.021 851.597 710.083 849.582 685.117 844.886 C 681.301 844.168 672.125 851.523 667.999 853.268 C 666.098 854.489 663.793 856.203 661.686 856.747 L 657.108 856.414 C 658.666 850.653 662.764 842.184 665.328 836.473 L 668.744 842.55 C 676.328 836.145 684.195 829.86 691.443 823.1 z"/>
<path transform="translate(0,0)" fill="rgb(235,190,128)" d="M 705.935 805.906 L 706.271 806.854 C 709.028 806.287 709.345 805.191 711.667 802.922 C 711.486 807.932 710.747 810.02 715.248 812.962 L 713.524 816.075 C 714.3 818.205 714.323 818.275 716.043 819.792 C 707.933 822.485 701.879 823.621 695.605 829.266 C 694.17 826.118 693.967 825.59 691.443 823.1 L 691.465 822.08 L 689.548 821.932 C 691.902 820.098 704.105 808.21 705.935 805.906 z"/>
<path transform="translate(0,0)" fill="rgb(241,235,205)" d="M 730.821 801.748 C 734.843 798.998 735.678 797.508 740.157 797.15 C 739.694 799.786 738.835 803.437 740.319 805.762 C 741.313 807.301 742.72 808.528 744.38 809.304 C 742.307 811.325 720.792 817.952 716.043 819.792 C 714.323 818.275 714.3 818.205 713.524 816.075 L 715.248 812.962 C 719.231 809.65 726.401 804.877 730.821 801.748 z"/>
<path transform="translate(0,0)" fill="rgb(229,172,112)" d="M 751.289 832.644 C 761.815 829.244 763.542 824.582 774.391 827.581 C 770.356 829.887 762.474 834.471 758.054 835.387 C 756.74 834.68 752.869 833.271 751.289 832.644 z"/>
<path transform="translate(0,0)" fill="rgb(229,172,112)" d="M 785.747 807.557 L 798.694 808.876 C 795.092 815.529 794.012 818.279 787.242 821.878 C 785.513 813.948 794.553 816.291 785.747 807.557 z"/>
<path transform="translate(0,0)" fill="rgb(236,175,94)" d="M 958.916 515.383 C 965.704 509.38 980.257 501.804 989.019 507.595 C 994.481 516.684 984.1 527.82 978.553 535.157 C 969.433 550.235 956.578 561.322 940.399 570.299 C 940.259 570.33 940.119 570.361 939.979 570.392 C 936.149 573.056 932.605 575.908 928.101 577.101 C 927.745 573.93 923.636 570.04 921.338 567.465 C 910.228 572.483 906.19 580.182 899.486 590.11 C 897.594 587.539 897.32 587.187 896.889 584.044 C 893.658 575.431 890.726 552.377 891.124 542.956 C 894.239 549.316 897.49 551.137 902.81 555.588 C 906.195 548.201 907.321 546.689 912.384 540.645 L 913.396 539.804 C 915.657 541.446 915.954 541.582 918.742 541.57 C 921.441 540.251 921.711 540.025 923.338 537.501 L 927.773 526.128 L 930.27 522.485 C 932.813 517.446 933.372 514.263 939.376 512.362 C 938.076 516.441 937.473 516.033 938.58 519.376 C 941.04 521.05 943.528 521.276 946.435 521.8 L 958.916 515.383 z"/>
<path transform="translate(0,0)" fill="rgb(232,222,181)" d="M 913.396 539.804 C 915.657 541.446 915.954 541.582 918.742 541.57 C 921.441 540.251 921.711 540.025 923.338 537.501 C 923.893 540.394 924.076 543.124 926.236 545.113 C 923.736 547.879 921.16 550.576 918.512 553.201 C 918.727 556.351 918.51 559.338 920.751 561.503 C 923.921 562.933 927.331 562.099 930.867 561.672 C 928.066 564.194 924.688 565.736 921.338 567.465 C 910.228 572.483 906.19 580.182 899.486 590.11 C 897.594 587.539 897.32 587.187 896.889 584.044 C 893.658 575.431 890.726 552.377 891.124 542.956 C 894.239 549.316 897.49 551.137 902.81 555.588 C 906.195 548.201 907.321 546.689 912.384 540.645 L 913.396 539.804 z"/>
<path transform="translate(0,0)" fill="rgb(235,190,128)" d="M 918.512 553.201 C 918.727 556.351 918.51 559.338 920.751 561.503 C 923.921 562.933 927.331 562.099 930.867 561.672 C 928.066 564.194 924.688 565.736 921.338 567.465 C 910.228 572.483 906.19 580.182 899.486 590.11 C 897.594 587.539 897.32 587.187 896.889 584.044 C 901.365 576.949 904.436 568.552 910.32 562.016 C 912.416 559.688 914.903 556.558 916.387 553.866 L 918.512 553.201 z"/>
<path transform="translate(0,0)" fill="rgb(234,208,159)" d="M 913.396 539.804 C 915.657 541.446 915.954 541.582 918.742 541.57 C 921.441 540.251 921.711 540.025 923.338 537.501 C 923.893 540.394 924.076 543.124 926.236 545.113 C 923.736 547.879 921.16 550.576 918.512 553.201 L 916.387 553.866 L 914.57 552.345 C 916.098 551.797 917.02 551.411 918.5 550.734 C 918.051 547.068 915.288 545.666 913.621 540.519 L 913.396 539.804 z"/>
<path transform="translate(0,0)" fill="rgb(235,190,128)" d="M 930.867 561.672 C 930.981 561.579 943.711 555.038 944.059 554.928 C 951.536 552.583 972.883 533.995 978.553 535.157 C 969.433 550.235 956.578 561.322 940.399 570.299 C 940.259 570.33 940.119 570.361 939.979 570.392 C 936.149 573.056 932.605 575.908 928.101 577.101 C 927.745 573.93 923.636 570.04 921.338 567.465 C 924.688 565.736 928.066 564.194 930.867 561.672 z"/>
<path transform="translate(0,0)" fill="rgb(234,208,159)" d="M 930.867 561.672 L 932.21 563.973 L 936.278 564.458 L 936.72 566.079 L 933.468 566.932 C 934.093 569.34 933.862 568.567 936.123 570.49 C 937.506 569.481 937.524 569.485 938.592 568.152 L 939.979 570.392 C 936.149 573.056 932.605 575.908 928.101 577.101 C 927.745 573.93 923.636 570.04 921.338 567.465 C 924.688 565.736 928.066 564.194 930.867 561.672 z"/>
<path transform="translate(0,0)" fill="rgb(232,222,181)" d="M 930.27 522.485 C 932.813 517.446 933.372 514.263 939.376 512.362 C 938.076 516.441 937.473 516.033 938.58 519.376 C 941.04 521.05 943.528 521.276 946.435 521.8 L 958.916 515.383 C 958.849 515.64 958.175 518.23 958.175 518.23 C 947.638 527.737 936.364 534.985 926.236 545.113 C 924.076 543.124 923.893 540.394 923.338 537.501 L 927.773 526.128 L 930.27 522.485 z"/>
<path transform="translate(0,0)" fill="rgb(236,175,94)" d="M 771.664 682.854 C 774.904 666.744 790.02 649.035 801.185 671.162 C 805.419 678.862 810.578 694.608 814.358 698.078 C 816.31 700.869 816.24 702.499 815.835 705.889 L 815.4 706.405 C 811.93 710.563 806.76 720.818 801.517 721.271 C 800.058 720.024 800.012 720.124 799.491 718.177 C 797.065 726.447 797.768 732.67 793.944 739.436 L 798.669 737.873 L 800.692 748.699 C 797.233 752.694 781.888 759.647 776.79 760.142 C 770.402 763.081 768.135 766.311 761.064 766.186 C 767.54 758.842 770.319 761.161 776.356 749.615 C 771.529 752.77 771.056 756.946 766.999 758.74 C 765.813 756.959 765.963 749.679 765.879 747.074 L 765.755 748.793 L 764.664 749.504 L 764.362 751.605 C 764.334 737.002 759.431 712.282 765.666 699.919 C 768.429 693.345 769.77 689.715 771.664 682.854 z"/>
<path transform="translate(0,0)" fill="rgb(234,208,159)" d="M 765.666 699.919 L 769.182 698.211 C 777.61 701.833 773.671 708.293 775.93 716.066 C 776.282 720.575 777.338 730.664 777.247 734.791 C 777.284 738.597 778.09 746.824 776.356 749.615 C 771.529 752.77 771.056 756.946 766.999 758.74 C 765.813 756.959 765.963 749.679 765.879 747.074 L 765.755 748.793 L 764.664 749.504 L 764.362 751.605 C 764.334 737.002 759.431 712.282 765.666 699.919 z"/>
<path transform="translate(0,0)" fill="rgb(232,222,181)" d="M 797.479 676.012 C 798.285 673.628 799.369 672.906 801.185 671.162 C 805.419 678.862 810.578 694.608 814.358 698.078 C 816.31 700.869 816.24 702.499 815.835 705.889 L 815.4 706.405 C 811.93 710.563 806.76 720.818 801.517 721.271 C 800.058 720.024 800.012 720.124 799.491 718.177 C 801.267 708.316 801.359 685.356 797.479 676.012 z"/>
<path transform="translate(0,0)" fill="rgb(232,222,181)" d="M 777.247 734.791 L 778.607 753.366 C 783.442 748.888 788.934 743.569 793.944 739.436 L 798.669 737.873 L 800.692 748.699 C 797.233 752.694 781.888 759.647 776.79 760.142 C 770.402 763.081 768.135 766.311 761.064 766.186 C 767.54 758.842 770.319 761.161 776.356 749.615 C 778.09 746.824 777.284 738.597 777.247 734.791 z"/>
<path transform="translate(0,0)" fill="rgb(229,172,112)" d="M 771.664 682.854 C 774.904 666.744 790.02 649.035 801.185 671.162 C 799.369 672.906 798.285 673.628 797.479 676.012 C 796.023 673.954 794.076 671.421 792.992 669.209 L 795.966 667.885 C 795.29 665.104 795.703 666.078 793.042 663.938 C 785.363 662.073 776.47 670.412 779.218 677.733 L 780.981 678.552 C 780.597 680.353 779.187 687.541 778.366 688.861 C 776.95 686.555 774.392 683.533 771.664 682.854 z"/>
<path transform="translate(0,0)" fill="rgb(235,190,128)" d="M 771.664 682.854 C 774.392 683.533 776.95 686.555 778.366 688.861 C 775.691 698.759 775.858 705.802 775.93 716.066 C 773.671 708.293 777.61 701.833 769.182 698.211 L 765.666 699.919 C 768.429 693.345 769.77 689.715 771.664 682.854 z"/>
<path transform="translate(0,0)" fill="url(#Gradient3)" d="M 628.474 825.957 C 628.529 811.024 663.582 761.721 673.519 789.947 C 677.039 800.807 679.475 813.239 689.548 821.932 L 691.465 822.08 L 691.443 823.1 C 684.195 829.86 676.328 836.145 668.744 842.55 L 665.328 836.473 C 662.764 842.184 658.666 850.653 657.108 856.414 C 652.473 862.026 641.456 868.475 635.083 872.52 C 633.356 872.317 632.428 871.743 630.876 871.005 C 630.499 867.687 631.542 867.498 633.817 863.911 C 630.741 865.959 628.766 868.16 625.25 867.683 C 622.438 849.526 622.41 843.147 628.474 825.957 z"/>
<path transform="translate(0,0)" fill="rgb(241,235,205)" d="M 673.519 789.947 C 677.039 800.807 679.475 813.239 689.548 821.932 L 691.465 822.08 L 691.443 823.1 C 684.195 829.86 676.328 836.145 668.744 842.55 L 665.328 836.473 C 672.701 820.594 672.081 806.614 673.519 789.947 z"/>
<path transform="translate(0,0)" fill="rgb(234,208,159)" d="M 628.474 825.957 L 631.247 826.675 C 632.012 830.515 628.415 832.949 629.164 836.243 C 631.098 837.454 631.292 837.512 633.498 838.149 C 636.687 841.482 635.225 849.066 634.787 853.463 L 635.69 854.416 C 638.224 849.765 636.438 838.061 637.992 835.614 C 639.588 843.564 638.434 857.043 633.817 863.911 C 630.741 865.959 628.766 868.16 625.25 867.683 C 622.438 849.526 622.41 843.147 628.474 825.957 z"/>
<path transform="translate(0,0)" fill="rgb(236,175,94)" d="M 284.117 744.624 C 283.595 738.58 283.953 731.167 289.484 727.829 C 302.075 720.229 311.88 735.243 316.787 742.783 C 330.433 764.541 333.577 771.169 332.225 797.732 C 331.959 802.96 333.48 816.019 335.09 821.171 L 334.297 823.668 L 330.78 823.285 C 328.378 823.207 325.978 823.072 323.582 822.882 C 319.933 822.562 316.339 821.686 313.957 818.864 C 315.847 817.218 315.282 818.233 315.62 815.673 L 312.429 811.767 C 306.954 806.292 300.161 801.781 293.969 795.461 C 294.73 790.994 296.095 787.815 294.498 784.199 C 290.449 779.644 289.435 770.68 287.478 764.618 L 287.125 772.081 L 286.178 771.756 L 284.455 762.382 C 283.478 757.492 283.983 749.815 284.117 744.624 z"/>
<path transform="translate(0,0)" fill="url(#Gradient2)" d="M 316.787 742.783 C 330.433 764.541 333.577 771.169 332.225 797.732 C 331.959 802.96 333.48 816.019 335.09 821.171 L 334.297 823.668 L 330.78 823.285 C 328.378 823.207 325.978 823.072 323.582 822.882 C 319.933 822.562 316.339 821.686 313.957 818.864 C 315.847 817.218 315.282 818.233 315.62 815.673 L 312.429 811.767 C 318.418 807.668 317.659 808.078 318.233 801.163 C 314.857 794.755 314.099 758.467 314.073 749.795 C 314.067 747.916 315.773 744.49 316.787 742.783 z"/>
<path transform="translate(0,0)" fill="rgb(235,190,128)" d="M 318.233 801.163 C 320.907 808.886 324.481 817.722 330.78 823.285 C 328.378 823.207 325.978 823.072 323.582 822.882 C 319.933 822.562 316.339 821.686 313.957 818.864 C 315.847 817.218 315.282 818.233 315.62 815.673 L 312.429 811.767 C 318.418 807.668 317.659 808.078 318.233 801.163 z"/>
<path transform="translate(0,0)" fill="rgb(229,172,112)" d="M 284.117 744.624 C 286.776 748.617 294.627 780.564 294.498 784.199 C 290.449 779.644 289.435 770.68 287.478 764.618 L 287.125 772.081 L 286.178 771.756 L 284.455 762.382 C 283.478 757.492 283.983 749.815 284.117 744.624 z"/>
<path transform="translate(0,0)" fill="rgb(236,175,94)" d="M 800.692 748.699 C 819.404 745.89 847.956 724.141 863.54 742.053 C 862.676 747.707 846.473 757.517 841.317 761.376 C 835.88 766.548 827.73 772.729 820.645 775.18 C 806.493 781.277 784.778 792.13 769.608 787.911 C 745.366 781.17 755.265 791.911 740.157 797.15 C 735.678 797.508 734.843 798.998 730.821 801.748 C 732.113 797.465 733.495 793.09 734.59 788.761 C 738.421 790.655 758.011 769.954 761.064 766.186 C 768.135 766.311 770.402 763.081 776.79 760.142 C 781.888 759.647 797.233 752.694 800.692 748.699 z"/>
<path transform="translate(0,0)" fill="rgb(235,190,128)" d="M 761.064 766.186 C 768.135 766.311 770.402 763.081 776.79 760.142 C 772.432 764.738 766.415 769.536 771.729 775.632 C 779.331 779.068 803.516 773.572 811.089 770.66 L 811.79 770.384 L 812.668 770.413 C 817.265 770.525 819.733 769.728 824.176 768.561 L 824.356 770.061 C 822.947 771.723 821.472 773.194 820.645 775.18 C 806.493 781.277 784.778 792.13 769.608 787.911 C 745.366 781.17 755.265 791.911 740.157 797.15 C 735.678 797.508 734.843 798.998 730.821 801.748 C 732.113 797.465 733.495 793.09 734.59 788.761 C 738.421 790.655 758.011 769.954 761.064 766.186 z"/>
<path transform="translate(0,0)" fill="rgb(235,190,128)" d="M 811.79 770.384 C 820.56 767.043 832.867 760.355 841.317 761.376 C 835.88 766.548 827.73 772.729 820.645 775.18 C 821.472 773.194 822.947 771.723 824.356 770.061 L 824.176 768.561 C 819.733 769.728 817.265 770.525 812.668 770.413 L 811.79 770.384 z"/>
<path transform="translate(0,0)" fill="rgb(236,175,94)" d="M 16.4489 384.523 C 12.0668 379.092 2.0917 356.648 5.58972 349.732 C 9.96628 341.078 23.4696 348.093 29.571 350.966 C 33.6222 354.215 34.1323 355.465 36.6047 360.119 C 41.9619 365.218 46.8846 354.725 55.0863 367.448 C 58.7876 374.344 62.3311 383.905 68.9548 386.759 C 69.932 390.63 70.5245 394.074 72.8662 397.323 C 66.8929 399.987 67.3676 399.857 67.0735 406.704 C 68.0763 409.751 70.6344 418.367 72.4115 420.59 C 70.7793 424.733 70.3219 425.215 67.2604 428.484 L 66.9636 429.985 C 64.9519 428.566 60.296 423.473 58.3645 421.465 C 37.2395 410.723 27.2809 410.571 16.6949 384.904 L 16.4489 384.523 z"/>
<path transform="translate(0,0)" fill="rgb(235,190,128)" d="M 16.6949 384.904 C 23.8705 379.819 47.8561 407.417 56.4742 413.125 C 60.8861 412.017 60.824 411.392 62.8682 408.145 C 63.4718 402.808 61.9505 400.212 60.4596 394.881 C 64.6107 398.933 65.1526 401.179 67.0735 406.704 C 68.0763 409.751 70.6344 418.367 72.4115 420.59 C 70.7793 424.733 70.3219 425.215 67.2604 428.484 L 66.9636 429.985 C 64.9519 428.566 60.296 423.473 58.3645 421.465 C 37.2395 410.723 27.2809 410.571 16.6949 384.904 z"/>
<path transform="translate(0,0)" fill="rgb(232,222,181)" d="M 29.571 350.966 C 33.6222 354.215 34.1323 355.465 36.6047 360.119 C 41.9619 365.218 46.8846 354.725 55.0863 367.448 C 58.7876 374.344 62.3311 383.905 68.9548 386.759 C 69.932 390.63 70.5245 394.074 72.8662 397.323 C 66.8929 399.987 67.3676 399.857 67.0735 406.704 C 65.1526 401.179 64.6107 398.933 60.4596 394.881 C 53.0618 384.894 36.1838 363.347 26.7634 356.554 L 29.571 350.966 z"/>
<path transform="translate(0,0)" fill="rgb(229,172,112)" d="M 16.4489 384.523 C 12.0668 379.092 2.0917 356.648 5.58972 349.732 C 9.96628 341.078 23.4696 348.093 29.571 350.966 L 26.7634 356.554 C 24.2263 355.984 22.1555 355.578 19.6916 354.682 C 19.7147 352.469 17.8078 350.682 16.0764 349.585 C 9.17196 353.815 10.5701 358.228 11.9501 365.458 L 11.7853 363.178 L 14.5137 373.236 L 14.042 370.329 C 16.0348 375.644 16.3589 378.891 16.4489 384.523 z"/>
<path transform="translate(0,0)" fill="rgb(236,175,94)" d="M 871.113 672.652 C 883.481 670.357 894.911 666.125 907.044 663.034 C 911.64 661.863 911.869 662.368 914.316 666.3 C 915.135 675.677 891.109 694.837 882.982 699.596 C 874.253 705.956 867.056 711.035 856.324 713.588 C 835.875 718.454 808.76 712.363 798.669 737.873 L 793.944 739.436 C 797.768 732.67 797.065 726.447 799.491 718.177 C 800.012 720.124 800.058 720.024 801.517 721.271 C 806.76 720.818 811.93 710.563 815.4 706.405 L 815.835 705.889 C 819.592 704.926 823.043 701.918 826.21 699.537 L 837.257 691.806 C 840.412 690.497 842.085 689.485 845.005 687.763 C 841.16 685.772 840.891 685.292 840.369 681.428 C 843.189 678.367 846.34 674.459 849.089 671.237 L 852.387 668.682 C 852.813 669.994 852.821 670.804 853.696 671.594 C 860.428 672.486 864.322 672.603 871.113 672.652 z"/>
<path transform="translate(0,0)" fill="rgb(235,190,128)" d="M 826.21 699.537 C 838.112 721.138 873.098 692.724 882.982 699.596 C 874.253 705.956 867.056 711.035 856.324 713.588 C 835.875 718.454 808.76 712.363 798.669 737.873 L 793.944 739.436 C 797.768 732.67 797.065 726.447 799.491 718.177 C 800.012 720.124 800.058 720.024 801.517 721.271 C 806.76 720.818 811.93 710.563 815.4 706.405 L 815.835 705.889 C 819.592 704.926 823.043 701.918 826.21 699.537 z"/>
<path transform="translate(0,0)" fill="rgb(241,235,205)" d="M 849.089 671.237 L 852.387 668.682 C 852.813 669.994 852.821 670.804 853.696 671.594 C 860.428 672.486 864.322 672.603 871.113 672.652 L 871.255 674.481 C 862.723 679.218 853.648 683.097 845.005 687.763 C 841.16 685.772 840.891 685.292 840.369 681.428 C 843.189 678.367 846.34 674.459 849.089 671.237 z"/>
<path transform="translate(0,0)" fill="rgb(236,175,94)" d="M 820.573 628.365 C 818.481 619.617 822.204 594.384 834.244 593.102 C 846.924 591.752 849.604 608.619 850.773 617.759 C 848.023 626.688 852.047 664.81 849.089 671.237 C 846.34 674.459 843.189 678.367 840.369 681.428 C 840.891 685.292 841.16 685.772 845.005 687.763 C 842.085 689.485 840.412 690.497 837.257 691.806 L 826.21 699.537 C 823.043 701.918 819.592 704.926 815.835 705.889 C 816.24 702.499 816.31 700.869 814.358 698.078 C 836.548 677.435 815.438 667.694 813.947 644.342 C 813.429 636.222 817.121 635.91 820.219 629.149 L 820.573 628.365 z"/>
<path transform="translate(0,0)" fill="rgb(234,208,159)" d="M 820.573 628.365 C 822.416 629.205 822.915 629.103 823.719 632.097 C 828.125 648.517 833.564 664.595 836.699 681.331 C 837.239 681.696 837.778 682.061 838.317 682.426 L 840.369 681.428 C 840.891 685.292 841.16 685.772 845.005 687.763 C 842.085 689.485 840.412 690.497 837.257 691.806 L 826.21 699.537 C 823.043 701.918 819.592 704.926 815.835 705.889 C 816.24 702.499 816.31 700.869 814.358 698.078 C 836.548 677.435 815.438 667.694 813.947 644.342 C 813.429 636.222 817.121 635.91 820.219 629.149 L 820.573 628.365 z"/>
<path transform="translate(0,0)" fill="rgb(232,222,181)" d="M 840.369 681.428 C 840.891 685.292 841.16 685.772 845.005 687.763 C 842.085 689.485 840.412 690.497 837.257 691.806 C 835.61 687.226 836.822 688.257 838.317 682.426 L 840.369 681.428 z"/>
<path transform="translate(0,0)" fill="rgb(236,175,94)" d="M 715.553 736.05 C 726.275 721.265 734.379 718.046 741.718 737.642 C 750.949 753.135 745.796 755.145 749.021 762.918 C 744.071 764.149 743.9 764.916 740.704 769.363 C 738.76 776.22 736.947 782.037 734.59 788.761 C 733.495 793.09 732.113 797.465 730.821 801.748 C 726.401 804.877 719.231 809.65 715.248 812.962 C 710.747 810.02 711.486 807.932 711.667 802.922 C 709.345 805.191 709.028 806.287 706.271 806.854 L 705.935 805.906 C 690.509 778.631 699.731 759.989 715.553 736.05 z"/>
<path transform="translate(0,0)" fill="rgb(234,208,159)" d="M 715.553 736.05 C 716.717 736.982 719.171 738.672 718.828 740.364 C 716.308 752.794 717.506 793.482 711.667 802.922 C 709.345 805.191 709.028 806.287 706.271 806.854 L 705.935 805.906 C 690.509 778.631 699.731 759.989 715.553 736.05 z"/>
<path transform="translate(0,0)" fill="rgb(234,208,159)" d="M 741.718 737.642 C 750.949 753.135 745.796 755.145 749.021 762.918 C 744.071 764.149 743.9 764.916 740.704 769.363 C 741.063 760.292 739.674 745.323 741.718 737.642 z"/>
<path transform="translate(0,0)" fill="rgb(236,175,94)" d="M 865.346 588.973 C 859.76 576.034 860.512 545.855 864.416 532.254 C 870.047 512.634 887.306 531.972 891.124 542.956 C 890.726 552.377 893.658 575.431 896.889 584.044 C 897.32 587.187 897.594 587.539 899.486 590.11 C 896.463 594.882 891.016 603.611 888.814 608.751 L 886.44 615.073 C 887.13 617.476 887.285 619.071 889.137 620.682 C 886.638 622.898 883.352 626.018 880.582 627.687 L 876.76 623.986 C 875.987 620.751 876.402 621.798 873.261 619.44 C 874.527 610.647 867.726 600.941 865.346 588.973 z"/>
<path transform="translate(0,0)" fill="rgb(235,190,128)" d="M 865.346 588.973 L 867.17 588.467 C 871.275 597.878 871.455 600.803 877.311 610.56 C 882.343 605.559 878.678 597.672 876.681 591.739 C 878.623 595.28 884.659 607.924 887.185 609.2 L 888.814 608.751 L 886.44 615.073 C 887.13 617.476 887.285 619.071 889.137 620.682 C 886.638 622.898 883.352 626.018 880.582 627.687 L 876.76 623.986 C 875.987 620.751 876.402 621.798 873.261 619.44 C 874.527 610.647 867.726 600.941 865.346 588.973 z"/>
<path transform="translate(0,0)" fill="rgb(234,208,159)" d="M 876.76 623.986 C 876.804 617.918 880.036 618.137 880.186 610.502 L 880.196 609.721 C 880.967 613.974 880.406 614.891 882.856 617.641 C 885.195 617.214 884.469 617.329 886.44 615.073 C 887.13 617.476 887.285 619.071 889.137 620.682 C 886.638 622.898 883.352 626.018 880.582 627.687 L 876.76 623.986 z"/>
<path transform="translate(0,0)" fill="rgb(236,175,94)" d="M 50.614 297.987 C 54.3518 293.203 58.1716 286.83 64.8243 290.138 C 66.1357 292.584 66.9851 293.902 67.5688 296.678 C 76.5891 315.769 83.2506 343.049 76.1667 363.444 C 74.7868 366.753 72.4758 373.054 70.3897 375.608 C 69.6818 379.349 68.8488 382.947 68.9548 386.759 C 62.3311 383.905 58.7876 374.344 55.0863 367.448 C 46.8846 354.725 41.9619 365.218 36.6047 360.119 C 40.4722 358.77 39.8034 360.868 43.6177 358.858 C 47.3478 343.439 32.1042 315.798 50.614 297.987 z"/>
<path transform="translate(0,0)" fill="rgb(234,208,159)" d="M 50.614 297.987 C 52.4062 299.667 53.6198 300.412 53.4709 303.445 C 52.4554 324.135 52.5016 337.929 55.9367 358.515 L 55.0863 367.448 C 46.8846 354.725 41.9619 365.218 36.6047 360.119 C 40.4722 358.77 39.8034 360.868 43.6177 358.858 C 47.3478 343.439 32.1042 315.798 50.614 297.987 z"/>
<path transform="translate(0,0)" fill="rgb(229,172,112)" d="M 67.5688 296.678 C 76.5891 315.769 83.2506 343.049 76.1667 363.444 C 74.7225 360.296 74.8791 355.257 74.984 351.704 C 75.5091 333.932 67.676 313.92 67.5688 296.678 z"/>
<path transform="translate(0,0)" fill="rgb(236,175,94)" d="M 55.9367 358.515 C 57.1879 360.008 60.2041 363.513 60.7915 365.181 C 62.7312 370.689 60.7462 376.425 65.8534 379.846 C 69.2167 378.564 67.8631 378.145 70.3897 375.608 C 69.6818 379.349 68.8488 382.947 68.9548 386.759 C 62.3311 383.905 58.7876 374.344 55.0863 367.448 L 55.9367 358.515 z"/>
<path transform="translate(0,0)" fill="rgb(40,67,80)" d="M 365.019 988.775 C 369.262 988.186 370.938 984.4 376.427 982.293 C 382.139 980.101 385.093 979.866 391.005 978.605 L 392.454 979.984 C 387.704 986.365 381.351 986.048 376.788 991.878 C 367.767 1003.41 377.146 1012.79 386.31 1019.92 C 399.607 1031.07 423.78 1040.5 427.765 1059.43 C 428.66 1063.68 425.704 1072.58 422.907 1075.84 C 417.398 1086.07 409.941 1094.7 398.248 1097.42 C 398.585 1095.24 399.62 1091.78 400.213 1089.54 C 407.109 1086.46 415.247 1079.87 409.817 1072.07 L 408.824 1071.01 C 416.201 1053.8 371.601 1036.93 362.344 1025.09 C 353.118 1013.3 353.904 998.417 365.019 988.775 z"/>
<path transform="translate(0,0)" fill="rgb(38,58,65)" d="M 409.817 1072.07 C 413.707 1072.7 412.474 1071.94 414.651 1074.69 C 415.41 1079.56 410.513 1083.02 411.311 1086.39 C 417.078 1086.5 416.838 1078.76 421.803 1075.63 L 422.907 1075.84 C 417.398 1086.07 409.941 1094.7 398.248 1097.42 C 398.585 1095.24 399.62 1091.78 400.213 1089.54 C 407.109 1086.46 415.247 1079.87 409.817 1072.07 z"/>
<path transform="translate(0,0)" fill="url(#Gradient1)" d="M 641.797 1063.34 C 645.741 1042.94 643.557 1006.8 635.633 986.933 C 632.034 977.91 628.153 986.264 625.315 978.76 L 626.334 977.396 C 644.386 975.917 649.207 976.162 666.789 978.384 C 668.641 981.05 668.885 981.45 671.908 982.545 C 644.57 987.099 659.913 1058.57 656.062 1079.65 C 656.322 1087.23 656.418 1096.47 655.288 1104 L 647.229 1104 L 644.127 1097.88 C 646.004 1096.3 648.003 1094.02 649.714 1092.2 C 645.491 1077.88 652.096 1082.13 641.307 1064.75 L 641.797 1063.34 z"/>
<path transform="translate(0,0)" fill="rgb(100,117,130)" d="M 649.714 1092.2 L 650.347 1094.54 C 649.612 1096.99 649.305 1097.39 649.877 1099.77 L 652.555 1100.3 C 656.28 1094.62 651.197 1082.87 652.82 1076.2 C 653.735 1072.44 653.629 1067.24 653.708 1063.24 C 655.563 1069.49 653.212 1075.86 656.062 1079.65 C 656.322 1087.23 656.418 1096.47 655.288 1104 L 647.229 1104 L 644.127 1097.88 C 646.004 1096.3 648.003 1094.02 649.714 1092.2 z"/>
<path transform="translate(0,0)" fill="rgb(26,54,68)" d="M 365.019 988.775 C 379.839 971.283 401.419 974.691 421.86 975.404 C 422.318 977.257 422.714 979.124 423.047 981.002 C 424.186 987.338 427.1 1006.82 423.5 1012.02 C 415.407 1011.15 410.918 982.827 392.454 979.984 L 391.005 978.605 C 385.093 979.866 382.139 980.101 376.427 982.293 C 370.938 984.4 369.262 988.186 365.019 988.775 z"/>
<path transform="translate(0,0)" fill="rgb(26,54,68)" d="M 363.758 1099.16 C 346.316 1095.75 349.379 1081.89 351.683 1065.89 C 351.648 1066.13 355.704 1064.82 357.467 1062.53 C 360.895 1071.97 364.319 1082.58 372.489 1088.92 L 373.267 1089.51 C 374.969 1093.57 375.578 1093.06 374.476 1096.27 C 370.443 1098.44 367.847 1097.9 363.758 1099.16 z"/>
<path transform="translate(0,0)" fill="rgb(241,235,205)" d="M 764.362 751.605 L 764.664 749.504 L 765.755 748.793 L 765.879 747.074 C 765.963 749.679 765.813 756.959 766.999 758.74 C 771.056 756.946 771.529 752.77 776.356 749.615 C 770.319 761.161 767.54 758.842 761.064 766.186 C 758.011 769.954 738.421 790.655 734.59 788.761 C 736.947 782.037 738.76 776.22 740.704 769.363 C 743.9 764.916 744.071 764.149 749.021 762.918 C 756.785 757.597 763.281 761.336 764.362 751.605 z"/>
<path transform="translate(0,0)" fill="rgb(0,0,0)" d="M 373.267 1089.51 C 385.185 1094.23 387.951 1093.41 400.213 1089.54 C 399.62 1091.78 398.585 1095.24 398.248 1097.42 C 393.015 1098.57 388.023 1098.23 386.973 1104 L 373.228 1104 C 370.814 1099.98 368.076 1100.02 363.758 1099.16 C 367.847 1097.9 370.443 1098.44 374.476 1096.27 C 375.578 1093.06 374.969 1093.57 373.267 1089.51 z"/>
<path transform="translate(0,0)" fill="rgb(40,67,80)" d="M 666.789 978.384 C 672.997 977.69 676.897 977.11 683.178 977.556 C 683.253 979.433 683.453 982.154 683.391 983.952 C 678.923 983.672 676.308 983.361 671.908 982.545 C 668.885 981.45 668.641 981.05 666.789 978.384 z"/>
</svg>